<?xml version="1.0" encoding="UTF-8" standalone="no"?>
<!-- Created with Inkscape (http://www.inkscape.org/) -->

<svg
   width="250"
   height="250"
   viewBox="0 0 250 250"
   version="1.1"
   id="svg5"
   xml:space="preserve"
   xmlns="http://www.w3.org/2000/svg"
   xmlns:svg="http://www.w3.org/2000/svg"><defs
     id="defs2" /><path
     style="fill:none;stroke-width:3;stroke:#1ec3b4;stroke-opacity:0.96862745;stroke-dasharray:none"
     d="M 180.62123,120.48456 H 13.9293 c -7.7438901,0 -14.02266327,-6.44616 -14.02266327,-14.39648 V 14.923312 c 0,-7.9503273 6.27877317,-14.39648067 14.02266327,-14.39648067 h 166.69193 c 7.74389,0 14.02267,6.44615337 14.02267,14.39648067 v 91.164768 c 0,7.95176 -6.27738,14.39648 -14.02267,14.39648 z"
     id="path4056" /><path
     style="fill:#008080;stroke-width:0.709956;fill-opacity:1;stroke:#008080;stroke-opacity:1"
     d="M 180.62123,0.52827004 H 98.25096 V 120.486 h 82.37027 c 7.74389,0 14.02267,-6.44616 14.02267,-14.39648 V 14.924751 c 0,-7.9517663 -6.27738,-14.39648096 -14.02267,-14.39648096 z"
     id="path4058" /><path
     style="fill:none;stroke:#3395f5;stroke-width:3.5;stroke-opacity:1;stroke-dasharray:none"
     d="m 46.621387,57.933895 c 0,0 -2.170203,22.818391 -19.765483,32.324824 0,0 16.779261,-5.044105 19.765483,8.028625 0,0 16.150581,-9.718604 12.052243,-38.663472"
     id="path4060" /><path
     style="fill:none;stroke:#3395f5;stroke-width:3.5;stroke-opacity:1;stroke-dasharray:none"
     d="m 81.595395,57.931071 c 0,0 2.170135,22.819378 19.764865,32.326221 0,0 -16.778737,-5.044322 -19.764865,8.028972 0,0 -16.150071,-9.719023 -12.051863,-38.665142"
     id="path4062" /><path
     style="fill:none;stroke-width:3.5;stroke:#3395f5;stroke-opacity:1;stroke-dasharray:none"
     d="m 14.484938,23.654861 c 0,0 6.636118,14.2634 0.85903,31.068287 0,0 7.702551,12.603125 45.495706,0 L 60.430478,32.436046 Z"
     id="path4064" /><path
     style="fill:none;stroke-width:3.5;stroke:#3395f5;stroke-opacity:1;stroke-dasharray:none"
     d="m 61.802405,33.963959 c 0,0 -25.035215,-29.6554707 -44.050908,-16.311408 -19.0156928,13.344062 44.050908,16.311408 44.050908,16.311408 z"
     id="path4066" /><path
     style="fill:none;stroke-width:3.5;stroke:#3395f5;stroke-opacity:1;stroke-dasharray:none"
     d="m 113.82983,23.433299 c 0,0 -6.73562,14.485682 -0.95923,31.290568 0,0 -7.70255,12.603125 -45.495705,0 l 0.409196,-22.287102 z"
     id="path4068" /><path
     style="fill:none;stroke-width:3.5;stroke:#3395f5;stroke-opacity:1;stroke-dasharray:none"
     d="m 66.412865,33.963959 c 0,0 25.035215,-29.6554707 44.050905,-16.311408 19.0157,13.344062 -44.050905,16.311408 -44.050905,16.311408 z"
     id="path4070" /><ellipse
     style="fill:none;stroke-width:3.5;stroke:#3395f5;stroke-opacity:1;stroke-dasharray:none"
     cx="64.106934"
     cy="44.094658"
     id="circle4072"
     rx="13.480339"
     ry="13.8397" /><path
     style="fill:none;stroke-width:3.5;fill-opacity:1;stroke:#3395f5;stroke-opacity:1;stroke-dasharray:none"
     d="m 64.108336,30.257115 c 7.444,0 13.480339,6.195817 13.480339,13.839699 0,7.642443 -6.034938,13.839699 -13.480339,13.839699 z"
     id="path4074" /><path
     style="fill:#67ef9b;stroke-width:0.709956;stroke:#67ef9b;stroke-opacity:1;fill-opacity:1"
     d="M 234.47946,180.69086 H 67.786829 c -7.74389,0 -14.022663,-6.44615 -14.022663,-14.39648 V 75.129617 c 0,-7.950328 6.278773,-14.396481 14.022663,-14.396481 H 234.47876 c 7.74389,0 14.02267,6.446153 14.02267,14.396481 v 91.164763 c 7e-4,7.95033 -6.27808,14.39648 -14.02197,14.39648 z"
     id="path4048" /><path
     style="fill:#368efe;stroke-width:0.709956;fill-opacity:0.97647059;stroke:#3691fc;stroke-opacity:1"
     d="M 234.47946,60.733136 H 149.81938 V 180.69086 h 84.66078 c 7.74389,0 14.02267,-6.44615 14.02267,-14.39648 V 75.129617 c -7e-4,-7.950328 -6.27948,-14.396481 -14.02337,-14.396481 z"
     id="path4050" /><rect
     x="53.75856"
     y="81.231918"
     style="fill:#3f3b3b;stroke-width:0.709956"
     width="194.73796"
     height="29.659786"
     id="rect4052" /><rect
     x="149.82288"
     y="81.231918"
     style="fill:#272525;stroke-width:0.709956"
     width="98.685555"
     height="29.659786"
     id="rect4054" /><g
     id="g7595"
     transform="translate(-10,192.04637)"><g
       id="XMLID_1196_"
       style="fill:#008080"
       transform="matrix(0.5061719,0,0,0.5061719,62.849218,-117.04572)"><g
         id="XMLID_46_"
         style="fill:#008080"><polygon
           id="XMLID_1198_"
           style="fill:#008080"
           points="91.672,139.397 135.228,119.309 55.129,102.096 36.863,110.52 " /></g><path
         id="XMLID_45_"
         style="fill:#008080"
         d="m 32.223,148.452 11.307,3.488 c 24.182,-12.408 90.503,-46.351 103.735,-52.201 10.697,-4.729 27.701,-0.442 29.176,2.325 0.021,0.039 3.135,12.61 -21.93,27.019 l -64.165,32.673 v 0 l -39.07,19.895 -39.381,-21.194 z" /></g><g
       id="XMLID_1197_"
       style="fill:#008080"
       transform="matrix(0.5061719,0,0,0.5061719,70.849218,-121.04572)"><rect
         id="XMLID_41_"
         x="203"
         y="157.16299"
         style="fill:#008080"
         width="142.66701"
         height="25.333" /><rect
         id="XMLID_38_"
         x="203"
         y="108.08"
         style="fill:#008080"
         width="142.66701"
         height="25.333" /></g></g><path
     style="fill:#2768ff;stroke-width:0.268372;fill-opacity:0.99215686"
     d="m 142.6145,174.13073 h -29.61327 c -0.65429,0 -1.18459,0.5303 -1.18459,1.18459 v 1.05068 c 0,2.55114 -1.96073,4.74643 -4.50892,4.86666 -2.72076,0.12828 -4.96731,-2.04017 -4.96731,-4.73274 v -1.1846 c 0,-0.65429 -0.5303,-1.18459 -1.18459,-1.18459 H 9.946304 c -1.3083146,0 -2.3691899,1.06087 -2.3691899,2.36919 v 71.07247 c 0,1.30832 1.0608753,2.36919 2.3691899,2.36919 h 91.209516 c 0.65429,0 1.18459,-0.5303 1.18459,-1.18459 v -1.05068 c 0,-2.55115 1.96073,-4.74643 4.50893,-4.86666 2.72075,-0.12828 4.9673,2.04016 4.9673,4.73274 v 1.1846 c 0,0.65429 0.5303,1.18459 1.18459,1.18459 h 29.61353 c 1.30832,0 2.36919,-1.06087 2.36919,-2.36919 v -71.07274 c -2.6e-4,-1.30832 -1.06114,-2.36892 -2.36945,-2.36892 z m -33.16705,61.59598 c 0,1.30832 -1.05954,2.36919 -2.36919,2.36919 -1.30939,0 -2.36919,-1.06087 -2.36919,-2.36919 v -4.73811 c 0,-1.30831 1.05953,-2.36919 2.36919,-2.36919 1.30939,0 2.36919,1.06088 2.36919,2.36919 z m 0,-14.2146 c 0,1.30831 -1.05954,2.36919 -2.36919,2.36919 -1.30939,0 -2.36919,-1.06088 -2.36919,-2.36919 V 216.774 c 0,-1.30832 1.05953,-2.36919 2.36919,-2.36919 1.30939,0 2.36919,1.06087 2.36919,2.36919 z m 0,-14.21434 c 0,1.30832 -1.05954,2.36919 -2.36919,2.36919 -1.30939,0 -2.36919,-1.06087 -2.36919,-2.36919 v -4.73811 c 0,-1.30831 1.05953,-2.36919 2.36919,-2.36919 1.30939,0 2.36919,1.06088 2.36919,2.36919 z m 0,-14.2146 c 0,1.30832 -1.05954,2.36919 -2.36919,2.36919 -1.30939,0 -2.36919,-1.06087 -2.36919,-2.36919 v -4.73811 c 0,-1.30831 1.05953,-2.36919 2.36919,-2.36919 1.30939,0 2.36919,1.06088 2.36919,2.36919 z"
     id="path1507" /><g
     id="g1515"
     transform="matrix(0.26837221,0,0,0.26837221,7.5771141,143.3326)"
     style="fill:#4d4d4d"><path
       style="fill:#4d4d4d"
       d="m 97.103,346.483 c -2.828,0 -5.646,-1.078 -7.801,-3.233 -4.31,-4.31 -4.31,-11.293 0,-15.604 L 248.199,168.749 c 4.31,-4.31 11.293,-4.31 15.604,0 4.311,4.31 4.31,11.293 0,15.604 L 104.906,343.25 c -2.156,2.155 -4.974,3.233 -7.803,3.233 z"
       id="path1509" /><path
       style="fill:#4d4d4d"
       d="m 123.586,249.379 c -25.551,0 -46.345,-20.789 -46.345,-46.345 0,-25.556 20.793,-46.345 46.345,-46.345 25.552,0 46.345,20.789 46.345,46.345 0,25.556 -20.793,46.345 -46.345,46.345 z m 0,-70.62 c -13.388,0 -24.276,10.888 -24.276,24.276 0,13.388 10.888,24.276 24.276,24.276 13.388,0 24.276,-10.888 24.276,-24.276 0,-13.389 -10.888,-24.276 -24.276,-24.276 z"
       id="path1511" /><path
       style="fill:#4d4d4d"
       d="m 229.517,355.31 c -25.551,0 -46.345,-20.789 -46.345,-46.345 0,-25.556 20.793,-46.345 46.345,-46.345 25.552,0 46.345,20.789 46.345,46.345 0,25.556 -20.793,46.345 -46.345,46.345 z m 0,-70.62 c -13.388,0 -24.276,10.888 -24.276,24.276 0,13.388 10.888,24.276 24.276,24.276 13.388,0 24.276,-10.888 24.276,-24.276 0,-13.388 -10.888,-24.276 -24.276,-24.276 z"
       id="path1513" /></g><path
     style="fill:#368cff;stroke-width:0.268372;fill-opacity:1"
     d="m 109.44745,188.34506 v 4.73811 c 0,1.30832 -1.05954,2.36919 -2.36919,2.36919 v 4.73811 c 1.30939,0 2.36919,1.06088 2.36919,2.36919 v 4.73811 c 0,1.30832 -1.05954,2.36919 -2.36919,2.36919 v 4.73812 c 1.30939,0 2.36919,1.06087 2.36919,2.36919 v 4.73811 c 0,1.30831 -1.05954,2.36919 -2.36919,2.36919 v 4.73811 c 1.30939,0 2.36919,1.06087 2.36919,2.36919 v 4.73811 c 0,1.30831 -1.05954,2.36919 -2.36919,2.36919 v 4.73811 c 2.61663,0 4.73811,2.12148 4.73811,4.73811 v 1.1846 c 0,0.65429 0.5303,1.18459 1.18459,1.18459 h 29.61354 c 1.30831,0 2.36919,-1.06087 2.36919,-2.36919 v -71.07274 c 0,-1.30832 -1.06088,-2.36919 -2.36919,-2.36919 h -29.61327 c -0.65429,0 -1.18459,0.5303 -1.18459,1.18459 v 1.1846 c 0,2.61663 -2.12148,4.73811 -4.73811,4.73811 v 4.73811 c 1.30938,2.7e-4 2.36892,1.06088 2.36892,2.36919 z"
     id="path1517" /><ellipse
     style="opacity:0.8;fill:#cccccc;fill-rule:evenodd;stroke:none;stroke-width:0.419292;stroke-linejoin:round;stroke-opacity:0.55"
     id="path7794"
     cx="210.88394"
     cy="40.621643"
     rx="35.094341"
     ry="35.315498" /><g
     aria-label="+1"
     id="text7685"
     style="font-size:85.3333px;line-height:1.25;word-spacing:0px;fill:#1a1a1a"
     transform="matrix(0.54312437,0,0,0.54312437,102.07747,15.614322)"><path
       d="m 155.44625,42.378441 h 14.25067 v -15.78666 h 11.60532 v 15.78666 h 14.25066 v 10.666662 h -14.25066 v 15.78666 h -11.60532 v -15.78666 h -14.25067 z"
       style="font-weight:bold;font-family:Ubuntu;-inkscape-font-specification:'Ubuntu Bold';fill:#1a1a1a"
       id="path7737" /><path
       d="m 205.70747,26.335781 q 2.47467,-1.023999 5.12,-2.303999 2.73067,-1.365333 5.29067,-2.901332 2.55999,-1.621333 4.86399,-3.327999 2.38934,-1.791999 4.26667,-3.754665 h 8.87466 V 73.183762 H 221.4088 V 30.602446 q -2.56,1.706666 -5.71733,3.157332 -3.15733,1.365333 -6.144,2.389332 z"
       style="font-weight:bold;font-family:Ubuntu;-inkscape-font-specification:'Ubuntu Bold';fill:#1a1a1a"
       id="path7739" /></g><g
     id="g1663"
     style="fill:#1dc0aa;fill-opacity:1"><path
       style="fill:#1dc0aa;stroke-width:2.5;stroke:#355fea;stroke-opacity:1;stroke-dasharray:none;fill-opacity:1"
       d="m 240.07432,212.83307 c 0,-15.80818 -17.67972,-28.61977 -39.48386,-28.61977 -7.57582,0 -14.63426,1.57456 -20.64361,4.26047 -0.13075,-0.56377 -0.32687,-1.11415 -0.68922,-1.56086 h -11.95084 c -1.10045,1.36754 -1.10045,3.57684 0,4.93879 l 2.48978,3.08903 c -3.9255,3.54946 -6.71227,7.77475 -7.95436,12.41655 l -3.31256,0.89095 c -4.04815,1.08706 -6.45077,5.26846 -5.36651,9.32751 l 1.964,7.35511 c 1.08426,4.05905 5.24946,6.47537 9.29762,5.39111 l 3.87632,-1.04348 c 2.81136,2.89292 6.32532,5.3992 10.38998,7.3688 l -1.09516,4.9472 c -0.7356,3.31535 1.04878,6.76145 3.97438,7.70936 2.92561,0.94792 5.88951,-0.9725 6.62511,-4.28786 l 1.05687,-4.77255 c 3.59303,0.77638 7.3962,1.20131 11.33509,1.20131 4.9363,0 9.62978,-0.68113 13.98582,-1.87434 l 1.25049,5.36371 c 0.77359,3.30446 3.74028,5.26317 6.62511,4.37783 2.88763,-0.88814 4.59823,-4.28226 3.81935,-7.58672 l -1.4737,-6.31443 c 9.28144,-5.23857 15.2799,-13.39465 15.2799,-22.57772 z"
       id="path9896" /><path
       style="fill:#1dc0aa;stroke-width:2.5;stroke:#355fea;stroke-opacity:1;stroke-dasharray:none;fill-opacity:1"
       d="m 201.9689,192.37997 c -6.82403,0 -13.64525,2.32916 -13.64525,2.32916 v 3.10273 c 0,0 6.81593,-2.32635 13.63155,-2.32635 6.81563,0 13.64526,2.223 13.64526,2.223 v -3.09464 c 3.1e-4,0 -6.81562,-2.2339 -13.63156,-2.2339 z m -27.25222,13.58269 c -1.51448,0 -2.74318,1.215 -2.74318,2.71859 0,1.50109 1.2287,2.71859 2.74318,2.71859 1.51448,0 2.74319,-1.21781 2.74319,-2.71859 0,-1.50359 -1.23151,-2.71859 -2.74319,-2.71859 z"
       id="path9898" /></g></svg>
