<svg width="182" height="180" viewBox="0 0 182 180" fill="none" xmlns="http://www.w3.org/2000/svg">
<g clip-path="url(#clip0_1694_14654)">
<path d="M181.55 90C181.55 40.3749 141.18 0 91.55 0C63.1325 0 37.756 13.2425 21.247 33.8763C16.1413 31.5123 8.54398 28.7608 6.60175 32.2185L0.372865 43.0676C0.372865 43.0676 0.36796 43.0774 0.363056 43.0823C-1.51542 46.4322 4.29167 51.2534 8.90202 54.3973C4.17886 65.3248 1.54998 77.3608 1.54998 90.0049C1.54998 111.502 9.12763 131.258 21.7522 146.751V156.786H31.2819C47.2464 171.211 68.3903 180.005 91.55 180.005C111.899 180.005 130.684 173.212 145.776 161.784V162.397C145.776 164.595 147.561 166.38 149.758 166.38H150.955C153.152 166.38 154.937 164.595 154.937 162.397V158.125C160.45 155.016 163.707 150.258 163.707 145.231C163.707 144.765 163.673 144.309 163.619 143.853C174.88 128.825 181.555 110.178 181.555 90H181.55ZM91.55 3.43324C111.448 3.43324 129.801 10.1869 144.437 21.5166H131.253C131.018 16.0038 126.471 11.5896 120.899 11.5896H98.5342C92.9625 11.5896 88.4159 16.0038 88.1805 21.5166H38.6633C53.2988 10.1869 71.6519 3.43324 91.55 3.43324ZM127.844 21.9629V36.5444C127.844 40.3749 124.73 43.4894 120.899 43.4894H98.5342C94.7036 43.4894 91.5941 40.3749 91.5941 36.5444V21.9629C91.5941 18.1324 94.7086 15.018 98.5342 15.018H120.899C124.73 15.018 127.844 18.1324 127.844 21.9629ZM9.50039 34.0725C10.6922 33.6458 16.1462 34.7052 24.2143 39.2322C26.0192 40.2474 27.5985 41.2332 28.9767 42.1798C27.8437 43.3422 27.1423 44.9264 27.1423 46.6725V51.9842C24.9941 50.3264 22.4339 48.6441 19.6579 47.0845C18.4661 46.4174 10.6579 42.1308 5.21864 41.5177L9.49548 34.0725H9.50039ZM39.5609 65.0501H40.1592C41.9641 65.0501 43.5925 64.3046 44.7598 63.1079C45.7947 63.049 46.9914 62.8381 48.3843 62.4556C48.9729 62.2937 49.5958 62.0975 50.2285 61.8817L53.7058 76.7477L46.29 72.6768L41.4492 79.612L38.8007 68.2872L39.5609 65.0501ZM46.55 59.3853C46.5794 59.1302 46.599 58.8752 46.599 58.6104V56.4278C48.5756 54.6523 51.587 52.4256 55.7609 50.0812C63.3385 45.8289 68.6159 44.6371 70.2099 44.8578C69.5674 46.339 65.8056 50.2185 58.223 54.4708C53.1614 57.3106 49.1396 58.782 46.5451 59.3804L46.55 59.3853ZM54.0835 47.0894C51.3075 48.6441 48.7522 50.3264 46.599 51.9891V46.6774C46.599 44.9313 45.8977 43.3471 44.7647 42.1847C46.1478 41.2431 47.7222 40.2523 49.5271 39.2371C57.5952 34.7101 63.0443 33.6507 64.241 34.0774L68.5178 41.5226C63.0786 42.1406 55.2704 46.4223 54.0786 47.0894H54.0835ZM43.1658 46.6774V58.6153C43.1658 60.273 41.817 61.6218 40.1592 61.6218H33.587C31.9293 61.6218 30.5805 60.273 30.5805 58.6153V46.6774C30.5805 45.0196 31.9293 43.6708 33.587 43.6708H40.1592C41.817 43.6708 43.1658 45.0196 43.1658 46.6774ZM36.0344 65.055L32.6257 79.6169L27.7849 72.6817L20.369 76.7526L23.8219 61.9896C24.3467 62.1613 24.8617 62.3232 25.3571 62.4556C26.75 62.8381 27.9516 63.049 28.9816 63.1079C30.1538 64.3046 31.7821 65.0501 33.5821 65.0501H36.0295L36.0344 65.055ZM3.52654 44.8578C5.12545 44.6322 10.3979 45.824 17.9756 50.0812C22.1494 52.4256 25.1609 54.6523 27.1374 56.4278V58.6104C27.1374 58.8752 27.1571 59.1302 27.1865 59.3853C24.587 58.7869 20.5652 57.3155 15.5086 54.4758C7.9309 50.2234 4.16415 46.3439 3.52164 44.8627L3.52654 44.8578ZM25.1805 153.348V115.053H76.2966C77.3363 117.211 79.3325 118.829 81.726 119.364V119.467H82.3047C82.6775 119.521 83.0552 119.55 83.4426 119.55C83.8301 119.55 84.2077 119.521 84.5805 119.467H85.1592V119.364C87.5576 118.834 89.5489 117.216 90.5887 115.053H102.061V153.348H90.5887C89.5489 151.19 87.5527 149.572 85.1592 149.037V148.934H84.5805C84.2077 148.88 83.8301 148.851 83.4426 148.851C83.0552 148.851 82.6775 148.88 82.3047 148.934H81.726V149.037C79.3276 149.567 77.3363 151.185 76.2966 153.348H25.1854H25.1805ZM87.9402 111.62C87.9402 114.101 85.9293 116.117 83.4426 116.117C80.956 116.117 78.9451 114.106 78.9451 111.62H74.2661V57.0899C74.2661 55.8834 75.247 54.8975 76.4584 54.8975H116.186V119.271H105.494V111.62H87.9402ZM152.441 155.565L151.499 156.041V162.392C151.499 162.696 151.254 162.942 150.95 162.942H149.753C149.449 162.942 149.204 162.696 149.204 162.392V156.992L147.085 157.502C142.848 158.528 138.134 158.572 133.848 157.635L131.763 157.179V162.392C131.763 162.696 131.518 162.942 131.214 162.942H130.017C129.713 162.942 129.468 162.696 129.468 162.392V156.301L128.482 155.835C126.451 154.878 124.725 153.701 123.357 152.333L122.385 151.367L121.228 152.102C121.091 152.191 120.973 152.245 120.86 152.269L118.28 152.882C117.618 153.039 116.956 152.627 116.799 151.97L115.548 146.698C115.475 146.379 115.524 146.05 115.7 145.771C115.872 145.491 116.142 145.295 116.461 145.221L120.07 144.368L120.311 143.328C120.806 141.16 122.174 139.081 124.259 137.305L125.318 136.408L123.798 133.583L129.929 134.004L130.277 133.872C133.288 132.749 136.712 132.15 140.179 132.15C151.254 132.15 160.264 138.016 160.264 145.231C160.264 149.277 157.409 153.044 152.436 155.565H152.441ZM140.184 128.717C136.447 128.717 132.739 129.34 129.433 130.527L122.43 130.046C121.507 129.983 120.62 130.424 120.115 131.204C119.614 131.984 119.575 132.974 120.012 133.789L121.007 135.633C119.222 137.393 117.947 139.395 117.255 141.508L115.671 141.886C114.46 142.175 113.43 142.916 112.777 143.975C112.125 145.035 111.924 146.286 112.208 147.497L113.459 152.765C114.052 155.266 116.569 156.821 119.07 156.227L121.65 155.614C121.699 155.604 121.748 155.59 121.797 155.575C123.028 156.654 124.45 157.62 126.034 158.454V162.397C126.034 164.595 127.82 166.38 130.017 166.38H131.214C133.411 166.38 135.196 164.595 135.196 162.397V161.377C136.751 161.613 138.345 161.725 139.944 161.74C126.118 171.098 109.457 176.567 91.5451 176.567C70.666 176.567 51.4889 169.136 36.52 156.781H78.9451C78.9451 154.3 80.956 152.284 83.4426 152.284C85.9293 152.284 87.9402 154.295 87.9402 156.781H105.494V122.704H159.347C162.451 122.704 164.972 120.188 164.972 117.078V57.0899C164.972 53.9853 162.456 51.4643 159.347 51.4643H76.4633C73.3587 51.4643 70.8377 53.9804 70.8377 57.0899V111.62H21.7522V141.141C11.217 126.804 4.98322 109.118 4.98322 90C4.98322 78.0474 7.42082 66.649 11.8203 56.2807C12.7963 56.879 13.5271 57.2959 13.8312 57.4676C16.1265 58.7575 18.417 59.8708 20.575 60.7684L15.2682 83.4572L26.7304 77.1695L34.2099 87.891L37.035 75.8256L39.8601 87.891L47.3396 77.1695L58.8017 83.4572L53.4655 60.6409C55.5353 59.7629 57.7178 58.6937 59.9053 57.4676C61.5827 56.5259 76.2083 48.1292 73.3783 43.0823C73.3783 43.0774 73.3734 43.0725 73.3685 43.0676L67.1445 32.2332C66.1244 30.4136 63.5789 30.0948 59.3658 31.2523C56.0306 32.1695 51.9402 33.9401 47.8448 36.2354C47.1631 36.618 44.3429 38.2316 41.4246 40.3553C41.0126 40.2719 40.5908 40.2278 40.1592 40.2278H33.587C33.1603 40.2278 32.7434 40.2719 32.3413 40.3504C30.4235 38.9477 28.241 37.545 25.9015 36.2354C25.6562 36.0981 25.1314 35.8087 24.4105 35.4311C27.4808 31.6594 30.8601 28.1575 34.5091 24.9499H88.1707V36.5493C88.1707 42.273 92.8252 46.9275 98.544 46.9275H120.909C126.633 46.9275 131.287 42.273 131.287 36.5493V24.9499H148.61C166.694 40.8262 178.127 64.1035 178.127 90C178.127 108.495 172.29 125.657 162.368 139.738C159.136 133.328 150.42 128.717 140.194 128.717H140.184ZM119.619 119.271V54.9025H159.347C160.553 54.9025 161.539 55.8834 161.539 57.0948V117.083C161.539 118.29 160.558 119.276 159.347 119.276H119.619V119.271Z" fill="url(#paint0_linear_1694_14654)"/>
<path d="M156.291 66.3599H125.882V69.7931H156.291V66.3599Z" fill="url(#paint1_linear_1694_14654)"/>
<path d="M156.291 78.3662H125.882V81.7995H156.291V78.3662Z" fill="url(#paint2_linear_1694_14654)"/>
<path d="M141.087 90.3726H125.882V93.8058H141.087V90.3726Z" fill="url(#paint3_linear_1694_14654)"/>
<path d="M85.1642 137.148H81.731V143.044H85.1642V137.148Z" fill="url(#paint4_linear_1694_14654)"/>
<path d="M85.1642 125.362H81.731V131.258H85.1642V125.362Z" fill="url(#paint5_linear_1694_14654)"/>
<path d="M42.5821 130.547C45.0786 130.547 47.1042 128.521 47.1042 126.025C47.1042 123.528 45.0786 121.502 42.5821 121.502C40.0857 121.502 38.0601 123.528 38.0601 126.025C38.0601 128.521 40.0857 130.547 42.5821 130.547ZM42.5821 124.931C43.1854 124.931 43.671 125.421 43.671 126.02C43.671 126.618 43.1805 127.108 42.5821 127.108C41.9838 127.108 41.4933 126.618 41.4933 126.02C41.4933 125.421 41.9838 124.931 42.5821 124.931Z" fill="url(#paint6_linear_1694_14654)"/>
<path d="M57.3155 136.658C54.8191 136.658 52.7935 138.683 52.7935 141.18C52.7935 143.676 54.8191 145.702 57.3155 145.702C59.812 145.702 61.8376 143.676 61.8376 141.18C61.8376 138.683 59.812 136.658 57.3155 136.658ZM57.3155 142.274C56.7123 142.274 56.2267 141.783 56.2267 141.185C56.2267 140.586 56.7172 140.096 57.3155 140.096C57.9139 140.096 58.4044 140.586 58.4044 141.185C58.4044 141.783 57.9139 142.274 57.3155 142.274Z" fill="url(#paint7_linear_1694_14654)"/>
<path d="M59.1048 121.766L37.9009 142.97L40.3285 145.397L61.5325 124.193L59.1048 121.766Z" fill="url(#paint8_linear_1694_14654)"/>
<path d="M126 144.898C126.975 144.898 127.766 144.107 127.766 143.132C127.766 142.157 126.975 141.366 126 141.366C125.025 141.366 124.234 142.157 124.234 143.132C124.234 144.107 125.025 144.898 126 144.898Z" fill="url(#paint9_linear_1694_14654)"/>
<path d="M135.206 135.172C134.966 135.245 134.73 135.324 134.495 135.412L134.402 135.446L135.55 138.683L135.648 138.649C135.824 138.585 136.006 138.522 136.187 138.468C138.899 137.663 141.896 137.717 144.638 138.688L145.781 135.451C142.362 134.24 138.61 134.166 135.206 135.177V135.172Z" fill="url(#paint10_linear_1694_14654)"/>
<path d="M104.861 23.2334H100.913V27.2797H96.8667V31.2329H100.913V35.2792H104.861V31.2329H108.908V27.2797H104.861V23.2334Z" fill="url(#paint11_linear_1694_14654)"/>
<path d="M119.59 23.3313C119.59 22.6888 119.232 22.1003 118.663 21.806C118.094 21.5117 117.407 21.5608 116.883 21.9335L112.562 24.9989L114.548 27.7994L116.157 26.6567V33.4692H113.856V36.9024H121.895V33.4692H119.595V23.3313H119.59Z" fill="url(#paint12_linear_1694_14654)"/>
<path d="M110.904 81.5247C113.577 79.7933 114.661 76.7623 113.533 74.1579C113.086 73.123 112.11 72.3138 110.786 71.8773C108.505 71.122 105.641 71.5339 103.1 72.9759L99.9566 74.3149L87.1555 70.71L78.7637 76.1933L88.2493 81.2206L86.513 82.1279L83.3741 81.9072C82.3245 81.8337 81.2896 82.074 80.3822 82.5988L75.4629 85.4484L89.0929 93.6636L110.801 81.5933L110.899 81.5345L110.904 81.5247ZM109.084 78.6113L89.1664 89.686L82.2215 85.5023C82.5059 85.365 82.8198 85.3012 83.1386 85.3258L87.2487 85.6151L95.6405 81.2402L85.5223 75.8794L87.7343 74.4326L100.192 77.9443L104.538 76.0952L104.724 76.0021C106.666 74.874 108.505 74.8004 109.58 75.0996C110.139 75.2566 110.354 75.4773 110.379 75.5263C110.752 76.3895 110.497 77.6794 109.079 78.6162L109.084 78.6113Z" fill="url(#paint13_linear_1694_14654)"/>
</g>
<defs>
<linearGradient id="paint0_linear_1694_14654" x1="11.6633" y1="156.997" x2="164.197" y2="27.0245" gradientUnits="userSpaceOnUse">
<stop stop-color="#8DFF97"/>
<stop offset="0.19" stop-color="#19CFA3"/>
<stop offset="0.66" stop-color="#378EFF"/>
<stop offset="1" stop-color="#2663FF"/>
</linearGradient>
<linearGradient id="paint1_linear_1694_14654" x1="22.2082" y1="169.372" x2="174.742" y2="39.3991" gradientUnits="userSpaceOnUse">
<stop stop-color="#8DFF97"/>
<stop offset="0.19" stop-color="#19CFA3"/>
<stop offset="0.66" stop-color="#378EFF"/>
<stop offset="1" stop-color="#2663FF"/>
</linearGradient>
<linearGradient id="paint2_linear_1694_14654" x1="28.1379" y1="176.326" x2="180.672" y2="46.3537" gradientUnits="userSpaceOnUse">
<stop stop-color="#8DFF97"/>
<stop offset="0.19" stop-color="#19CFA3"/>
<stop offset="0.66" stop-color="#378EFF"/>
<stop offset="1" stop-color="#2663FF"/>
</linearGradient>
<linearGradient id="paint3_linear_1694_14654" x1="30.8649" y1="179.529" x2="183.399" y2="49.5562" gradientUnits="userSpaceOnUse">
<stop stop-color="#8DFF97"/>
<stop offset="0.19" stop-color="#19CFA3"/>
<stop offset="0.66" stop-color="#378EFF"/>
<stop offset="1" stop-color="#2663FF"/>
</linearGradient>
<linearGradient id="paint4_linear_1694_14654" x1="33.5135" y1="182.639" x2="186.047" y2="52.6661" gradientUnits="userSpaceOnUse">
<stop stop-color="#8DFF97"/>
<stop offset="0.19" stop-color="#19CFA3"/>
<stop offset="0.66" stop-color="#378EFF"/>
<stop offset="1" stop-color="#2663FF"/>
</linearGradient>
<linearGradient id="paint5_linear_1694_14654" x1="27.6966" y1="175.811" x2="180.231" y2="45.8385" gradientUnits="userSpaceOnUse">
<stop stop-color="#8DFF97"/>
<stop offset="0.19" stop-color="#19CFA3"/>
<stop offset="0.66" stop-color="#378EFF"/>
<stop offset="1" stop-color="#2663FF"/>
</linearGradient>
<linearGradient id="paint6_linear_1694_14654" x1="9.37777" y1="154.314" x2="161.912" y2="24.3417" gradientUnits="userSpaceOnUse">
<stop stop-color="#8DFF97"/>
<stop offset="0.19" stop-color="#19CFA3"/>
<stop offset="0.66" stop-color="#378EFF"/>
<stop offset="1" stop-color="#2663FF"/>
</linearGradient>
<linearGradient id="paint7_linear_1694_14654" x1="23.0616" y1="170.372" x2="175.596" y2="40.3994" gradientUnits="userSpaceOnUse">
<stop stop-color="#8DFF97"/>
<stop offset="0.19" stop-color="#19CFA3"/>
<stop offset="0.66" stop-color="#378EFF"/>
<stop offset="1" stop-color="#2663FF"/>
</linearGradient>
<linearGradient id="paint8_linear_1694_14654" x1="16.1097" y1="162.213" x2="168.644" y2="32.2404" gradientUnits="userSpaceOnUse">
<stop stop-color="#8DFF97"/>
<stop offset="0.19" stop-color="#19CFA3"/>
<stop offset="0.66" stop-color="#378EFF"/>
<stop offset="1" stop-color="#2663FF"/>
</linearGradient>
<linearGradient id="paint9_linear_1694_14654" x1="52.9162" y1="205.406" x2="205.45" y2="75.438" gradientUnits="userSpaceOnUse">
<stop stop-color="#8DFF97"/>
<stop offset="0.19" stop-color="#19CFA3"/>
<stop offset="0.66" stop-color="#378EFF"/>
<stop offset="1" stop-color="#2663FF"/>
</linearGradient>
<linearGradient id="paint10_linear_1694_14654" x1="55.604" y1="208.564" x2="208.138" y2="78.5916" gradientUnits="userSpaceOnUse">
<stop stop-color="#8DFF97"/>
<stop offset="0.19" stop-color="#19CFA3"/>
<stop offset="0.66" stop-color="#378EFF"/>
<stop offset="1" stop-color="#2663FF"/>
</linearGradient>
<linearGradient id="paint11_linear_1694_14654" x1="-13.0216" y1="128.026" x2="139.512" y2="-1.947" gradientUnits="userSpaceOnUse">
<stop stop-color="#8DFF97"/>
<stop offset="0.19" stop-color="#19CFA3"/>
<stop offset="0.66" stop-color="#378EFF"/>
<stop offset="1" stop-color="#2663FF"/>
</linearGradient>
<linearGradient id="paint12_linear_1694_14654" x1="-6.15509" y1="136.079" x2="146.379" y2="6.11117" gradientUnits="userSpaceOnUse">
<stop stop-color="#8DFF97"/>
<stop offset="0.19" stop-color="#19CFA3"/>
<stop offset="0.66" stop-color="#378EFF"/>
<stop offset="1" stop-color="#2663FF"/>
</linearGradient>
<linearGradient id="paint13_linear_1694_14654" x1="8.09778" y1="152.809" x2="160.632" y2="22.8359" gradientUnits="userSpaceOnUse">
<stop stop-color="#8DFF97"/>
<stop offset="0.19" stop-color="#19CFA3"/>
<stop offset="0.66" stop-color="#378EFF"/>
<stop offset="1" stop-color="#2663FF"/>
</linearGradient>
<clipPath id="clip0_1694_14654">
<rect width="181.55" height="180" fill="white"/>
</clipPath>
</defs>
</svg>
