<?xml version="1.0" encoding="UTF-8" standalone="no"?>
<!-- Created with Inkscape (http://www.inkscape.org/) -->

<svg
   version="1.1"
   id="svg15904"
   width="250"
   height="250"
   viewBox="0 0 250 250"
   xmlns:xlink="http://www.w3.org/1999/xlink"
   xmlns="http://www.w3.org/2000/svg"
   xmlns:svg="http://www.w3.org/2000/svg">
  <defs
     id="defs15908">
    <linearGradient id="linear-gradient" x1="35.41" y1="238.2" x2="196.74" y2="24.2" gradientUnits="userSpaceOnUse">
      <stop offset="0" stop-color="#8dff97"/>
      <stop offset=".19" stop-color="#19cfa3"/>
      <stop offset=".66" stop-color="#378eff"/>
      <stop offset="1" stop-color="#2663ff"/>
    </linearGradient>
    <linearGradient
       xlink:href="#linear-gradient"
       id="linearGradient17094"
       x1="153.58008"
       y1="841.05566"
       x2="382.91422"
       y2="841.05566"
       gradientUnits="userSpaceOnUse"
       gradientTransform="matrix(1.2716976,0,0,1.2831124,-113.83878,-622.21673)" />
  </defs>
  <g
     id="g15910">
    <g
       id="g3774"
       transform="matrix(0.69598048,0,0,0.69598048,37.949443,37.687997)">
      <path
         style="fill:#e6e6e6;fill-opacity:1;stroke:none;stroke-width:0.982648px;stroke-linecap:butt;stroke-linejoin:miter;stroke-opacity:1"
         d="m 28.041023,21.244032 c 48.806763,5.531502 90.230737,-26.9641225 135.167097,-40.334392 28.21917,-9.520965 60.46096,-6.961055 85.22601,10.7539086 51.90852,34.6772184 73.72956,113.8619014 40.08403,169.2403714 -11.37263,19.89472 -31.32065,32.35073 -52.46417,38.23802 -59.57111,23.57121 -113.29888,67.1821 -178.946492,71.08965 -25.74219,3.82756 -52.1384995,-6.19101 -70.226779,-25.33536 C -50.145821,207.09515 -60.031816,147.72672 -48.935548,96.572151 -43.242958,73.474226 -33.817514,49.895705 -16.654669,33.4714 -4.2364561,23.306815 12.337711,18.201171 28.041023,21.244032 Z"
         id="path3031" />
      <g
         id="g1604"
         transform="matrix(0.34596652,0,0,0.34596652,7.8264679,6.180123)">
        <g
           id="g1519">
          <path
             id="path15971-0"
             style="fill:url(#linearGradient17094);fill-opacity:1;stroke-width:1.70319"
             d="m 206.94263,305.8087 v 13.51528 13.51528 l -8.90188,2.03243 c -4.89604,1.11775 -16.02096,5.53289 -24.7236,9.8113 l -15.82419,7.77887 -9.19745,-9.16474 -9.19745,-9.16473 -14.39601,14.45005 -14.39602,14.45006 9.45329,9.63838 9.4508,9.63838 -4.98248,8.36779 c -5.53173,9.28979 -11.24285,23.37525 -13.97129,34.4611 l -1.78832,7.27013 H 94.968666 81.469291 v 19.60506 19.60506 l 13.799915,0.49619 13.799904,0.49872 2.30743,9.40782 c 1.26932,5.17521 5.69924,16.33913 9.84323,24.80767 l 7.53332,15.39735 -9.22228,9.45293 -9.22478,9.45293 14.41588,14.4701 14.41589,14.47009 9.49302,-9.57572 9.49054,-9.57823 9.57499,5.84418 c 5.26559,3.21463 16.25057,7.90655 24.41063,10.42528 l 14.83565,4.57861 v 13.29474 13.29726 h 20.34716 20.34716 l 0.005,-13.25967 0.003,-13.25965 14.86047,-4.7365 c 8.17324,-2.606 19.04582,-7.3236 24.15977,-10.48292 l 9.29681,-5.74393 9.75879,9.58073 9.7563,9.58074 14.39851,-14.45255 14.40098,-14.45256 -9.43342,-9.61582 -9.43093,-9.61834 6.42058,-11.78358 c 3.53134,-6.48214 8.0727,-17.57315 10.09162,-24.64478 l 3.67103,-12.85618 13.75768,-0.49872 13.76017,-0.49619 v -19.53489 -19.5374 l -13.76017,-0.4962 -13.75768,-0.4962 -3.67103,-12.85869 c -2.01892,-7.07163 -6.56026,-18.16013 -10.09162,-24.64228 l -6.42058,-11.78608 9.43093,-9.61582 9.43342,-9.61834 -14.41838,-14.4701 -14.41588,-14.47009 -9.49054,9.57823 -9.49303,9.57572 -9.57498,-5.84418 c -5.26559,-3.21462 -16.2481,-7.90403 -24.40815,-10.42277 l -14.83813,-4.58112 V 319.10344 305.8087 h -20.34716 z m 140.25931,9.1572 c -0.0706,7.6e-4 -0.0849,0.0189 0,0.0602 0.3454,0.16772 0.73861,0.31278 1.12764,0.45861 -0.0187,-0.0349 -0.0303,-0.0731 -0.0497,-0.10779 -0.13911,-0.24873 -0.86619,-0.41326 -1.07795,-0.411 z m 2.49123,0.83704 c 0.009,0.05 0.0181,0.10034 0.0273,0.15036 0.18667,0.0563 0.36877,0.11972 0.55637,0.17292 -0.19487,-0.10689 -0.39172,-0.21163 -0.5837,-0.32328 z m -122.40338,73.07475 c 14.31897,0 17.23546,0.55301 26.24615,4.96704 12.91938,6.32875 25.27182,18.78237 31.05973,31.31597 6.376,13.80713 7.26139,34.75251 2.06153,48.73823 -7.33796,19.73643 -23.38784,34.47997 -43.20791,39.68877 -18.62531,4.89481 -36.60111,1.7918 -52.14953,-9.00183 -40.59893,-28.18353 -34.94895,-88.80442 10.34745,-111.02934 8.34484,-4.09442 11.54654,-4.67884 25.64258,-4.67884 z M 127.25538,599.36828 c -0.017,0.10175 -0.015,0.18839 0.0696,0.213 0.0866,0.0253 0.18052,0.009 0.26824,0.0276 -0.11331,-0.0796 -0.22475,-0.16084 -0.33779,-0.24058 z" />
        </g>
        <path
           id="path15971"
           style="fill:#000000;stroke-width:1.70319"
           d="m 444.53516,36.976562 c -2.10972,0.01316 -4.16882,0.04879 -6.14844,0.107422 -5.279,0.156309 -9.98868,0.477797 -13.56445,0.980469 -63.34752,8.90516 -119.60178,50.81406 -146.79297,109.359377 -13.84823,29.8166 -20.59198,67.01082 -17.54297,96.74609 0.88774,8.65843 1.21989,15.96143 0.74023,16.23047 -0.47967,0.26905 -6.53844,-0.20944 -13.46679,-1.06641 -14.85314,-1.83718 -17.07618,-1.25627 -17.07618,4.47266 0,4.94862 1.33039,5.39348 20.34571,6.78906 10.92985,0.80217 34.95555,6.41054 44.50976,10.39063 2.48963,1.03714 2.9668,0.28437 2.9668,-4.67188 0,-5.87301 -0.0733,-5.92666 -12.56836,-9.58984 -12.38712,-3.63153 -12.58087,-3.77937 -13.51172,-10.10352 -14.35299,-97.51304 49.82304,-188.463963 145.83399,-206.677731 20.45459,-3.88035 56.89943,-2.737828 76.28125,2.394532 60.28065,15.962508 107.22856,59.921949 127.27343,119.169919 7.99427,23.62915 9.0293,35.80491 9.0293,106.23047 v 65.57813 l -15.02344,0.49218 -15.01953,0.49414 17.83594,37.21875 c 9.80996,20.47154 17.97471,37.02434 18.14453,36.78321 1.05505,-1.49817 34.75586,-73.06804 34.75586,-73.81055 0,-0.50358 -6.67589,-1.13828 -14.83594,-1.41016 l -14.83789,-0.49414 -0.92578,-72.70898 c -0.91634,-71.90907 -0.97707,-72.89248 -5.42578,-89.43555 -5.18475,-19.28014 -16.26851,-43.88912 -26.85156,-59.61328 C 598.36556,105.5365 575.21141,81.812351 560.78711,71.779297 537.49173,55.575782 512.38632,44.808501 486.05469,39.730469 477.9038,38.158592 464.0731,37.19106 450.98633,37.003906 c -2.18113,-0.03118 -4.34146,-0.0405 -6.45117,-0.02734 z m 4.00781,51.076172 c -12.23321,-0.01424 -24.45905,1.22303 -33.88867,3.716797 C 365.04514,104.88924 326.58083,143.70092 313.58398,193.75 c -4.98635,19.20173 -5.00356,49.49783 -0.0371,68.43359 14.72509,56.14219 60.56983,97.2354 117.31835,105.16407 6.00526,0.83904 17.2637,1.14954 25.01758,0.68945 60.91955,-3.61464 112.27314,-46.20357 127.63672,-105.85352 4.92532,-19.1228 4.90557,-49.46763 -0.0469,-68.43359 C 570.22124,143.00185 532.77871,105.22413 482.47852,91.849609 473.0171,89.333862 460.77619,88.066964 448.54297,88.052734 Z m -9.30078,9.035157 h 5.93359 5.9336 v 9.275389 c 0,10.2598 -1.14768,9.397 16.10937,12.07813 3.73032,0.57955 11.59815,2.6354 17.48633,4.56836 5.88819,1.93295 10.9462,3.24211 11.23828,2.91015 0.29208,-0.33197 2.16729,-3.87596 4.16602,-7.875 3.85383,-7.71067 6.07004,-8.69594 11.14843,-4.94922 3.02771,2.23379 2.9724,2.64228 -1.48633,10.69141 l -4.63476,8.36719 3.93164,2.47656 c 2.1622,1.36192 9.7804,8.29238 16.92969,15.40039 l 12.99609,12.92383 8.01172,-4.99414 c 7.69002,-4.79718 8.09857,-4.8701 10.31445,-1.8125 3.70039,5.10602 2.77115,7.24292 -5.1914,11.95117 l -7.49805,4.43359 4.0293,8.89649 c 4.8668,10.75291 9.27148,27.28002 9.27148,34.77929 0,9.74459 1.18854,10.9004 11.20313,10.9004 h 9.14453 v 6.21093 6.20703 l -10.17383,-1.16015 c -9.86336,-1.12591 -10.17383,-1.04065 -10.17383,2.83984 0,6.18854 -4.80687,23.42774 -9.30469,33.36524 l -4.06054,8.9707 7.53125,4.44922 c 8.01813,4.7411 8.8955,6.723 5.22265,11.79101 -2.21588,3.05761 -2.62445,2.98662 -10.31445,-1.81054 l -8.01172,-4.99414 -12.99609,12.92382 c -7.14929,7.108 -14.83393,14.08055 -17.07617,15.4961 l -4.07618,2.57422 4.5,7.74804 c 2.47543,4.26189 4.5,8.239 4.5,8.83789 0,0.59887 -2.1872,2.22974 -4.86132,3.625 -4.83248,2.52139 -4.88096,2.49635 -7.89258,-4.24218 -4.59603,-10.28367 -5.40392,-10.52005 -20.03516,-5.83203 -7.21569,2.31198 -15.18773,4.21479 -17.7168,4.22851 -10.8376,0.0551 -12.23051,1.33837 -12.23046,11.29492 v 9.20899 h -5.9336 -5.93359 V 348.57812 338.3125 l -5.51172,-0.0352 c -4.59503,-0.0304 -25.85761,-6.56293 -35.18359,-10.80859 -1.83538,-0.83554 -3.87524,1.23452 -7.32227,7.4375 l -4.77539,8.5957 -4.88086,-2.90625 c -2.68439,-1.59994 -4.40338,-3.73083 -3.82031,-4.73437 0.58308,-1.00354 2.88285,-4.78427 5.11328,-8.40039 l 4.05664,-6.57227 -7.32031,-6.25781 c -9.41512,-8.04761 -17.78569,-17.02276 -21.25782,-22.79102 l -2.74414,-4.56054 -8.94726,5.09375 -8.94727,5.0957 -2.56836,-5.00977 -2.56445,-5.00781 8.51953,-4.67773 c 6.45906,-3.54702 8.24392,-5.36355 7.38086,-7.50391 -4.51561,-11.19857 -7.92047,-23.03246 -8.93164,-31.05078 l -1.1875,-9.41016 -9.74805,-0.51367 -9.75,-0.51172 v -5.81836 -5.8164 l 9.75,-0.51367 9.74805,-0.51172 1.1875,-9.63282 c 1.01213,-8.22078 4.29817,-19.58651 8.91211,-30.83007 0.88136,-2.14773 -0.87997,-3.94073 -7.36133,-7.5 l -8.51953,-4.67969 2.56445,-5.00977 2.56836,-5.00781 8.94727,5.0957 8.94726,5.0918 2.67578,-4.55859 c 2.69272,-4.5851 19.74044,-22.18029 25.63086,-26.45508 3.0304,-2.19924 2.94769,-2.64046 -2.01757,-10.68945 -2.84809,-4.61696 -5.03469,-8.45197 -4.85743,-8.52344 0.17725,-0.0716 2.38201,-1.43061 4.89844,-3.01758 l 4.57422,-2.88477 4.75195,8.54883 c 3.42651,6.1661 5.46031,8.22582 7.29493,7.39063 9.32598,-4.24567 30.58856,-10.77623 35.18359,-10.80664 l 5.51172,-0.0371 v -10.26563 z m 9.54101,31.021489 c -25.06759,-0.0103 -50.18205,9.87715 -69.78906,29.66015 -13.79649,13.92033 -21.47446,27.48572 -26.27148,46.41016 -4.24453,16.74496 -4.24453,30.82731 0,47.57226 4.79702,18.92445 12.47499,32.48788 26.27148,46.40821 13.59134,13.7133 27.16269,21.62844 45.32617,26.42968 33.75443,8.9225 68.62107,-0.93931 93.97071,-26.58007 38.94763,-39.39491 38.94763,-100.4741 0,-140.18555 -19.41733,-19.79808 -44.44024,-29.70515 -69.50782,-29.71484 z m -1.41406,26.79492 c 3.62591,0 7.25417,1.53963 10.01953,4.61523 l 22.16992,24.68164 28.55079,10.62891 c 5.00346,1.85874 8.70765,6.72629 9.90429,13.00586 1.05454,5.526 0.005,11.4065 -2.81055,15.73242 l -18.65429,28.63867 -0.16406,22.18555 c -0.0412,4.95108 -1.58679,9.51111 -4.36524,12.83789 -2.75227,3.29886 -6.5266,5.0957 -10.4082,5.0957 -1.26769,0 -2.54627,-0.19324 -3.80274,-0.58398 l -29.69531,-9.28321 c -0.47491,-0.1507 -1.02799,-0.1507 -1.48047,0 l -29.69531,9.28321 c -5.11565,1.59641 -10.56134,-0.13556 -14.21484,-4.51172 -2.77844,-3.32678 -4.32611,-7.88095 -4.36719,-12.83203 l -0.16406,-22.19141 -18.65235,-28.63867 c -2.81592,-4.32592 -3.86703,-10.20084 -2.8125,-15.73242 1.19665,-6.27957 4.89695,-11.14712 9.90039,-13.00586 l 28.55664,-10.62891 22.16993,-24.68164 c 2.76349,-3.0756 6.3897,-4.61523 10.01562,-4.61523 z m -0.01,22.26953 c -0.44081,0.0103 -0.894,0.11347 -1.14454,0.31445 l -22.40625,24.95899 c -1.39485,1.54616 -3.01396,2.66834 -4.8164,3.34375 l -24.28321,9.0371 15.48047,23.76172 c 1.86227,2.8579 2.90761,6.53749 2.9375,10.35547 l 0.15039,21.04883 c 0.19071,-0.0115 0.38612,-0.0518 0.5918,-0.11328 l 29.6875,-9.28125 c 1.24524,-0.39072 2.5279,-0.58398 3.81055,-0.58399 1.28265,0 2.5674,0.19327 3.8164,0.58399 l 29.6875,9.28125 c 0.1982,0.067 0.39522,0.10173 0.58594,0.11328 l 0.1543,-21.04297 c 0.0299,-3.82356 1.07327,-7.49785 2.93555,-10.36133 l 15.46289,-23.73242 -24.25977,-9.0664 c -1.8099,-0.66983 -3.42693,-1.79508 -4.81055,-3.33008 l -22.5,-25.05274 c -0.20754,-0.16188 -0.63733,-0.24413 -1.07812,-0.23437 z M 45.375,222.83203 27.921875,258.75977 c -9.599409,19.75993 -17.50154,36.89021 -17.560547,38.0664 -0.07825,1.55961 4.002716,2.13867 15.072266,2.13867 h 15.177734 l 0.556641,91.95508 0.552734,91.95899 4.529297,16.72461 c 5.213642,19.26307 16.321869,43.92172 26.794922,59.48242 9.433732,14.01648 29.924428,35.58366 43.945308,46.25 28.34231,21.56131 67.77867,36.04119 103.51954,38.01172 9.43724,0.52029 11.7552,0.42217 33.06445,-1.38086 38.82968,-3.28544 81.81506,-24.26194 112.00781,-54.65821 35.75906,-36.00008 56.71561,-86.93801 56.6875,-137.79101 -0.006,-11.70262 -4.06977,-39.03599 -7.52344,-50.60547 -2.27786,-7.6306 -3.33532,-8.91549 -8.68554,-10.57227 -5.43931,-1.68434 -5.9712,-1.57973 -4.96289,0.98828 0.6211,1.58184 2.61089,8.64992 4.42187,15.70704 26.24878,102.28738 -38.83345,205.45451 -141.99023,225.08007 -19.83494,3.7736 -58.60736,2.56123 -76.08399,-2.3789 C 125.33398,610.17929 80.048455,567.83246 59.980469,508.54102 51.656076,483.9464 50.949219,474.15947 50.949219,383.42773 v -84.46289 h 15.259765 c 8.393204,0 15.259766,-0.27461 15.259766,-0.61132 0,-0.33673 -8.121149,-17.46897 -18.046875,-38.06836 z" />
      </g>
    </g>
  </g>
</svg>
