<?xml version="1.0" encoding="UTF-8" standalone="no"?>
<!-- Created with Inkscape (http://www.inkscape.org/) -->

<svg
   width="250"
   height="250"
   viewBox="0 0 250 250"
   version="1.1"
   id="svg12629"
   xmlns:xlink="http://www.w3.org/1999/xlink"
   xmlns="http://www.w3.org/2000/svg"
   xmlns:svg="http://www.w3.org/2000/svg">
  <defs
     id="defs12626">
    <linearGradient
       id="SvgjsLinearGradient4208"
       x1="0"
       y1="0"
       x2="1"
       y2="0"
       gradientUnits="objectBoundingBox"
       spreadMethod="pad">
      <stop
         id="SvgjsStop4209"
         stop-color="#00ff8f"
         offset="0" />
      <stop
         id="SvgjsStop4210"
         stop-color="#00a1ff"
         offset="1" />
    </linearGradient>
    <linearGradient
       id="SvgjsLinearGradient4211">
      <stop
         id="SvgjsStop4212"
         stop-color="#00ff8f"
         offset="0" />
      <stop
         id="SvgjsStop4213"
         stop-color="#00a1ff"
         offset="1" />
    </linearGradient>
    <linearGradient
       xlink:href="#SvgjsLinearGradient4208"
       id="linearGradient7989"
       x1="48.473209"
       y1="149.40659"
       x2="103.15172"
       y2="149.40659"
       gradientUnits="userSpaceOnUse"
       gradientTransform="matrix(1.0627293,0,0,1.0627293,36.370285,-29.024603)" />
  </defs>
  <g
     id="g6123"
     transform="matrix(0.82734229,0,0,0.82734229,0,16)">
    <path
       style="fill:#e6e6e6;fill-opacity:1;stroke:none;stroke-width:0.226165px;stroke-linecap:butt;stroke-linejoin:miter;stroke-opacity:1"
       d="M 17.741069,118.77933 C 26.947389,83.472618 34.03666,44.6867 64.71071,17.733925 84.584758,-0.607544 118.84892,-5.690541 144.23362,7.068687 c 30.53984,12.717877 57.04893,36.81737 93.22355,36.152459 31.42842,3.208975 52.10872,29.191802 58.5164,54.090532 6.93878,26.587662 1.41696,56.482772 -17.78326,78.392992 -26.3924,31.25383 -38.87576,51.10656 -99.15623,77.82559 C 129.34657,270.70043 80.415493,266.89253 36.745446,248.73098 4.5767595,233.36526 -4.419599,197.69685 1.8839076,168.54954 4.8477725,151.48118 11.147705,135.02014 17.741069,118.77933 Z"
       id="path6228" />
    <path
       id="path12762-7"
       style="fill:#00acf1;fill-opacity:1;stroke:url(#linearGradient7989);stroke-width:0.365151"
       d="m 107.27392,36.344213 c -8.698935,0.0094 -12.832724,0.115349 -13.649829,0.335374 -2.01441,0.542431 -4.779568,3.274248 -5.33124,5.267053 -0.222397,0.803331 -0.405565,4.223618 -0.406516,7.600773 -0.0024,7.38264 0.291668,8.272058 2.736491,8.272058 2.439359,0 2.738631,-0.89567 2.738631,-8.19717 0,-5.953153 0.01681,-6.082465 0.896476,-6.962122 L 95.15387,41.76424 h 21.67424 c 21.30752,0 21.68772,0.01212 22.47337,0.744033 0.78446,0.730812 0.79965,0.928356 0.79965,10.718101 v 9.963917 c 0.003,0.0011 0.006,0.002 0.008,0.0041 0.006,0.0031 0.007,0.0031 0.0134,0.0062 h 5.86986 c -0.007,-0.02308 -0.0116,-0.04647 -0.0138,-0.06956 l -0.21823,-0.0052 -0.1824,-10.589732 -0.18294,-10.589194 -1.0136,-1.725022 c -0.65753,-1.118345 -1.62027,-2.081067 -2.73871,-2.738524 l -1.72501,-1.013617 -22.37763,-0.10216 c -3.96026,-0.01812 -7.36701,-0.02598 -10.26665,-0.02298 z m -4.0689,7.600772 c -2.74042,0.04471 -5.415128,1.8728 -6.220223,4.862672 -0.717906,2.66611 0.40906,5.404635 2.92103,7.097446 1.460933,0.98452 4.585013,1.136241 6.199903,0.301143 4.25523,-2.200378 4.79838,-7.87195 1.0441,-10.904787 -1.10393,-0.891788 -2.39256,-1.322099 -3.6795,-1.355408 -0.0885,-0.002 -0.17691,-0.002 -0.26531,-0.0011 z m 27.05362,0.0062 c -0.0629,1.65e-4 -0.1258,0.0011 -0.18882,0.0031 -0.91649,0.03074 -1.84197,0.26766 -2.73275,0.722099 -4.52514,2.308555 -4.65494,8.670665 -0.2316,11.367993 1.56022,0.951388 4.63159,0.922789 6.37909,-0.05942 2.16257,-1.215476 3.14729,-2.989457 3.14729,-5.670888 0,-1.991501 -0.13949,-2.450112 -1.12113,-3.678433 -1.40727,-1.760887 -3.30177,-2.689825 -5.25208,-2.684609 z m 0.0257,5.498651 c 0.39205,-0.01118 0.7837,0.173188 0.93178,0.558433 0.12127,0.316846 -0.0147,0.811156 -0.30221,1.098658 -0.70487,0.704865 -1.92471,-0.109946 -1.56562,-1.045703 0.15123,-0.394001 0.54387,-0.600187 0.93605,-0.611388 z m -27.18038,0.0041 c 0.0361,-2.28e-4 0.0722,0.0011 0.10805,0.0041 0.4779,0.04306 0.92161,0.388711 0.92161,0.892202 0,0.474581 -0.28454,0.765416 -0.82319,0.841908 -0.91551,0.130026 -1.5209,-0.840097 -0.90717,-1.453822 0.1953,-0.195308 0.44836,-0.282948 0.7007,-0.284563 z m 13.53484,8.74223 c -10.55124,0 -10.77688,0.01553 -11.96119,0.821589 -0.66395,0.451872 -1.55095,1.285355 -1.97107,1.852316 -0.76304,1.02965 -0.76372,1.078763 -0.85957,41.845979 l -0.0963,40.81471 0.76168,0.96814 c 0.96187,1.22284 2.68108,1.30028 3.87955,0.17439 l 0.84512,-0.79432 V 120.97024 98.060938 l 0.0353,0.0134 V 73.504187 l -0.0556,0.03426 0.10161,-5.024216 0.10163,-5.023676 h 18.62269 v 0.859566 1.444207 c 1.33715,-0.41758 3.28582,-0.978879 5.66128,-1.633015 8.4e-4,-0.0052 10e-4,-0.0094 0.002,-0.0145 0.0148,-0.07235 0.0417,-0.219871 0.0871,-0.369076 -0.057,-0.107017 -0.091,-0.250488 -0.091,-0.483007 0,-1.367011 -1.68751,-3.854717 -3.05529,-4.50377 -1.07125,-0.508316 -2.82397,-0.594797 -12.00823,-0.594797 z m -26.015942,7.267031 c -0.729224,0 -1.458452,0.332818 -1.981766,0.998101 l -0.756868,0.961728 0.0021,74.350644 c 0.0014,52.26248 0.119843,74.77338 0.397957,75.77504 0.50967,1.83565 3.024774,4.48312 4.89477,5.15207 1.217081,0.43549 5.23531,0.50909 24.099949,0.44181 l 22.63918,-0.0808 1.72502,-1.01415 c 1.11846,-0.65737 2.08117,-1.62018 2.73863,-2.73863 l 1.01362,-1.72448 0.18293,-10.58972 0.17812,-10.33192 h -5.65538 l -5.4e-4,-0.33966 v 9.97727 c 0,9.79355 -0.0147,9.99105 -0.79913,10.72187 -0.78563,0.7319 -1.16583,0.74456 -22.47336,0.74456 H 95.15387 l -0.895937,-0.89643 -0.896476,-0.89595 V 141.6988 67.423034 L 92.60459,66.461307 C 92.08128,65.796068 91.352052,65.46325 90.622826,65.46325 Z M 140.10059,196.32307 c 0,0 -0.27744,-0.0274 -0.47979,-0.048 -8.5e-4,0.003 -0.002,0.006 -0.003,0.01 z m -35.66265,-43.35114 c -0.95608,0.0717 -1.89202,0.6076 -2.2904,1.56936 -0.28499,0.68809 -0.37527,7.22607 -0.30488,22.03368 0.0984,20.71287 0.11239,21.07218 0.86384,22.0861 0.42013,0.56687 1.30713,1.40044 1.97107,1.85232 1.18432,0.80616 1.40995,0.82159 11.96119,0.82159 9.18425,0 10.93698,-0.0869 12.00825,-0.59533 1.36778,-0.64905 3.05529,-3.13622 3.05529,-4.50323 0,-0.23789 0.0336,-0.38559 0.0909,-0.49477 -0.0486,-0.11286 -0.0602,-0.2437 -0.0594,-0.37442 -2.06268,-0.2935 -4.11425,-0.62691 -5.69122,-1.0441 v 0.85796 0.85902 l -9.15302,0.0973 c -4.30669,0.0458 -8.00405,0.002 -9.07494,-0.0973 h -0.39474 v -0.322 c -0.10487,-0.68078 -0.1824,-2.6255 -0.1824,-4.84768 v -4.86483 l 0.0316,0.0192 v -24.56693 l -0.0321,0.0123 v -3.27887 c 0,-1.80325 -0.17422,-3.6045 -0.38726,-4.00258 -0.47953,-0.89599 -1.45575,-1.28856 -2.41181,-1.21687 z m 30.15222,42.83766 c 0.033,0.004 0.0637,0.007 0.0952,0.0106 -0.002,-0.003 -0.003,-0.007 -0.005,-0.0106 z m -31.36963,6.98618 c -2.91324,0 -4.855268,1.34284 -6.039434,4.17695 -1.161385,2.77957 0.111161,6.1439 2.946704,7.79119 2.11751,1.23015 5.11624,1.0044 7.0124,-0.5274 4.88036,-3.94258 2.31143,-11.44074 -3.91967,-11.44074 z m 27.06217,0 c -2.20788,0 -3.58975,0.61648 -4.91723,2.19411 -2.62103,3.11491 -1.69113,7.95241 1.89297,9.8457 3.99415,2.1099 9.0397,-0.58796 9.46968,-5.06379 0.37421,-3.89449 -2.473,-6.97602 -6.44542,-6.97602 z m 0.039,5.36226 c 0.2079,0.009 0.4159,0.0892 0.59212,0.26529 0.28766,0.28764 0.42379,0.78237 0.30221,1.09921 -0.2959,0.77112 -1.56537,0.73469 -1.86783,-0.0536 -0.26932,-0.70181 0.34977,-1.33535 0.9735,-1.311 z m -27.21783,0.13638 c 0.0361,-2.2e-4 0.0722,7.1e-4 0.10805,0.004 0.4779,0.043 0.92161,0.3887 0.92161,0.89219 0,0.47458 -0.28454,0.76542 -0.82319,0.84191 -0.91552,0.13002 -1.5209,-0.84009 -0.90717,-1.45383 0.1953,-0.19531 0.44836,-0.28294 0.7007,-0.28456 z" />
    <path
       id="path12762"
       style="fill:#000000;stroke-width:0.365151"
       d="m 145.7582,63.007545 c -0.79453,0.0056 -1.63159,0.02077 -2.51717,0.05116 -1.16066,0.03982 -2.20657,0.08465 -3.14037,0.131257 v 0.01035 l -3.04684,0.234096 c -1.67581,0.128815 -3.56548,0.337817 -4.19923,0.464571 -0.3345,0.0669 -0.54873,0.08788 -0.71882,0.08268 -3.41605,0.49565 -6.8192,1.467321 -9.00979,2.169893 -0.30975,0.104423 -0.52804,0.184388 -0.90898,0.309026 -2.10408,0.688408 -5.54262,2.072185 -7.6414,3.074746 -2.09878,1.002573 -4.6135,2.313528 -5.58777,2.913002 l -1.65726,1.019574 v 8.133871 c 0.10135,-1.601096 0.23867,-1.781108 2.09754,-3.048391 3.01154,-2.05313 10.32752,-5.57898 14.17588,-6.831108 6.29263,-2.047417 9.8697,-2.628537 17.4315,-2.832901 0.97957,-0.02647 1.90246,-0.04225 2.78019,-0.04599 6.14417,-0.02625 10.07679,0.53653 15.76751,2.134754 19.98824,5.613648 36.24733,21.756973 42.01087,41.712185 4.21965,14.60985 2.77403,30.81051 -3.94084,44.1694 -8.58852,17.08638 -24.08011,28.99293 -42.70385,32.82177 -9.81484,2.01783 -21.57612,1.31423 -31.33659,-1.87534 -4.11772,-1.34562 -10.58144,-4.45008 -13.81931,-6.6368 -2.24088,-1.51341 -2.36234,-1.65146 -2.4629,-3.26389 v 8.15765 l 1.6676,1.02577 c 3.05379,1.87902 9.24961,4.68238 13.21883,5.98103 0.65411,0.21402 1.1093,0.37211 1.56114,0.53072 1.93082,0.61614 4.84114,1.47041 7.40834,1.92443 h 0.73948 v 0.0517 c 0.14872,-0.0692 0.38421,-0.0539 0.78807,0.0269 0.26171,0.0524 1.27615,0.13894 1.97455,0.21704 0.44126,-0.0303 0.81498,0.0165 1.13017,0.12402 0.44964,0.0431 0.63792,0.0828 1.09502,0.11989 l 1.48053,0.11989 c 1.00687,0.0382 2.60919,0.09 5.33456,0.16123 0.91423,0.0239 1.6198,0.0405 2.23707,0.0548 l 1.31672,-0.0295 -0.002,-0.015 c 0,0 0.14881,0.007 0.20877,0.0103 l 8.13129,-0.185 c 12.40433,-0.28211 17.11519,-1.11425 25.92503,-4.5806 18.26262,-7.18562 32.75317,-22.78358 38.82864,-41.7959 2.38595,-7.46651 2.77244,-10.21909 2.78639,-19.85667 0.0113,-7.74618 -0.0858,-9.24783 -0.8325,-12.93564 -1.02402,-5.0567 -2.87059,-10.68897 -4.99557,-15.23628 -1.30456,-2.791732 -1.75574,-3.427632 -2.57761,-3.633882 -1.39258,-0.34956 -2.81475,0.24273 -3.37086,1.40301 -0.41871,0.873612 -0.34969,1.269042 0.62167,3.551722 l 1.09296,2.56884 h -4.18269 c -3.10116,0 -4.1842,-0.11791 -4.18631,-0.45631 -0.006,-0.9211 -3.97804,-8.586712 -6.14795,-11.867492 l -2.23397,-3.37757 h 3.42615 3.42563 l 1.27744,1.27744 c 1.53426,1.53428 2.83348,1.65515 4.10673,0.38189 1.75828,-1.75827 1.14941,-2.99312 -4.13205,-8.37933 -8.36005,-8.525869 -17.75645,-14.164939 -29.03285,-17.423235 -6.55041,-1.892726 -9.26958,-2.232228 -19.79828,-2.471682 l -2.08824,-0.04754 -0.002,0.01707 c 0,0 -0.0752,-0.0083 -0.20877,-0.0217 l -7.56027,-0.172082 z m -3.04478,8.791194 c -11.69407,0.0712 -24.44963,4.044656 -33.17834,10.541992 -1.04576,0.778427 -1.9992,1.415417 -2.11873,1.415417 -0.0422,0 -0.0626,-0.21207 -0.0853,-0.39791 v 14.7376 l 0.99374,0.37517 c 1.54817,0.58438 3.06623,-0.55713 3.22513,-2.42569 0.0996,-1.17142 -0.11313,-1.57104 -1.76837,-3.32124 -1.03493,-1.09428 -1.7863,-2.14394 -1.66967,-2.33268 0.44014,-0.71217 5.67809,-4.51155 6.04925,-4.38784 0.21339,0.0711 0.92997,1.03148 1.59215,2.13424 1.52982,2.54765 2.63622,3.23069 4.19044,2.58692 0.68651,-0.28437 1.26513,-0.87646 1.49138,-1.52549 0.31777,-0.91154 0.18333,-1.42325 -0.9586,-3.64319 -1.52034,-2.95551 -1.67095,-2.67038 2.27997,-4.319633 3.84669,-1.605729 3.84342,-1.605753 4.44417,0.511599 0.88383,3.115044 1.24239,3.756544 2.35851,4.218864 1.35857,0.56272 2.69888,0.0326 3.31039,-1.30948 0.33928,-0.74462 0.2998,-1.46442 -0.19533,-3.527435 -0.34212,-1.425504 -0.56349,-2.650789 -0.49144,-2.722832 0.16429,-0.164299 3.46875,-0.728171 6.00066,-1.024226 l 1.9172,-0.224277 v 2.701644 c 0,3.328176 0.77218,4.626076 2.75125,4.626076 2.07396,0 2.72645,-1.06756 2.72645,-4.462777 v -2.864943 l 1.91668,0.224277 c 2.8288,0.330763 5.84413,0.867182 6.05441,1.077454 0.10128,0.101278 -0.11904,1.401001 -0.48938,2.888195 -0.6341,2.546794 -0.63739,2.759014 -0.0563,3.645774 0.78897,1.2041 2.2767,1.59196 3.49074,0.91054 0.92442,-0.51886 1.4927,-1.69298 2.22829,-4.605924 l 0.39015,-1.544092 2.29444,0.864031 c 1.26203,0.475017 2.99099,1.218658 3.84162,1.652611 l 1.54616,0.788584 -0.81494,1.35237 c -0.44823,0.74367 -1.03186,1.67608 -1.29707,2.07223 -0.82041,1.22545 -0.60134,2.9672 0.48007,3.81785 1.92169,1.5116 3.21661,0.88231 5.10563,-2.48099 0.57876,-1.0304 1.19679,-1.87358 1.37305,-1.87378 0.40637,-5.3e-4 4.9805,3.37959 5.80223,4.28759 0.5875,0.64918 0.52193,0.77554 -1.38338,2.6572 -1.38915,1.37189 -2.00091,2.26141 -2.00091,2.91094 0,2.00387 2.05849,3.39027 3.75015,2.52542 0.44775,-0.2289 1.57935,-1.15609 2.51406,-2.06033 l 1.69912,-1.64435 2.40864,3.04633 c 1.32465,1.67521 2.40864,3.166512 2.40864,3.314012 0,0.1475 -0.78082,0.71336 -1.73478,1.25728 -2.6528,1.51256 -3.37757,2.29425 -3.37757,3.64319 0,0.84838 0.27509,1.40409 0.96222,1.94459 1.32305,1.04071 2.04017,0.95851 4.57233,-0.52555 1.20365,-0.70544 2.32338,-1.19925 2.48873,-1.09709 0.35508,0.21945 2.93109,6.27705 2.93109,6.8926 0,0.23278 -1.27334,0.83246 -2.8298,1.33274 -2.38698,0.7672 -2.88402,1.06658 -3.17448,1.91357 -0.4843,1.41224 0.12658,2.91862 1.3596,3.35225 0.90435,0.31804 4.21418,-0.0994 5.89163,-0.7431 0.35619,-0.13668 0.59299,0.54723 0.89659,2.58847 0.22695,1.52592 0.4129,3.42476 0.4129,4.2199 v 1.4459 h -2.89492 c -2.69229,0 -2.94758,0.0669 -3.65146,0.9617 -0.95473,1.21373 -0.95473,1.9742 0,3.18792 0.70388,0.89486 0.95917,0.96221 3.65146,0.96221 h 2.89492 v 1.44591 c 0,0.79513 -0.18595,2.69399 -0.4129,4.2199 -0.3036,2.04125 -0.5404,2.72568 -0.89659,2.58899 -1.67745,-0.64373 -4.98728,-1.06115 -5.89163,-0.74311 -1.23302,0.43364 -1.8439,1.93951 -1.3596,3.35173 0.29046,0.847 0.7875,1.14638 3.17448,1.91358 1.55646,0.50028 2.8298,1.10047 2.8298,1.33325 0,0.61555 -2.57601,6.67264 -2.93109,6.89209 -0.16535,0.10213 -1.28508,-0.39112 -2.48873,-1.09657 -2.53216,-1.48405 -3.24928,-1.56677 -4.57233,-0.52607 -0.68713,0.54049 -0.96222,1.09621 -0.96222,1.94458 0,1.34895 0.72477,2.13115 3.37757,3.64371 0.95396,0.54392 1.73478,1.10979 1.73478,1.25729 0,0.14752 -1.08399,1.63828 -2.40864,3.31349 l -2.40864,3.04581 -1.69912,-1.64383 c -0.93471,-0.90425 -2.06631,-1.83142 -2.51406,-2.06034 -1.69166,-0.86485 -3.75015,0.52104 -3.75015,2.52491 0,0.64952 0.61176,1.53955 2.00091,2.91145 1.90531,1.88165 1.97088,2.00801 1.38338,2.65721 -0.82174,0.90799 -5.39586,4.28847 -5.80223,4.28811 -0.17626,-1.8e-4 -0.79429,-0.8439 -1.37305,-1.87431 -1.88902,-3.36328 -3.18394,-3.9926 -5.10563,-2.48098 -1.08141,0.85064 -1.30048,2.5924 -0.48007,3.81785 0.26521,0.39616 0.84884,1.32856 1.29707,2.07223 l 0.81494,1.35185 -1.54616,0.78962 c -0.85063,0.43396 -2.57959,1.17758 -3.84162,1.65261 l -2.29444,0.86351 -0.39015,-1.54409 c -0.73559,-2.91294 -1.30387,-4.08706 -2.22829,-4.60592 -1.21404,-0.68143 -2.70177,-0.29304 -3.49074,0.91105 -0.5811,0.88678 -0.57782,1.09846 0.0563,3.64526 0.37034,1.48719 0.59071,2.78686 0.48938,2.8882 -0.21028,0.21028 -3.2256,0.74719 -6.05441,1.07797 l -1.91668,0.22427 v -2.86494 c 0,-3.39519 -0.65249,-4.46381 -2.72645,-4.46381 -1.97906,0 -2.75126,1.2984 -2.75125,4.62659 v 2.70216 l -1.9172,-0.22427 c -2.53191,-0.29607 -5.83637,-0.86045 -6.00066,-1.02475 -0.072,-0.072 0.14932,-1.29732 0.49144,-2.72283 0.49513,-2.06303 0.5346,-2.78281 0.19533,-3.52743 -0.61151,-1.34218 -1.95183,-1.87221 -3.31039,-1.30948 -1.11612,0.46231 -1.47468,1.10382 -2.35851,4.21886 -0.60076,2.11736 -0.59748,2.11682 -4.44417,0.51108 -3.95162,-1.64954 -3.80097,-1.36208 -2.27428,-4.32997 1.42273,-2.7658 1.41736,-3.90043 -0.0227,-4.99452 -1.5527,-1.17968 -3.15283,-0.31446 -4.82554,2.60914 -0.63096,1.10281 -1.32941,2.00505 -1.55185,2.00505 -0.42651,0 -5.60684,-3.85577 -5.97018,-4.44366 -0.11663,-0.18874 0.63474,-1.23841 1.66967,-2.33268 1.65524,-1.7502 1.868,-2.1498 1.76837,-3.32124 -0.1589,-1.86854 -1.67696,-3.01057 -3.22513,-2.42621 l -0.99374,0.37517 v 14.73347 c 0.0228,-0.18386 0.0431,-0.39377 0.0853,-0.39377 0.11948,0 1.07293,0.6303 2.11873,1.40094 9.53778,7.02833 24.01224,11.24564 36.08256,10.51254 21.5063,-1.3062 39.49991,-13.06964 49.11689,-32.11122 4.67435,-9.25518 6.58423,-18.90454 5.92264,-29.91962 -1.22423,-20.38267 -13.98032,-39.189942 -32.6223,-48.09784 -6.80822,-3.253232 -12.48206,-4.796991 -20.38945,-5.547979 -1.61243,-0.153138 -3.26142,-0.222562 -4.932,-0.212392 z m 33.94521,0.182936 c 0.33369,-0.0077 1.7007,0.51273 4.23127,1.559075 5.26402,2.176585 11.35423,5.955739 15.80937,9.810258 l 1.27796,1.10587 h -3.10369 -3.10368 l -2.85719,-2.723344 c -3.26483,-3.111979 -6.0958,-5.353127 -10.28362,-8.140589 -1.60394,-1.067591 -2.30413,-1.603616 -1.97042,-1.61127 z m 34.42374,39.160915 h 4.15944 l 0.75912,2.8298 c 0.94765,3.53475 1.87374,9.21441 1.87586,11.50214 h 5.3e-4 l 5.3e-4,1.73478 h -4.16205 -4.16202 l -0.24236,-2.64738 c -0.30403,-3.32644 -1.53354,-10.48939 -2.02055,-11.77034 -0.20207,-0.53147 -0.36742,-1.12017 -0.36742,-1.30793 0,-0.19177 1.82261,-0.34107 4.15892,-0.34107 z m -1.52962,21.17855 h 4.16202 4.16254 l -0.001,1.73478 c -0.002,2.28773 -0.92769,7.9674 -1.87534,11.50214 l -0.75964,2.8298 h -4.15944 c -2.3363,0 -4.15943,-0.14982 -4.15943,-0.34158 0,-0.18776 0.16586,-0.77594 0.36793,-1.30741 0.48701,-1.28096 1.71651,-8.44389 2.02055,-11.77034 z m -0.62528,21.54339 v 5.3e-4 h 4.19405 l -0.85369,1.9172 c -1.28311,2.88104 -4.03448,7.39544 -6.56032,10.76419 v 0.001 l -2.2531,3.00499 -3.55327,0.007 -3.55379,0.007 2.23398,-3.37809 c 2.1699,-3.28077 6.1407,-10.94587 6.14794,-11.86698 0.002,-0.33846 1.0877,-0.45681 4.1982,-0.45681 z m -17.05581,21.17907 3.05304,0.007 3.05253,0.007 -1.60352,1.36219 c -4.79586,4.07364 -12.02171,8.34863 -17.76791,10.5115 v -5.3e-4 c -1.30447,0.49101 -2.49122,0.89297 -2.63705,0.89297 -0.14584,0 1.05136,-0.86281 2.6603,-1.9172 4.04238,-2.64901 6.89418,-4.89115 10.31979,-8.11371 z" />
    <path
       id="path897"
       style="fill:#000000;fill-opacity:1;stroke-width:2.17873"
       d="m 142.7782,95.488438 c -1.98627,0.0534 -3.55666,1.48507 -4.71731,2.96343 -3.24751,3.609522 -6.49793,7.216462 -9.74362,10.827592 -4.84639,1.83421 -9.74564,3.54222 -14.55469,5.4668 -2.83973,1.60556 -3.87523,5.18863 -3.46875,8.26562 0.2663,2.44901 1.8634,4.40227 3.14784,6.39943 2.40186,3.68003 4.804,7.35988 7.20567,11.04002 0.0845,4.09731 -0.0467,8.20369 0.18555,12.29493 0.36255,2.74331 2.23901,5.55793 5.12617,6.02307 2.02684,0.26764 3.88525,-0.80604 5.79903,-1.27873 3.70316,-1.13608 7.39344,-2.36078 11.11582,-3.4045 1.47061,0.0545 2.79345,0.79957 4.20875,1.12747 3.81752,1.1677 7.6118,2.42201 11.44359,3.53659 2.38646,0.452 4.77967,-1.03231 5.8344,-3.14324 1.07589,-1.90952 1.11709,-4.15162 1.06454,-6.2829 0.0229,-2.95691 0.0437,-5.91384 0.0679,-8.87073 3.14267,-4.87652 6.39749,-9.68583 9.4664,-14.60657 1.6745,-3.35194 1.22404,-7.91698 -1.65972,-10.47348 -1.63958,-1.27708 -3.71008,-1.58373 -5.57227,-2.41597 -3.30153,-1.2257 -6.60238,-2.45325 -9.90433,-3.67781 -3.75329,-4.1503 -7.45094,-8.35666 -11.26688,-12.446812 -1.02371,-0.91054 -2.40264,-1.43273 -3.77805,-1.34421 z m 0.3125,8.482432 c 1.32161,-0.0518 1.90304,1.33386 2.74632,2.09791 3.29938,3.61373 6.48992,7.32167 9.86696,10.86107 1.50062,1.09532 3.39213,1.39523 5.06217,2.1488 3.01446,1.12349 6.02866,2.24771 9.0433,3.37073 -2.83971,4.42661 -5.82069,8.76637 -8.56529,13.25101 -1.17225,2.52135 -0.65918,5.36793 -0.80237,8.0521 -0.016,2.23035 -0.0332,4.46068 -0.0483,6.69103 -2.23031,-0.18518 -4.27522,-1.15752 -6.41734,-1.72524 -3.43695,-1.04228 -6.82956,-2.21833 -10.30532,-3.13218 -2.00383,-0.19002 -3.86973,0.88372 -5.73116,1.32878 -3.75919,1.15036 -7.49913,2.39604 -11.27665,3.46614 -0.88948,0.07 -1.04903,-0.98405 -0.92969,-1.65234 -0.083,-3.65386 0.0689,-7.3195 -0.19207,-10.96532 -0.43867,-2.59756 -2.34004,-4.56966 -3.63332,-6.7678 -1.86208,-2.85339 -3.7255,-5.7059 -5.58672,-8.55985 4.48929,-1.7076 9.03968,-3.27167 13.48633,-5.08008 1.5929,-1.01852 2.59022,-2.6886 3.92484,-3.99143 2.757,-3.03416 5.44898,-6.14328 8.26852,-9.10818 0.3242,-0.20771 0.7104,-0.27703 1.08984,-0.28515 z" />
  </g>
</svg>
