<?xml version="1.0" encoding="UTF-8"?>
<svg id="Layer_2" data-name="Layer 2" xmlns="http://www.w3.org/2000/svg" viewBox="0 0 500.37 143.67">
  <defs>
    <style>
      .cls-1 {
        fill: #8dff97;
      }

      .cls-2 {
        fill: #252932;
      }

      .cls-3 {
        fill: #374975;
      }

      .cls-4 {
        fill: #378eff;
      }
    </style>
  </defs>
  <g id="Layer_1-2">
    <g>
      <g>
        <path class="cls-2" d="M143.89,134.88l8.57-26.36h5.51l8.57,26.36h-3.97l-7.89-24.05h.99l-7.8,24.05h-3.97Zm4.45-5.95v-3.59h13.76v3.59h-13.76Z"/>
        <path class="cls-2" d="M184.7,135.41c-2.4,0-4.36-.53-5.88-1.59s-2.44-2.56-2.78-4.48l3.92-.6c.24,1.03,.81,1.83,1.69,2.43,.88,.59,1.99,.89,3.3,.89,1.2,0,2.13-.24,2.81-.73,.68-.49,1.02-1.16,1.02-2.01,0-.5-.12-.91-.36-1.22-.24-.31-.73-.61-1.49-.89-.76-.28-1.91-.63-3.46-1.04-1.7-.44-3.04-.91-4.04-1.42s-1.7-1.1-2.12-1.78-.63-1.5-.63-2.46c0-1.2,.32-2.24,.95-3.13,.63-.89,1.53-1.58,2.68-2.07,1.15-.49,2.5-.73,4.05-.73s2.86,.24,4.04,.71,2.14,1.15,2.87,2.02c.73,.87,1.17,1.89,1.32,3.07l-3.92,.71c-.13-.95-.58-1.7-1.34-2.25s-1.74-.85-2.95-.9c-1.16-.05-2.1,.14-2.82,.58s-1.08,1.03-1.08,1.78c0,.44,.14,.81,.41,1.12,.27,.31,.81,.6,1.6,.88s1.96,.62,3.51,1.01c1.66,.43,2.98,.9,3.95,1.42,.98,.52,1.67,1.13,2.1,1.85s.63,1.58,.63,2.59c0,1.95-.71,3.48-2.13,4.59-1.42,1.11-3.38,1.67-5.88,1.67Z"/>
        <path class="cls-2" d="M205.35,135.43c-1.98,0-3.69-.45-5.14-1.34-1.45-.89-2.57-2.12-3.36-3.69-.79-1.57-1.18-3.38-1.18-5.43s.4-3.88,1.21-5.45c.81-1.57,1.93-2.79,3.39-3.66,1.45-.87,3.15-1.31,5.09-1.31s3.69,.45,5.14,1.34c1.45,.89,2.57,2.12,3.37,3.68,.79,1.56,1.19,3.36,1.19,5.4s-.4,3.88-1.2,5.45c-.8,1.57-1.92,2.79-3.38,3.68s-3.16,1.33-5.12,1.33Zm0-3.61c1.89,0,3.3-.64,4.24-1.91,.93-1.27,1.4-2.92,1.4-4.93s-.47-3.71-1.42-4.95c-.95-1.24-2.35-1.86-4.22-1.86-1.28,0-2.34,.29-3.17,.87-.83,.58-1.45,1.38-1.85,2.4-.4,1.02-.6,2.2-.6,3.54,0,2.07,.48,3.73,1.43,4.98,.95,1.24,2.35,1.87,4.19,1.87Z"/>
        <path class="cls-2" d="M219.44,134.88v-26.91h3.83v26.91h-3.83Z"/>
        <path class="cls-2" d="M236.2,135.41c-1.37,0-2.51-.22-3.44-.66-.93-.44-1.68-1.02-2.26-1.73-.58-.71-1.02-1.49-1.33-2.33-.3-.84-.51-1.67-.62-2.47-.11-.8-.17-1.51-.17-2.12v-10.98h3.88v9.72c0,.77,.06,1.56,.19,2.37s.37,1.56,.73,2.26c.36,.7,.87,1.26,1.52,1.68,.65,.43,1.5,.64,2.55,.64,.68,0,1.33-.11,1.94-.34,.61-.23,1.14-.59,1.6-1.09,.46-.5,.82-1.16,1.08-1.98,.26-.82,.39-1.81,.39-2.98l2.38,.9c0,1.79-.34,3.38-1.01,4.75s-1.63,2.44-2.89,3.21c-1.26,.77-2.78,1.15-4.56,1.15Zm6.53-.53v-5.71h-.46v-14.06h3.86v19.77h-3.4Z"/>
        <path class="cls-2" d="M249.07,118.19v-3.07h13.51v3.07h-13.51Zm13.51,16.69c-1.25,.24-2.46,.35-3.66,.31-1.2-.04-2.26-.27-3.2-.7s-1.65-1.1-2.12-2.01c-.43-.82-.66-1.65-.69-2.5-.03-.85-.05-1.81-.05-2.88v-17.48h3.84v17.3c0,.79,0,1.48,.03,2.07,.02,.59,.14,1.08,.38,1.48,.44,.76,1.14,1.19,2.1,1.29,.96,.1,2.08,.06,3.38-.12v3.24Z"/>
        <path class="cls-2" d="M267.1,111.88v-3.72h3.83v3.72h-3.83Zm0,23.01v-19.77h3.83v19.77h-3.83Z"/>
        <path class="cls-2" d="M285,135.43c-1.98,0-3.69-.45-5.14-1.34-1.45-.89-2.57-2.12-3.36-3.69-.79-1.57-1.18-3.38-1.18-5.43s.4-3.88,1.21-5.45c.81-1.57,1.93-2.79,3.39-3.66,1.45-.87,3.15-1.31,5.09-1.31s3.69,.45,5.14,1.34c1.45,.89,2.57,2.12,3.37,3.68,.79,1.56,1.19,3.36,1.19,5.4s-.4,3.88-1.2,5.45c-.8,1.57-1.92,2.79-3.38,3.68s-3.16,1.33-5.12,1.33Zm0-3.61c1.89,0,3.3-.64,4.24-1.91,.93-1.27,1.4-2.92,1.4-4.93s-.47-3.71-1.42-4.95c-.95-1.24-2.35-1.86-4.22-1.86-1.28,0-2.34,.29-3.17,.87-.83,.58-1.45,1.38-1.85,2.4-.4,1.02-.6,2.2-.6,3.54,0,2.07,.48,3.73,1.43,4.98,.95,1.24,2.35,1.87,4.19,1.87Z"/>
        <path class="cls-2" d="M298.71,134.88v-19.77h3.42v5.71h.46v14.06h-3.88Zm13.89,0v-9.72c0-.77-.06-1.56-.19-2.37-.13-.81-.37-1.56-.73-2.26-.36-.7-.87-1.26-1.52-1.68-.65-.43-1.5-.64-2.55-.64-.68,0-1.33,.11-1.94,.34-.61,.23-1.14,.59-1.6,1.09-.46,.5-.82,1.16-1.08,1.98-.26,.82-.39,1.81-.39,2.98l-2.38-.9c0-1.79,.34-3.38,1.01-4.75s1.63-2.44,2.89-3.21,2.78-1.15,4.56-1.15c1.37,0,2.51,.22,3.44,.66,.93,.44,1.68,1.02,2.26,1.73s1.02,1.49,1.33,2.33c.3,.84,.51,1.67,.62,2.47,.11,.81,.17,1.51,.17,2.12v10.98h-3.88Z"/>
        <path class="cls-2" d="M328.54,134.88v-26.36h3.84v12.13h-.44v14.22h-3.4Zm9.3,.55c-1.89,0-3.48-.46-4.76-1.38-1.28-.92-2.25-2.17-2.91-3.74-.66-1.57-.99-3.35-.99-5.33s.33-3.75,.98-5.33c.65-1.57,1.62-2.82,2.89-3.72s2.85-1.36,4.71-1.36,3.46,.45,4.8,1.36,2.39,2.15,3.12,3.72c.73,1.57,1.1,3.35,1.1,5.34s-.36,3.75-1.09,5.33c-.73,1.58-1.76,2.83-3.09,3.74-1.34,.92-2.93,1.37-4.77,1.37Zm-.53-3.46c1.22,0,2.23-.31,3.03-.93,.8-.62,1.4-1.46,1.79-2.52,.4-1.06,.59-2.24,.59-3.54s-.2-2.46-.59-3.51-1-1.89-1.82-2.51c-.82-.62-1.86-.93-3.13-.93-1.2,0-2.18,.29-2.96,.88-.78,.59-1.35,1.4-1.72,2.45-.37,1.05-.56,2.26-.56,3.62s.18,2.57,.55,3.62c.37,1.05,.95,1.87,1.74,2.47,.79,.6,1.82,.9,3.08,.9Z"/>
        <path class="cls-2" d="M352.26,143.67l3.83-10.41,.06,3.07-8.62-21.21h3.99l6.44,16.38h-1.17l6.15-16.38h3.88l-10.91,28.55h-3.64Z"/>
      </g>
      <g>
        <g>
          <polygon class="cls-3" points="102.29 0 60.63 0 39.8 36.07 60.63 72.15 102.29 72.15 123.11 36.07 102.29 0"/>
          <polygon class="cls-4" points="82.38 0 40.73 0 19.9 36.07 40.73 72.15 82.38 72.15 103.21 36.07 82.38 0"/>
          <polygon class="cls-1" points="62.48 0 20.83 0 0 36.07 20.83 72.15 62.48 72.15 83.31 36.07 62.48 0"/>
        </g>
        <g>
          <path class="cls-2" d="M228.13,17.81c-1.7,.12-3.37,.43-4.98,.95-1.62,.52-3.1,1.23-4.43,2.13-1.57,.97-2.91,2.2-4.03,3.68-.51,.67-.96,1.39-1.38,2.13v-8.66h-10.67v54.11h12.12v-27.51c0-2.07,.25-4,.75-5.79,.5-1.79,1.28-3.38,2.33-4.78,1.05-1.4,2.41-2.55,4.08-3.46,1.67-1,3.55-1.59,5.64-1.75,2.09-.17,3.93-.02,5.54,.45v-11.27c-1.6-.27-3.26-.34-4.96-.23Z"/>
          <path class="cls-2" d="M283.24,32.44c-.2-1.99-.79-3.93-1.75-5.84-1.77-3.57-4.48-6.15-8.14-7.72-3.66-1.57-7.89-2.35-12.7-2.35-6.38,0-11.45,1.39-15.21,4.16-3.76,2.77-6.31,6.45-7.64,11.02l11.02,3.46c.9-2.77,2.49-4.73,4.76-5.86,2.27-1.14,4.63-1.7,7.06-1.7,4.04,0,6.91,.89,8.62,2.66,1.42,1.47,2.22,3.63,2.44,6.47-2.18,.32-4.31,.63-6.37,.92-3.42,.48-6.6,1.01-9.52,1.58-2.92,.57-5.47,1.2-7.64,1.9-2.87,.97-5.21,2.21-7.01,3.73-1.8,1.52-3.14,3.32-4.01,5.41-.87,2.09-1.3,4.43-1.3,7.04,0,2.97,.69,5.7,2.08,8.17,1.39,2.47,3.43,4.45,6.14,5.94s6.01,2.23,9.92,2.23c4.88,0,8.94-.91,12.2-2.73,2.51-1.4,4.77-3.43,6.79-6.06v7.29h10.57V38.93c0-2.34-.1-4.5-.3-6.49Zm-12.88,22.62c-.4,1.24-1.18,2.55-2.33,3.96s-2.7,2.59-4.63,3.56c-1.94,.97-4.28,1.45-7.01,1.45-1.9,0-3.5-.3-4.78-.9-1.29-.6-2.26-1.41-2.93-2.43-.67-1.02-1-2.2-1-3.53,0-1.17,.26-2.19,.78-3.06,.52-.87,1.26-1.64,2.23-2.3,.97-.67,2.15-1.25,3.56-1.75,1.44-.47,3.09-.89,4.96-1.28,1.87-.38,4.11-.79,6.71-1.23,1.67-.28,3.55-.58,5.64-.92-.02,.92-.05,1.96-.1,3.15-.08,1.99-.44,3.75-1.08,5.29Z"/>
          <path class="cls-2" d="M366.33,22.07c-3.19-3.59-7.77-5.39-13.75-5.39-3.61,0-6.88,.8-9.82,2.4-2.77,1.51-4.99,3.58-6.68,6.21-1.34-2.5-3.21-4.51-5.62-6.03-2.72-1.72-6.1-2.58-10.15-2.58-3.67,0-6.99,.81-9.94,2.43-2.27,1.25-4.18,2.85-5.74,4.8v-5.87h-10.67v54.11h12.17V38.83c0-3.37,.93-6.11,2.78-8.22,1.85-2.1,4.32-3.16,7.39-3.16s5.68,1.05,7.52,3.16c1.84,2.1,2.76,5.04,2.76,8.82v32.72h12.02V38.83c0-2.37,.45-4.42,1.35-6.14,.9-1.72,2.12-3.02,3.66-3.91,1.54-.88,3.27-1.33,5.21-1.33,3.14,0,5.63,1.04,7.46,3.13,1.84,2.09,2.76,4.99,2.76,8.69v32.87h12.07V36.22c0-5.84-1.6-10.56-4.78-14.15Z"/>
          <path class="cls-2" d="M423.97,48.45h5.91c.47-6.48-.25-12.11-2.15-16.88-1.9-4.78-4.82-8.48-8.74-11.1-3.92-2.62-8.69-3.93-14.3-3.93-5.31,0-9.99,1.2-14.03,3.61-4.04,2.4-7.2,5.79-9.47,10.15-2.27,4.36-3.41,9.49-3.41,15.41,0,5.48,1.16,10.32,3.48,14.53,2.32,4.21,5.55,7.5,9.69,9.87,4.14,2.37,8.95,3.56,14.43,3.56s9.98-1.35,14.3-4.06c4.33-2.71,7.52-6.5,9.59-11.37l-11.92-3.61c-1.17,2.51-2.83,4.42-4.98,5.74-2.15,1.32-4.72,1.98-7.69,1.98-4.61,0-8.12-1.5-10.52-4.51-1.89-2.36-3.03-5.49-3.44-9.37h33.25Zm-18.79-21.34c4.38,0,7.58,1.35,9.62,4.06,1.45,1.92,2.38,4.65,2.82,8.17h-26.61c.55-3.13,1.6-5.68,3.14-7.64,2.4-3.06,6.08-4.58,11.02-4.58Z"/>
          <g>
            <rect class="cls-2" x="438.45" width="12.07" height="72.15"/>
            <polygon class="cls-2" points="500.31 72.15 470.18 35.37 500.37 0 485.54 0 455.37 35.26 485.49 72.15 500.31 72.15"/>
          </g>
          <path class="cls-2" d="M147.16,72.15V0h48.95V12.07h-36.87V30.06h30.86v12.02h-30.86v30.06h-12.07Z"/>
        </g>
      </g>
      <g>
        <g>
          <g>
            <rect class="cls-2" x="463.07" y="108.52" width="4.42" height="26.38"/>
            <polygon class="cls-2" points="485.68 134.9 474.66 121.45 485.71 108.52 480.28 108.52 469.25 121.41 480.26 134.9 485.68 134.9"/>
          </g>
          <g>
            <path class="cls-2" d="M380.91,134.9v-26.38h4.47l12.24,18.6v-18.6h4.47v26.38h-4.47l-12.24-18.6v18.6h-4.47Z"/>
            <path class="cls-2" d="M415.04,135.45c-1.98,0-3.71-.45-5.18-1.34-1.48-.89-2.62-2.12-3.44-3.69-.81-1.57-1.22-3.37-1.22-5.41s.42-3.9,1.25-5.46c.83-1.56,1.98-2.78,3.46-3.66,1.48-.88,3.19-1.32,5.13-1.32s3.73,.45,5.2,1.34c1.48,.89,2.63,2.12,3.44,3.69,.82,1.57,1.23,3.37,1.23,5.41s-.41,3.86-1.24,5.43-1.98,2.8-3.45,3.68c-1.48,.89-3.21,1.33-5.18,1.33Zm0-4.14c1.76,0,3.07-.59,3.92-1.76,.85-1.17,1.28-2.69,1.28-4.54s-.43-3.45-1.3-4.59c-.87-1.14-2.17-1.71-3.9-1.71-1.18,0-2.16,.27-2.92,.8-.76,.53-1.33,1.27-1.69,2.22-.37,.95-.55,2.04-.55,3.29,0,1.92,.44,3.45,1.31,4.59,.87,1.14,2.16,1.71,3.86,1.71Z"/>
            <path class="cls-2" d="M439.63,118.57v-3.46h-5.81v-5.5h-4.4v5.5h-3.59v3.46h3.59v8.24c0,1.12,.01,2.13,.04,3.02,.02,.89,.26,1.76,.71,2.62,.51,.94,1.26,1.63,2.25,2.06,.99,.43,2.11,.67,3.36,.7,1.25,.03,2.53-.08,3.84-.32v-3.7c-1.23,.18-2.33,.23-3.3,.15-.97-.09-1.67-.49-2.11-1.23-.23-.38-.36-.87-.38-1.47-.02-.6-.03-1.29-.03-2.09v-7.99h5.81Z"/>
            <path class="cls-2" d="M457.77,126.23h2.16c.17-2.37-.09-4.43-.79-6.17-.7-1.75-1.76-3.1-3.2-4.06-1.44-.96-3.18-1.44-5.23-1.44-1.94,0-3.65,.44-5.13,1.32-1.48,.88-2.63,2.12-3.46,3.71-.83,1.59-1.25,3.47-1.25,5.63,0,2,.42,3.77,1.27,5.31,.85,1.54,2.03,2.74,3.55,3.61,1.51,.87,3.27,1.3,5.28,1.3s3.65-.49,5.23-1.48c1.58-.99,2.75-2.38,3.51-4.16l-4.36-1.32c-.43,.92-1.04,1.62-1.82,2.1-.79,.48-1.73,.72-2.81,.72-1.69,0-2.97-.55-3.85-1.65-.69-.86-1.11-2.01-1.26-3.43h12.16Zm-6.87-7.8c1.6,0,2.77,.49,3.52,1.48,.53,.7,.87,1.7,1.03,2.99h-9.73c.2-1.14,.58-2.08,1.15-2.79,.88-1.12,2.22-1.68,4.03-1.68Z"/>
          </g>
        </g>
        <g>
          <path class="cls-3" d="M497.13,128.5h-2.74v6.39h2.38s.19,0,.19,0c.06,0,.11,0,.17,0,1.77,0,3.2-1.43,3.2-3.2s-1.43-3.2-3.2-3.2Z"/>
          <path class="cls-4" d="M494.57,128.5h-2.56v6.39h1.59s.8,0,.8,0c.06,0,.11,0,.17,0s.11,0,.17,0c1.69-.09,3.03-1.48,3.03-3.19s-1.43-3.2-3.2-3.2Z"/>
          <path class="cls-1" d="M495.21,131.7c0-1.77-1.43-3.2-3.2-3.2s-3.2,1.43-3.2,3.2,1.43,3.2,3.2,3.2c.06,0,.11,0,.17,0,1.69-.09,3.03-1.48,3.03-3.19Z"/>
        </g>
      </g>
    </g>
  </g>
</svg>