<?xml version="1.0" encoding="UTF-8" standalone="no"?>
<!-- Created with Inkscape (http://www.inkscape.org/) -->

<svg
   width="250"
   height="250"
   viewBox="0 0 250 250"
   version="1.1"
   id="svg5"
   xmlns="http://www.w3.org/2000/svg"
   xmlns:svg="http://www.w3.org/2000/svg">
  <defs
     id="defs2">
		
		
	</defs>
  <g
     id="layer1">
    <g
       id="g4970"
       transform="matrix(0.70067773,0,0,0.71935647,-59.884296,-163.07713)">
      <path
         style="fill:#477f3c"
         d="M 343.247,394.188 H 105.346 c -11.052,0 -20.013,-8.961 -20.013,-20.013 V 247.444 c 0,-11.052 8.961,-20.013 20.013,-20.013 h 237.901 c 11.052,0 20.013,8.961 20.013,20.013 v 126.731 c 0,11.054 -8.959,20.013 -20.013,20.013 z"
         id="path4056" />
      <path
         style="fill:#2e5e24"
         d="M 343.247,227.433 H 225.689 V 394.19 h 117.558 c 11.052,0 20.013,-8.961 20.013,-20.013 V 247.446 c 0,-11.054 -8.959,-20.013 -20.013,-20.013 z"
         id="path4058" />
      <path
         style="fill:#e09112"
         d="m 151.997,297.619 c 0,0 -3.093,37.104 -28.17,52.562 0,0 23.914,-8.202 28.17,13.055 0,0 23.018,-15.803 17.177,-62.869"
         id="path4060" />
      <path
         style="fill:#ff5419"
         d="m 201.925,297.619 c 0,0 3.093,37.104 28.17,52.562 0,0 -23.914,-8.202 -28.17,13.055 0,0 -23.018,-15.803 -17.177,-62.869"
         id="path4062" />
      <path
         style="fill:#ffc61b"
         d="m 106.139,259.582 c 0,0 9.471,19.828 1.226,43.189 0,0 10.993,17.52 64.931,0 l -0.584,-30.982 z"
         id="path4064" />
      <path
         style="fill:#e09112"
         d="m 173.67,273.913 c 0,0 -35.73,-41.225 -62.869,-22.675 -27.139,18.55 62.869,22.675 62.869,22.675 z"
         id="path4066" />
      <path
         style="fill:#eaa22f"
         d="m 247.923,259.274 c 0,0 -9.613,20.137 -1.369,43.498 0,0 -10.993,17.52 -64.931,0 l 0.584,-30.982 z"
         id="path4068" />
      <path
         style="fill:#ff5419"
         d="m 180.25,273.913 c 0,0 35.73,-41.225 62.869,-22.675 27.139,18.55 -62.869,22.675 -62.869,22.675 z"
         id="path4070" />
      <circle
         style="fill:#c92f00"
         cx="176.959"
         cy="287.996"
         r="19.239"
         id="circle4072" />
      <path
         style="fill:#930000"
         d="m 176.961,268.76 c 10.624,0 19.239,8.613 19.239,19.239 0,10.624 -8.613,19.239 -19.239,19.239 z"
         id="path4074" />
    </g>
  </g>
  <g
     id="layer2">
    <g
       id="g7615"
       transform="translate(-10,192.04637)">
      <g
         id="g4958"
         transform="matrix(0.70067773,0,0,0.71935647,-22.77584,-233.62155)">
        <path
           style="fill:#8bc180"
           d="M 381.424,308.979 H 143.522 c -11.052,0 -20.013,-8.961 -20.013,-20.013 V 162.235 c 0,-11.052 8.961,-20.013 20.013,-20.013 h 237.901 c 11.052,0 20.013,8.961 20.013,20.013 v 126.731 c 0.001,11.052 -8.96,20.013 -20.012,20.013 z"
           id="path4048" />
        <path
           style="fill:#6caf5f"
           d="M 381.424,142.222 H 260.598 v 166.757 h 120.827 c 11.052,0 20.013,-8.961 20.013,-20.013 V 162.235 c -10e-4,-11.052 -8.962,-20.013 -20.014,-20.013 z"
           id="path4050" />
        <rect
           x="123.501"
           y="170.718"
           style="fill:#3f3b3b"
           width="277.92801"
           height="41.230999"
           id="rect4052" />
        <rect
           x="260.603"
           y="170.718"
           style="fill:#272525"
           width="140.843"
           height="41.230999"
           id="rect4054" />
      </g>
      <g
         id="g7595">
        <g
           id="XMLID_1196_"
           style="fill:#008080"
           transform="matrix(0.5061719,0,0,0.5061719,62.849218,-117.04572)">
			<g
   id="XMLID_46_"
   style="fill:#008080">
				<polygon
   id="XMLID_1198_"
   style="fill:#008080"
   points="91.672,139.397 135.228,119.309 55.129,102.096 36.863,110.52 " />

			</g>

			<path
   id="XMLID_45_"
   style="fill:#008080"
   d="m 32.223,148.452 11.307,3.488 c 24.182,-12.408 90.503,-46.351 103.735,-52.201 10.697,-4.729 27.701,-0.442 29.176,2.325 0.021,0.039 3.135,12.61 -21.93,27.019 l -64.165,32.673 v 0 l -39.07,19.895 -39.381,-21.194 z" />

		</g>
        <g
           id="XMLID_1197_"
           style="fill:#008080"
           transform="matrix(0.5061719,0,0,0.5061719,70.849218,-121.04572)">
			<rect
   id="XMLID_41_"
   x="203"
   y="157.16299"
   style="fill:#008080"
   width="142.66701"
   height="25.333" />

			<rect
   id="XMLID_38_"
   x="203"
   y="108.08"
   style="fill:#008080"
   width="142.66701"
   height="25.333" />

		</g>
      </g>
    </g>
    <g
       id="g7867">
      <path
         style="fill:#ffdc64;stroke-width:0.268372"
         d="m 142.6145,174.13073 h -29.61327 c -0.65429,0 -1.18459,0.5303 -1.18459,1.18459 v 1.05068 c 0,2.55114 -1.96073,4.74643 -4.50892,4.86666 -2.72076,0.12828 -4.96731,-2.04017 -4.96731,-4.73274 v -1.1846 c 0,-0.65429 -0.5303,-1.18459 -1.18459,-1.18459 H 9.946304 c -1.3083146,0 -2.3691899,1.06087 -2.3691899,2.36919 v 71.07247 c 0,1.30832 1.0608753,2.36919 2.3691899,2.36919 h 91.209516 c 0.65429,0 1.18459,-0.5303 1.18459,-1.18459 v -1.05068 c 0,-2.55115 1.96073,-4.74643 4.50893,-4.86666 2.72075,-0.12828 4.9673,2.04016 4.9673,4.73274 v 1.1846 c 0,0.65429 0.5303,1.18459 1.18459,1.18459 h 29.61353 c 1.30832,0 2.36919,-1.06087 2.36919,-2.36919 v -71.07274 c -2.6e-4,-1.30832 -1.06114,-2.36892 -2.36945,-2.36892 z m -33.16705,61.59598 c 0,1.30832 -1.05954,2.36919 -2.36919,2.36919 -1.30939,0 -2.36919,-1.06087 -2.36919,-2.36919 v -4.73811 c 0,-1.30831 1.05953,-2.36919 2.36919,-2.36919 1.30939,0 2.36919,1.06088 2.36919,2.36919 z m 0,-14.2146 c 0,1.30831 -1.05954,2.36919 -2.36919,2.36919 -1.30939,0 -2.36919,-1.06088 -2.36919,-2.36919 V 216.774 c 0,-1.30832 1.05953,-2.36919 2.36919,-2.36919 1.30939,0 2.36919,1.06087 2.36919,2.36919 z m 0,-14.21434 c 0,1.30832 -1.05954,2.36919 -2.36919,2.36919 -1.30939,0 -2.36919,-1.06087 -2.36919,-2.36919 v -4.73811 c 0,-1.30831 1.05953,-2.36919 2.36919,-2.36919 1.30939,0 2.36919,1.06088 2.36919,2.36919 z m 0,-14.2146 c 0,1.30832 -1.05954,2.36919 -2.36919,2.36919 -1.30939,0 -2.36919,-1.06087 -2.36919,-2.36919 v -4.73811 c 0,-1.30831 1.05953,-2.36919 2.36919,-2.36919 1.30939,0 2.36919,1.06088 2.36919,2.36919 z"
         id="path1507" />
      <g
         id="g1515"
         transform="matrix(0.26837221,0,0,0.26837221,7.5771141,143.3326)"
         style="fill:#4d4d4d">
	<path
   style="fill:#4d4d4d"
   d="m 97.103,346.483 c -2.828,0 -5.646,-1.078 -7.801,-3.233 -4.31,-4.31 -4.31,-11.293 0,-15.604 L 248.199,168.749 c 4.31,-4.31 11.293,-4.31 15.604,0 4.311,4.31 4.31,11.293 0,15.604 L 104.906,343.25 c -2.156,2.155 -4.974,3.233 -7.803,3.233 z"
   id="path1509" />

	<path
   style="fill:#4d4d4d"
   d="m 123.586,249.379 c -25.551,0 -46.345,-20.789 -46.345,-46.345 0,-25.556 20.793,-46.345 46.345,-46.345 25.552,0 46.345,20.789 46.345,46.345 0,25.556 -20.793,46.345 -46.345,46.345 z m 0,-70.62 c -13.388,0 -24.276,10.888 -24.276,24.276 0,13.388 10.888,24.276 24.276,24.276 13.388,0 24.276,-10.888 24.276,-24.276 0,-13.389 -10.888,-24.276 -24.276,-24.276 z"
   id="path1511" />

	<path
   style="fill:#4d4d4d"
   d="m 229.517,355.31 c -25.551,0 -46.345,-20.789 -46.345,-46.345 0,-25.556 20.793,-46.345 46.345,-46.345 25.552,0 46.345,20.789 46.345,46.345 0,25.556 -20.793,46.345 -46.345,46.345 z m 0,-70.62 c -13.388,0 -24.276,10.888 -24.276,24.276 0,13.388 10.888,24.276 24.276,24.276 13.388,0 24.276,-10.888 24.276,-24.276 0,-13.388 -10.888,-24.276 -24.276,-24.276 z"
   id="path1513" />

</g>
      <path
         style="fill:#ffc850;stroke-width:0.268372"
         d="m 109.44745,188.34506 v 4.73811 c 0,1.30832 -1.05954,2.36919 -2.36919,2.36919 v 4.73811 c 1.30939,0 2.36919,1.06088 2.36919,2.36919 v 4.73811 c 0,1.30832 -1.05954,2.36919 -2.36919,2.36919 v 4.73812 c 1.30939,0 2.36919,1.06087 2.36919,2.36919 v 4.73811 c 0,1.30831 -1.05954,2.36919 -2.36919,2.36919 v 4.73811 c 1.30939,0 2.36919,1.06087 2.36919,2.36919 v 4.73811 c 0,1.30831 -1.05954,2.36919 -2.36919,2.36919 v 4.73811 c 2.61663,0 4.73811,2.12148 4.73811,4.73811 v 1.1846 c 0,0.65429 0.5303,1.18459 1.18459,1.18459 h 29.61354 c 1.30831,0 2.36919,-1.06087 2.36919,-2.36919 v -71.07274 c 0,-1.30832 -1.06088,-2.36919 -2.36919,-2.36919 h -29.61327 c -0.65429,0 -1.18459,0.5303 -1.18459,1.18459 v 1.1846 c 0,2.61663 -2.12148,4.73811 -4.73811,4.73811 v 4.73811 c 1.30938,2.7e-4 2.36892,1.06088 2.36892,2.36919 z"
         id="path1517" />
    </g>
    <ellipse
       style="opacity:0.8;fill:#cccccc;fill-rule:evenodd;stroke:none;stroke-width:0.419292;stroke-linejoin:round;stroke-opacity:0.55"
       id="path7794"
       cx="210.88394"
       cy="40.621643"
       rx="35.094341"
       ry="35.315498" />
    <g
       aria-label="+1"
       id="text7685"
       style="font-size:85.3333px;line-height:1.25;word-spacing:0px;fill:#1a1a1a"
       transform="matrix(0.54312437,0,0,0.54312437,102.07747,15.614322)">
      <path
         d="m 155.44625,42.378441 h 14.25067 v -15.78666 h 11.60532 v 15.78666 h 14.25066 v 10.666662 h -14.25066 v 15.78666 h -11.60532 v -15.78666 h -14.25067 z"
         style="font-weight:bold;font-family:Ubuntu;-inkscape-font-specification:'Ubuntu Bold';fill:#1a1a1a"
         id="path7737" />
      <path
         d="m 205.70747,26.335781 q 2.47467,-1.023999 5.12,-2.303999 2.73067,-1.365333 5.29067,-2.901332 2.55999,-1.621333 4.86399,-3.327999 2.38934,-1.791999 4.26667,-3.754665 h 8.87466 V 73.183762 H 221.4088 V 30.602446 q -2.56,1.706666 -5.71733,3.157332 -3.15733,1.365333 -6.144,2.389332 z"
         style="font-weight:bold;font-family:Ubuntu;-inkscape-font-specification:'Ubuntu Bold';fill:#1a1a1a"
         id="path7739" />
    </g>
    <g
       id="g9900"
       transform="matrix(0.31130096,0,0,0.31130096,152.90289,173.2938)">
	<path
   style="fill:#e7a793"
   d="m 280.023,127.013 c 0,-50.781 -56.793,-91.936 -126.835,-91.936 -24.336,0 -47.01,5.058 -66.314,13.686 -0.42,-1.811 -1.05,-3.579 -2.214,-5.014 H 46.27 c -3.535,4.393 -3.535,11.49 0,15.865 l 7.998,9.923 C 41.658,80.939 32.706,94.512 28.716,109.423 l -10.641,2.862 C 5.071,115.777 -2.647,129.209 0.836,142.248 l 6.309,23.627 c 3.483,13.039 16.863,20.801 29.867,17.318 l 12.452,-3.352 c 9.031,9.293 20.319,17.344 33.376,23.671 l -3.518,15.892 c -2.363,10.65 3.369,21.72 12.767,24.765 9.398,3.045 18.919,-3.124 21.282,-13.774 l 3.395,-15.331 c 11.542,2.494 23.759,3.859 36.412,3.859 15.857,0 30.934,-2.188 44.927,-6.021 l 4.017,17.23 c 2.485,10.615 12.015,16.907 21.282,14.063 9.276,-2.853 14.771,-13.756 12.269,-24.371 l -4.734,-20.284 c 29.815,-16.828 49.084,-43.028 49.084,-72.527 z"
   id="path9896" />

	<path
   style="fill:#9b7063"
   d="m 157.616,61.311 c -21.921,0 -43.833,7.482 -43.833,7.482 v 9.967 c 0,0 21.895,-7.473 43.789,-7.473 21.894,0 43.833,7.141 43.833,7.141 v -9.941 c 0.001,0 -21.894,-7.176 -43.789,-7.176 z m -87.543,43.632 c -4.865,0 -8.812,3.903 -8.812,8.733 0,4.822 3.947,8.733 8.812,8.733 4.865,0 8.812,-3.912 8.812,-8.733 0,-4.83 -3.956,-8.733 -8.812,-8.733 z"
   id="path9898" />

</g>
  </g>
</svg>
