<?xml version="1.0" encoding="UTF-8" standalone="no"?>
<svg
   width="280"
   height="217.27974296498164"
   viewBox="0 0 280 217.27974296498164"
   class="css-1j8o68f"
   version="1.1"
   id="svg22"
   xmlns="http://www.w3.org/2000/svg"
   xmlns:svg="http://www.w3.org/2000/svg">
  <defs
     id="SvgjsDefs4201">
    <linearGradient
       id="SvgjsLinearGradient4208">
      <stop
         id="SvgjsStop4209"
         stop-color="#00ff8f"
         offset="0" />
      <stop
         id="SvgjsStop4210"
         stop-color="#00a1ff"
         offset="1" />
    </linearGradient>
    <linearGradient
       id="SvgjsLinearGradient4211">
      <stop
         id="SvgjsStop4212"
         stop-color="#00ff8f"
         offset="0" />
      <stop
         id="SvgjsStop4213"
         stop-color="#00a1ff"
         offset="1" />
    </linearGradient>
  </defs>
  <g
     id="SvgjsG4202"
     featurekey="JjiT9w-0"
     transform="matrix(1.7567567825317383,0,0,1.7567567825317383,69.72972972972973,-17.546486339053594)"
     fill="url(#SvgjsLinearGradient4208)">
    <path
       d="M40,9.988c-20.402,0-37,11.215-37,25v12.847c0,4.535,2.01,8.774,5.515,11.63c5.451,4.443,12.117,7.572,19.415,9.215  c0,0,0.001,0,0.001,0c3.874,0.872,7.923,1.333,12.07,1.333s8.196-0.461,12.07-1.333c0,0,0.001,0,0.001,0  c7.298-1.643,13.964-4.772,19.415-9.215C74.99,56.608,77,52.37,77,47.834V34.988C77,21.203,60.402,9.988,40,9.988z M14.667,58.972  c-1.262-0.807-2.477-1.672-3.625-2.608C8.474,54.271,7,51.162,7,47.834v-1.562c1.953,2.597,4.556,4.933,7.667,6.912V58.972z   M26.333,64.159c-2.68-0.755-5.246-1.736-7.666-2.928v-5.835c2.366,1.133,4.936,2.082,7.666,2.818V64.159z M38,65.973  c-2.615-0.099-5.178-0.396-7.667-0.873v-5.984c2.465,0.451,5.028,0.738,7.667,0.834V65.973z M49.667,65.1  c-2.489,0.477-5.052,0.775-7.667,0.873V59.95c2.639-0.095,5.202-0.382,7.667-0.834V65.1z M73,47.834  c0,3.327-1.474,6.436-4.042,8.529c-1.148,0.936-2.363,1.8-3.625,2.608v-0.984c0-1.104-0.896-2-2-2s-2,0.896-2,2v3.243  c-2.42,1.193-4.986,2.173-7.666,2.928v-5.946c8.388-2.262,15.269-6.537,19.333-11.94V47.834z M51.328,54.713  c-0.048,0.008-0.095,0.019-0.142,0.031c-3.495,0.804-7.261,1.244-11.186,1.244s-7.691-0.44-11.186-1.244  c-0.047-0.012-0.094-0.022-0.142-0.031C16.039,51.766,7,44.036,7,34.988c0-11.58,14.804-21,33-21s33,9.42,33,21  C73,44.036,63.961,51.766,51.328,54.713z"
       id="path9" />
    <path
       d="M58.892,31.164c-0.32-1.125-1.311-1.997-2.649-2.33l-7.635-1.904l-5.929-4.422c-1.479-1.102-3.879-1.102-5.357,0  l-5.929,4.422l-7.636,1.904c-1.338,0.333-2.328,1.205-2.648,2.33c-0.282,0.991-0.001,2.044,0.752,2.819l4.988,5.13l0.044,3.976  c0.011,0.887,0.425,1.703,1.168,2.299c0.977,0.784,2.433,1.094,3.801,0.808l7.941-1.663c0.121-0.027,0.269-0.027,0.396,0  l7.941,1.663c0.336,0.07,0.678,0.105,1.017,0.105c1.038,0,2.047-0.322,2.783-0.913c0.743-0.596,1.157-1.413,1.168-2.3l0.044-3.975  l4.988-5.13C58.893,33.208,59.174,32.154,58.892,31.164z M49.942,36.674c-0.498,0.513-0.777,1.171-0.785,1.856l-0.041,3.77  c-0.051-0.002-0.104-0.008-0.157-0.02l-7.939-1.663c-0.334-0.07-0.677-0.105-1.02-0.105s-0.686,0.035-1.019,0.105l-7.939,1.663  c-0.055,0.011-0.107,0.018-0.158,0.02l-0.041-3.771c-0.008-0.684-0.287-1.343-0.785-1.855l-4.14-4.257l6.494-1.619  c0.482-0.121,0.915-0.322,1.288-0.599l5.992-4.472c0.134-0.072,0.483-0.072,0.594-0.014l6.017,4.488  c0.37,0.275,0.803,0.477,1.287,0.597l6.487,1.624L49.942,36.674z"
       id="path11" />
    <path
       d="M51.653,17.409c-1.071-0.272-2.159,0.378-2.429,1.449c-0.271,1.071,0.377,2.158,1.448,2.429  C60.438,23.757,67,29.263,67,34.988c0,1.776-0.624,3.543-1.855,5.252c-1.244,1.726-3.042,3.314-5.342,4.722  c-0.942,0.576-1.238,1.808-0.662,2.75c0.377,0.617,1.034,0.957,1.708,0.957c0.355,0,0.716-0.095,1.042-0.294  c2.756-1.686,4.942-3.635,6.498-5.795C70.121,40.175,71,37.621,71,34.988C71,27.281,63.406,20.381,51.653,17.409z"
       id="path13" />
  </g>
  <g
     id="SvgjsG4203"
     featurekey="j7RXiA-0"
     transform="matrix(4.980433940887451,0,0,4.980433940887451,0,96.61152771361897)"
     fill="#ffffff">
    <path
       d="M1.9 8.2 l-1.9 0 l1.3 -2.5 l3.28 0 l4.74 7.84 l0.12 0.34 l0 -8.18 l3.12 0 l0 14.3 l-2.66 0 l-4.8 -7.9 l-0.1 -0.3 l0 8.2 l-3.1 0 l0 -11.8 z M19.84 9.44 c0.69334 0 1.34 0.09668 1.94 0.29002 s1.1167 0.50334 1.55 0.93 s0.77334 0.98 1.02 1.66 s0.37 1.5 0.37 2.46 s-0.12334 1.78 -0.37 2.46 s-0.58666 1.2333 -1.02 1.66 s-0.95 0.73666 -1.55 0.93 s-1.2467 0.29 -1.94 0.29 c-0.70666 0 -1.3567 -0.09666 -1.95 -0.29 s-1.1067 -0.50334 -1.54 -0.93 s-0.77334 -0.98 -1.02 -1.66 s-0.37 -1.5 -0.37 -2.46 c0 -0.94666 0.12334 -1.7567 0.37 -2.43 s0.58666 -1.2267 1.02 -1.66 s0.94668 -0.75 1.54 -0.95 s1.2433 -0.3 1.95 -0.3 z M19.84 17.5 c0.6 0 1.07 -0.2 1.41 -0.6 s0.51 -1.1067 0.51 -2.12 s-0.17 -1.7233 -0.51 -2.13 s-0.81 -0.61 -1.41 -0.61 c-0.58666 0 -1.0567 0.21 -1.41 0.63 s-0.53 1.1233 -0.53 2.11 c0 1.0133 0.17334 1.72 0.52 2.12 s0.82 0.6 1.42 0.6 z M27.14 12.059999999999999 l-1.24 0 l0 -2.52 l1.24 0 l0 -2.84 l3 0 l0 2.84 l2.48 0 l-1.4 2.52 l-1.18 0 l0.1 0.64 l0 3.14 c0 0.34666 0.02334 0.62666 0.07 0.84 s0.12 0.38 0.22 0.5 s0.22666 0.20334 0.38 0.25 s0.33 0.07 0.53 0.07 c0.14666 0 0.32666 -0.01666 0.54 -0.05 s0.44 -0.07 0.68 -0.11 l0.16 1.34 l0.12 1.2 c-0.38666 0.08 -0.74 0.14 -1.06 0.18 s-0.64666 0.06 -0.98 0.06 c-1.24 0 -2.16 -0.28666 -2.76 -0.86 s-0.9 -1.52 -0.9 -2.84 l0 -4.36 z M38.44 9.44 c0.69334 0 1.3166 0.096622 1.87 0.28996 s1.0167 0.50668 1.39 0.94002 s0.66 0.99 0.86 1.67 s0.3 1.5 0.3 2.46 l0 0.31 l-0.04 0.63 l-5.6 0 l-0.42 -0.06 c0.01334 0.38666 0.05668 0.69666 0.13002 0.93 s0.18 0.41668 0.32 0.55002 s0.31 0.22668 0.51 0.28002 s0.42666 0.08668 0.68 0.10002 c0.41334 0.02666 0.77 -0.03334 1.07 -0.18 s0.58334 -0.44666 0.85 -0.9 c0.41334 0.13334 0.79334 0.26 1.14 0.38 c0.29334 0.10666 0.56 0.2 0.8 0.28 s0.36 0.11334 0.36 0.1 c-0.48 1 -1.0633 1.73 -1.75 2.19 s-1.51 0.69 -2.47 0.69 c-0.70666 0 -1.3467 -0.09334 -1.92 -0.28 s-1.06 -0.49 -1.46 -0.91 s-0.71 -0.96666 -0.93 -1.64 s-0.33 -1.4967 -0.33 -2.47 c0 -0.94666 0.11 -1.7567 0.33 -2.43 s0.53 -1.2267 0.93 -1.66 s0.88666 -0.75334 1.46 -0.96 s1.2133 -0.31 1.92 -0.31 z M39.54 13.440000000000001 l0.30004 0.04 c-0.02666 -0.46666 -0.15 -0.83 -0.37 -1.09 s-0.56334 -0.39 -1.03 -0.39 c-0.53334 0 -0.91668 0.13 -1.15 0.39 s-0.37668 0.62334 -0.43002 1.09 c0.06666 -0.01334 0.12666 -0.02334 0.18 -0.03 s0.11334 -0.01 0.18 -0.01 l2.32 0 z M48.379999999999995 12.74 l3.76 -7.02 l3.62 0 l-3.78 6.88 l4.24 7.4 l-3.64 0 z M45.08 8.2 l-1.52 0 l1.3 -2.5 l3.46 0 l0 14.32 l-3.24 0 l0 -11.82 z"
       id="path16" />
  </g>
  <g
     id="SvgjsG4204"
     featurekey="XxmBkf-0"
     transform="matrix(0.7981165051460266,0,0,0.7981165051460266,59.201883542119994,201.317411333666)"
     fill="url(#SvgjsLinearGradient4211)">
    <path
       d="M7.3 20 c-1.18 0 -2.26 -0.28 -3.22 -0.84 c-0.96 -0.58 -1.72 -1.36 -2.26 -2.34 s-0.82 -2.08 -0.82 -3.3 c0 -1.18 0.28 -2.28 0.84 -3.26 c0.56 -0.96 1.34 -1.74 2.3 -2.3 c0.98 -0.56 2.08 -0.84 3.24 -0.84 c0.88 0 1.74 0.2 2.58 0.56 c0.84 0.38 1.56 0.88 2.16 1.52 c0.08 0.1 0.08 0.24 0 0.34 l-1.9 1.56 c-0.06 0.06 -0.12 0.1 -0.2 0.1 s-0.16 -0.04 -0.2 -0.1 c-1.02 -1.24 -2.66 -1.5 -4.04 -0.64 c-1.2 0.74 -1.64 2.1 -1.58 3.46 c0.06 1.38 1.06 2.56 2.38 2.96 c1.2 0.36 2.38 0.08 3.24 -0.84 c0.06 -0.04 0.12 -0.08 0.2 -0.06 c0.08 0 0.14 0.02 0.18 0.08 l1.94 1.36 c0.08 0.1 0.08 0.24 0 0.34 c-0.64 0.68 -1.4 1.24 -2.24 1.64 c-0.86 0.4 -1.74 0.6 -2.6 0.6 z M23.588 20 c-1.2 0 -2.3 -0.28 -3.26 -0.84 c-0.98 -0.56 -1.76 -1.36 -2.34 -2.32 c-0.56 -0.98 -0.84 -2.1 -0.84 -3.3 c0 -1.18 0.28 -2.28 0.84 -3.26 c0.58 -0.98 1.34 -1.76 2.32 -2.32 s2.08 -0.84 3.28 -0.84 c1.18 0 2.28 0.28 3.26 0.84 s1.76 1.34 2.32 2.32 c0.58 0.98 0.86 2.08 0.86 3.26 c0 1.2 -0.28 2.3 -0.86 3.28 c-0.56 0.98 -1.34 1.76 -2.32 2.34 c-0.98 0.56 -2.08 0.84 -3.26 0.84 z M23.628 17.12 c0.58 0 1.12 -0.16 1.6 -0.46 c0.5 -0.32 0.9 -0.74 1.18 -1.3 c0.3 -0.54 0.44 -1.16 0.44 -1.82 c0 -0.64 -0.14 -1.26 -0.44 -1.8 c-0.28 -0.54 -0.68 -0.96 -1.18 -1.28 c-0.48 -0.3 -1.02 -0.46 -1.6 -0.46 c-0.6 0 -1.14 0.16 -1.64 0.46 c-0.52 0.32 -0.92 0.74 -1.22 1.28 c-0.3 0.56 -0.44 1.16 -0.44 1.8 c0 0.66 0.14 1.28 0.44 1.82 c0.32 0.54 0.72 0.98 1.22 1.28 c0.5 0.32 1.04 0.48 1.64 0.48 z M35.236 20 c-0.14 0 -0.26 -0.12 -0.26 -0.26 l0 -11.98 c0 -0.14 0.12 -0.26 0.26 -0.26 l2.6 0 c0.14 0 0.26 0.12 0.26 0.26 l0 11.98 c0 0.14 -0.12 0.26 -0.26 0.26 l-2.6 0 z M43.303999999999995 20 c-0.14 0 -0.26 -0.12 -0.26 -0.26 l0 -11.98 c0 -0.14 0.12 -0.26 0.26 -0.26 l2.36 0 c0.08 0 0.16 0.04 0.22 0.1 l4.6 7.1 l0 -6.94 c0 -0.14 0.12 -0.26 0.26 -0.26 l2.46 0 c0.14 0 0.26 0.12 0.26 0.26 l0 11.98 c0 0.14 -0.12 0.26 -0.26 0.26 l-2.36 0 c-0.08 0 -0.16 -0.04 -0.22 -0.1 l-4.58 -7.06 l0 6.9 c0 0.14 -0.12 0.26 -0.26 0.26 l-2.48 0 z M70 20 c-0.14 0 -0.24 -0.12 -0.24 -0.26 l0 -9.44 l-2.74 0 c-0.14 0 -0.26 -0.1 -0.26 -0.24 l0 -2.3 c0 -0.14 0.12 -0.26 0.26 -0.26 l8.58 0 c0.16 0 0.26 0.12 0.26 0.26 l0 2.3 c0 0.14 -0.1 0.24 -0.26 0.24 l-2.74 0 l0 9.44 c0 0.14 -0.12 0.26 -0.26 0.26 l-2.6 0 z M81.06800000000001 20 c-0.14 0 -0.26 -0.12 -0.26 -0.26 l0 -11.98 c0 -0.14 0.12 -0.26 0.26 -0.26 l2.6 0 c0.14 0 0.26 0.12 0.26 0.26 l0 4.92 l4.52 0 l0 -4.92 c0 -0.14 0.12 -0.26 0.26 -0.26 l2.6 0 c0.14 0 0.26 0.12 0.26 0.26 l0 11.98 c0 0.14 -0.12 0.26 -0.26 0.26 l-2.6 0 c-0.14 0 -0.26 -0.12 -0.26 -0.26 l0 -4.3 l-4.52 0 l0 4.3 c0 0.14 -0.12 0.26 -0.26 0.26 l-2.6 0 z M96.516 20 l0 -11.98 c0 -0.5 0.1 -0.6 0.26 -0.6 l8.76 0 c0.14 0 0.26 0.1 0.26 0.24 l0 2.26 c0 0.14 -0.12 0.26 -0.26 0.26 l-5.92 0 l0 2.08 l3.74 0 c0.14 0 0.26 0.12 0.26 0.26 l0 2.24 c0 0.14 -0.12 0.26 -0.26 0.26 l-3.74 0 l0 2.14 l5.9 0 c0.14 0 0.26 0.12 0.26 0.26 l0 2.24 c0 0.14 -0.12 0.26 -0.26 0.26 l-8.74 0 c-0.16 0 -0.26 -0.12 -0.26 0.08 z M119.352 20 c-0.14 0 -0.26 -0.12 -0.26 -0.26 l0 -11.98 c0 -0.14 0.12 -0.26 0.26 -0.26 l8.26 0 c0.08 0 0.14 0.02 0.18 0.08 c0.06 0.04 0.08 0.1 0.08 0.18 l-0.02 2.24 c0 0.14 -0.12 0.26 -0.26 0.26 l-5.4 0 l0 2.42 l3.4 0 c0.14 0 0.26 0.12 0.26 0.26 l0 2.26 c0 0.14 -0.12 0.26 -0.26 0.26 l-3.4 0 l0 4.28 c0 0.14 -0.1 0.26 -0.24 0.26 l-2.6 0 z M137.64 20 c-1.08 0 -1.86 -0.22 -2.68 -0.66 c-0.8 -0.44 -1.44 -1.06 -1.88 -1.88 c-0.44 -0.8 -0.66 -1.76 -0.66 -2.86 l0 -7.04 c0 -0.14 0.12 -0.24 0.26 -0.24 l2.6 0 c0.14 0 0.24 0.1 0.24 0.24 l0 7.04 c0 0.8 0.22 1.42 0.64 1.86 s0.8 0.66 1.5 0.66 s1.06 -0.22 1.46 -0.64 c0.4 -0.44 0.6 -1.08 0.6 -1.88 l0 -7.04 c0 -0.14 0.12 -0.24 0.26 -0.24 l2.6 0 c0.14 0 0.26 0.1 0.26 0.24 l0 7.04 c0 1.1 -0.22 2.06 -0.66 2.86 c-0.42 0.82 -1.06 1.44 -1.86 1.88 s-1.6 0.66 -2.68 0.66 z M151.028 20 c-0.14 0 -0.24 -0.12 -0.24 -0.26 l0 -9.44 l-2.74 0 c-0.14 0 -0.26 -0.1 -0.26 -0.24 l0 -2.3 c0 -0.14 0.12 -0.26 0.26 -0.26 l8.58 0 c0.16 0 0.26 0.12 0.26 0.26 l0 2.3 c0 0.14 -0.1 0.24 -0.26 0.24 l-2.74 0 l0 9.44 c0 0.14 -0.12 0.26 -0.26 0.26 l-2.6 0 z M167.05599999999998 20 c-1.08 0 -1.86 -0.22 -2.68 -0.66 c-0.8 -0.44 -1.44 -1.06 -1.88 -1.88 c-0.44 -0.8 -0.66 -1.76 -0.66 -2.86 l0 -7.04 c0 -0.14 0.12 -0.24 0.26 -0.24 l2.6 0 c0.14 0 0.24 0.1 0.24 0.24 l0 7.04 c0 0.8 0.22 1.42 0.64 1.86 s0.8 0.66 1.5 0.66 s1.06 -0.22 1.46 -0.64 c0.4 -0.44 0.6 -1.08 0.6 -1.88 l0 -7.04 c0 -0.14 0.12 -0.24 0.26 -0.24 l2.6 0 c0.14 0 0.26 0.1 0.26 0.24 l0 7.04 c0 1.1 -0.22 2.06 -0.66 2.86 c-0.42 0.82 -1.06 1.44 -1.86 1.88 s-1.6 0.66 -2.68 0.66 z M177.46399999999997 20 c-0.16 0 -0.26 -0.12 -0.26 -0.26 l0 -11.98 c0 -0.14 0.1 -0.26 0.26 -0.26 l4.88 0 c1.52 0 2.72 0.38 3.56 1.16 c1.24 1.12 1.66 3.24 1.06 4.8 c-0.22 0.56 -0.6 1.08 -1.08 1.46 c-0.28 0.22 -0.58 0.38 -0.88 0.54 c0.86 1.36 2.16 4.12 2.16 4.12 c0.02 0.04 0.06 0.1 0.06 0.16 c0 0.14 -0.12 0.26 -0.26 0.26 l-2.96 0 c-0.08 0 -0.18 -0.06 -0.22 -0.14 l-1.74 -3.82 c-0.62 0.04 -1.1 0.02 -1.74 0.02 l0 3.68 c0 0.14 -0.12 0.26 -0.26 0.26 l-2.58 0 z M180.30399999999997 13.280000000000001 c0 0 2.52 0.28 3.4 -0.3 c0.34 -0.22 0.54 -0.76 0.54 -1.16 c-0.02 -0.44 -0.24 -0.9 -0.6 -1.18 c-0.38 -0.32 -1.32 -0.42 -1.8 -0.42 l-1.54 0.04 l0 3.02 z M192.19199999999998 20 l0 -11.98 c0 -0.5 0.1 -0.6 0.26 -0.6 l8.76 0 c0.14 0 0.26 0.1 0.26 0.24 l0 2.26 c0 0.14 -0.12 0.26 -0.26 0.26 l-5.92 0 l0 2.08 l3.74 0 c0.14 0 0.26 0.12 0.26 0.26 l0 2.24 c0 0.14 -0.12 0.26 -0.26 0.26 l-3.74 0 l0 2.14 l5.9 0 c0.14 0 0.26 0.12 0.26 0.26 l0 2.24 c0 0.14 -0.12 0.26 -0.26 0.26 l-8.74 0 c-0.16 0 -0.26 -0.12 -0.26 0.08 z"
       id="path19" />
  </g>
</svg>
