<?xml version="1.0" encoding="UTF-8" standalone="no"?>
<!-- Created with Inkscape (http://www.inkscape.org/) -->

<svg
   width="300mm"
   height="300mm"
   viewBox="0 0 300 300"
   version="1.1"
   id="svg12629"
   xmlns:xlink="http://www.w3.org/1999/xlink"
   xmlns="http://www.w3.org/2000/svg"
   xmlns:svg="http://www.w3.org/2000/svg">
  <defs
     id="defs12626">
    <linearGradient
       id="SvgjsLinearGradient4208"
       x1="0"
       y1="0"
       x2="1"
       y2="0"
       gradientUnits="objectBoundingBox"
       spreadMethod="pad">
      <stop
         id="SvgjsStop4209"
         stop-color="#00ff8f"
         offset="0" />
      <stop
         id="SvgjsStop4210"
         stop-color="#00a1ff"
         offset="1" />
    </linearGradient>
    <linearGradient
       id="SvgjsLinearGradient4211">
      <stop
         id="SvgjsStop4212"
         stop-color="#00ff8f"
         offset="0" />
      <stop
         id="SvgjsStop4213"
         stop-color="#00a1ff"
         offset="1" />
    </linearGradient>
    <linearGradient
       xlink:href="#SvgjsLinearGradient4208"
       id="linearGradient7989"
       x1="48.473209"
       y1="149.40659"
       x2="103.15172"
       y2="149.40659"
       gradientUnits="userSpaceOnUse" />
  </defs>
  <g
     id="g843"
     transform="matrix(1.0627293,0,0,1.0627293,37.119428,-11.610701)">
    <path
       style="fill:#e6e6e6;fill-opacity:1;stroke:none;stroke-width:0.212815px;stroke-linecap:butt;stroke-linejoin:miter;stroke-opacity:1"
       d="M -17.529597,139.07957 C -8.8666941,105.85689 -2.1958792,69.360375 26.667586,43.998531 45.368536,26.739697 77.610201,21.956732 101.49653,33.962826 c 28.73717,11.967184 53.68152,34.644165 87.72088,34.018502 29.5733,3.01956 49.03292,27.468709 55.06237,50.897752 6.52921,25.01828 1.33332,53.14878 -16.73357,73.76572 -24.83455,29.40902 -36.58106,48.08991 -93.30338,73.23181 C 87.488211,282.03328 41.445369,278.45015 0.35301624,261.36061 -29.916862,246.90188 -38.382196,213.33885 -32.450764,185.91201 c 2.788918,-16.06087 8.716987,-31.55027 14.921167,-46.83244 z"
       id="path6228" />
    <g
       id="g837">
      <path
         id="path12762-7"
         style="fill:#00acf1;fill-opacity:1;stroke:url(#linearGradient7989);stroke-width:0.343597"
         d="m 66.718435,61.510317 c -8.185467,0.0088 -12.075253,0.10854 -12.844127,0.315578 -1.895506,0.510413 -4.497446,3.08098 -5.016555,4.956157 -0.209269,0.755913 -0.381626,3.974312 -0.38252,7.152125 -0.0023,6.946868 0.274451,7.783786 2.574965,7.783786 2.295372,0 2.576979,-0.842801 2.576979,-7.713319 0,-5.601758 0.01582,-5.723437 0.84356,-6.551171 l 0.843053,-0.843055 h 20.394877 c 20.049814,0 20.407575,0.0114 21.146842,0.700115 0.738157,0.687675 0.752455,0.873559 0.752455,10.085448 v 9.375781 c 0.0029,9.91e-4 0.0058,0.0019 0.0078,0.0039 0.0058,0.0029 0.0068,0.0029 0.01257,0.0058 h 5.523386 c -0.007,-0.02172 -0.0109,-0.04373 -0.013,-0.06545 l -0.20535,-0.0049 -0.17163,-9.964656 -0.17214,-9.96415 -0.95377,-1.6232 c -0.61872,-1.052333 -1.52463,-1.958229 -2.577054,-2.576878 l -1.62319,-0.953787 -21.05675,-0.09613 c -3.726503,-0.01705 -6.932161,-0.02445 -9.660649,-0.02162 z m -3.828727,7.152124 c -2.578665,0.04207 -5.095492,1.762255 -5.853065,4.575645 -0.67553,2.508739 0.384915,5.085618 2.748612,6.678508 1.374699,0.926407 4.314368,1.069173 5.833938,0.283368 4.004058,-2.070498 4.515153,-7.407296 0.982474,-10.261115 -1.038773,-0.839149 -2.251338,-1.24406 -3.462314,-1.275403 -0.08326,-0.0019 -0.166462,-0.0019 -0.249645,-9.91e-4 z m 25.456733,0.0058 c -0.05922,1.56e-4 -0.118377,9.91e-4 -0.177673,0.0029 -0.862398,0.02893 -1.73325,0.251861 -2.571444,0.679476 -4.25804,2.172289 -4.380177,8.158865 -0.217928,10.696979 1.468124,0.895231 4.358195,0.86832 6.00255,-0.05591 2.034919,-1.143731 2.961512,-2.813 2.961512,-5.336155 0,-1.87395 -0.131253,-2.30549 -1.054953,-3.461308 -1.324199,-1.656948 -3.106878,-2.531054 -4.942064,-2.526145 z m 0.02415,5.174085 c 0.368904,-0.01052 0.737437,0.162965 0.876774,0.52547 0.114111,0.298144 -0.01383,0.763276 -0.284372,1.033808 -0.663258,0.663259 -1.8111,-0.103456 -1.473208,-0.983979 0.142308,-0.370744 0.511767,-0.56476 0.880806,-0.575299 z m -25.576019,0.0039 c 0.03393,-2.15e-4 0.06795,9.91e-4 0.101669,0.0039 0.449694,0.04052 0.867217,0.365767 0.867217,0.839539 0,0.446568 -0.267748,0.720236 -0.774605,0.792213 -0.861473,0.122351 -1.431125,-0.790509 -0.853624,-1.368008 0.18378,-0.18378 0.4219,-0.266247 0.659343,-0.267766 z m 12.735921,8.226206 c -9.928437,0 -10.140757,0.01461 -11.255162,0.773093 -0.624751,0.4252 -1.459396,1.209485 -1.854722,1.74298 -0.717995,0.968874 -0.71864,1.015088 -0.808829,39.375955 l -0.0906,38.40555 0.71672,0.911 c 0.905097,1.15066 2.522827,1.22353 3.650555,0.16409 l 0.79524,-0.74743 v -21.55651 -21.55704 l 0.03323,0.0126 V 96.476864 l -0.05234,0.03224 0.09562,-4.727653 0.09563,-4.727146 h 17.523458 v 0.808829 1.35896 c 1.258222,-0.392931 3.091869,-0.921099 5.327107,-1.536623 7.92e-4,-0.0049 9.91e-4,-0.0088 0.0019,-0.01364 0.01393,-0.06808 0.03925,-0.206892 0.08201,-0.34729 -0.05367,-0.1007 -0.08561,-0.235703 -0.08561,-0.454497 0,-1.286321 -1.587903,-3.627186 -2.874945,-4.237928 -1.00802,-0.478312 -2.657284,-0.559688 -11.299426,-0.559688 z M 51.05019,88.910515 c -0.68618,0 -1.372364,0.313173 -1.864789,0.939186 l -0.712192,0.904961 0.002,69.961978 c 0.0013,49.1776 0.112769,70.35976 0.374467,71.3023 0.479586,1.72729 2.846232,4.21849 4.605848,4.84796 1.145241,0.40978 4.926288,0.47904 22.677416,0.41573 l 21.302864,-0.076 1.623199,-0.95429 c 1.052437,-0.61857 1.958327,-1.52455 2.576977,-2.57698 l 0.95379,-1.62269 0.17213,-9.96465 0.16761,-9.72206 h -5.321566 l -5.06e-4,-0.31961 v 9.38835 c 0,9.21547 -0.01383,9.40131 -0.751959,10.08899 -0.739258,0.6887 -1.097019,0.70061 -21.146833,0.70061 H 55.31379 l -0.843053,-0.84355 -0.84356,-0.84307 v -69.8915 -69.891519 l -0.712192,-0.90496 C 52.422564,89.223729 51.73638,88.910556 51.050198,88.910556 Z M 97.607458,212.04616 c 0,0 -0.261065,-0.0258 -0.451477,-0.0452 -7.93e-4,0.003 -0.0019,0.006 -0.0029,0.009 z M 64.049849,171.25389 c -0.899644,0.0675 -1.780337,0.57174 -2.155203,1.47673 -0.268173,0.64747 -0.353121,6.79954 -0.286889,20.73311 0.09263,19.49026 0.105759,19.82836 0.812856,20.78243 0.395326,0.53341 1.229971,1.31778 1.854722,1.74298 1.114414,0.75858 1.326725,0.7731 11.255162,0.7731 8.642133,0 10.291406,-0.0818 11.299443,-0.56019 1.287042,-0.61074 2.874945,-2.9511 2.874945,-4.23742 0,-0.22385 0.03165,-0.36283 0.08552,-0.46557 -0.04578,-0.1062 -0.05669,-0.22931 -0.05591,-0.35232 -1.940921,-0.27617 -3.871391,-0.5899 -5.355283,-0.98247 v 0.80732 0.80832 l -8.612748,0.0916 c -4.052483,0.0431 -7.531596,0.002 -8.539272,-0.0916 H 66.85575 v -0.303 c -0.09868,-0.64059 -0.171633,-2.47052 -0.171633,-4.56154 v -4.57767 l 0.0297,0.0181 v -23.11682 l -0.03021,0.0116 v -3.08533 c 0,-1.69681 -0.163938,-3.39174 -0.364401,-3.76632 -0.451224,-0.84311 -1.369819,-1.2125 -2.269453,-1.14505 z m 28.37244,40.3091 c 0.03107,0.004 0.0599,0.007 0.08961,0.01 -0.0019,-0.003 -0.0029,-0.007 -0.0049,-0.01 z M 62.9043,218.1368 c -2.741286,0 -4.568676,1.26358 -5.682945,3.9304 -1.092832,2.6155 0.1046,5.78125 2.772768,7.3313 1.992524,1.15754 4.814242,0.94512 6.598478,-0.49627 4.592295,-3.70986 2.175002,-10.76543 -3.688301,-10.76543 z m 25.464785,0 c -2.077559,0 -3.377867,0.58009 -4.626982,2.0646 -2.466323,2.93105 -1.591312,7.48301 1.781228,9.26454 3.75839,1.98536 8.506117,-0.55325 8.910717,-4.76489 0.352121,-3.66461 -2.327025,-6.56425 -6.064963,-6.56425 z m 0.03672,5.04575 c 0.195633,0.008 0.391353,0.0839 0.557173,0.24963 0.270677,0.27066 0.398775,0.73619 0.284372,1.03432 -0.27844,0.72561 -1.472974,0.69133 -1.75758,-0.0504 -0.253419,-0.66039 0.329126,-1.25653 0.916035,-1.23362 z m -25.611252,0.12833 c 0.03393,-2.1e-4 0.06794,6.6e-4 0.101669,0.004 0.449694,0.0405 0.867217,0.36576 0.867217,0.83953 0,0.44657 -0.267748,0.72024 -0.774605,0.79222 -0.861474,0.12234 -1.431125,-0.79051 -0.853624,-1.36802 0.183779,-0.18378 0.4219,-0.26624 0.659343,-0.26776 z" />
      <path
         id="path12762"
         style="fill:#000000;stroke-width:0.343597"
         d="m 102.93134,86.599823 c -0.74763,0.0053 -1.53545,0.01955 -2.36875,0.04814 -1.092163,0.03747 -2.076273,0.07974 -2.954955,0.123592 v 0.0096 l -2.867211,0.220212 c -1.576899,0.121212 -3.354864,0.318083 -3.951209,0.437355 -0.314749,0.06295 -0.51629,0.08273 -0.676345,0.07784 -3.214408,0.466394 -6.416753,1.380566 -8.478044,2.041668 -0.291471,0.09826 -0.497133,0.173606 -0.855588,0.290886 -1.979884,0.647774 -5.215325,1.949776 -7.190222,2.89316 -1.974898,0.943393 -4.341048,2.1768 -5.257808,2.740888 l -1.559247,0.959379 v 7.653867 c 0.09537,-1.50659 0.224235,-1.67609 1.973385,-2.86857 2.833774,-1.93194 9.71826,-5.249289 13.339467,-6.427508 5.921193,-1.926564 9.286864,-2.473475 16.40231,-2.665776 0.921754,-0.02491 1.790347,-0.03984 2.616267,-0.04336 5.7815,-0.02469 9.4821,0.504664 14.83692,2.00855 18.8084,5.282295 34.10753,20.472894 39.53086,39.250214 3.97058,13.74748 2.6104,28.99193 -3.70812,41.56229 -8.08157,16.07783 -22.65885,27.28165 -40.1833,30.88449 -9.2355,1.89872 -20.302401,1.23652 -29.486744,-1.76478 -3.87467,-1.26619 -9.957112,-4.18719 -13.003854,-6.24484 -2.108608,-1.42407 -2.22256,-1.55412 -2.317191,-3.07137 v 7.67605 l 1.569148,0.96519 c 2.873546,1.76811 8.703196,4.4059 12.438129,5.6279 0.615499,0.20138 1.043946,0.35024 1.469112,0.49949 1.81685,0.57977 4.555379,1.38365 6.971034,1.81087 h 0.695806 v 0.0488 c 0.139938,-0.0651 0.361871,-0.0511 0.741897,0.0249 0.246263,0.0493 1.200804,0.13067 1.857987,0.20416 0.415209,-0.0285 0.766586,0.0156 1.063169,0.11677 0.423102,0.0406 0.600279,0.0781 1.030393,0.11301 l 1.393319,0.113 c 0.947443,0.0359 2.454989,0.0842 5.019495,0.15125 0.86026,0.0225 1.52434,0.0385 2.10517,0.0519 l 1.23901,-0.028 -0.002,-0.014 c 0,0 0.13989,0.007 0.19631,0.01 l 7.65114,-0.17412 c 11.67214,-0.26546 16.10537,-1.04864 24.3952,-4.31038 17.18464,-6.76148 30.81978,-21.43866 36.53664,-39.32874 2.24511,-7.02578 2.60859,-9.61597 2.62173,-18.68467 0.0106,-7.28896 -0.0805,-8.70204 -0.78321,-12.17217 -0.96358,-4.75822 -2.70141,-10.05819 -4.70095,-14.33708 -1.22757,-2.62695 -1.65172,-3.22485 -2.42508,-3.41894 -1.31038,-0.3289 -2.64881,0.22811 -3.1721,1.31991 -0.39399,0.82204 -0.32883,1.19419 0.58519,3.34212 l 1.02834,2.41723 H 162.361 c -2.91811,0 -3.93728,-0.11108 -3.93926,-0.4295 -0.006,-0.86672 -3.74312,-8.07992 -5.78495,-11.16704 l -2.1021,-3.17824 h 3.22365 3.22331 l 1.20247,1.20247 c 1.4437,1.44371 2.66604,1.55727 3.86414,0.35917 1.65449,-1.65449 1.08134,-2.81638 -3.88838,-7.88467 -7.86658,-8.022616 -16.7083,-13.328829 -27.31909,-16.394799 -6.16375,-1.781005 -8.72248,-2.100407 -18.62971,-2.325727 l -1.96485,-0.04472 -0.002,0.01605 c 0,0 -0.0709,-0.0079 -0.19665,-0.02049 l -7.11375,-0.161831 z m -2.86551,8.272169 c -11.003804,0.067 -23.006277,3.806028 -31.219767,9.919848 -0.984028,0.73247 -1.881054,1.33186 -1.993527,1.33186 -0.03974,0 -0.05915,-0.19966 -0.08057,-0.37453 v 13.86763 l 0.93548,0.35337 c 1.456781,0.54987 2.884982,-0.52445 3.034507,-2.28271 0.09374,-1.10228 -0.106525,-1.47843 -1.664062,-3.12532 -0.973837,-1.02969 -1.680953,-2.01737 -1.571198,-2.19496 0.414165,-0.67014 5.343177,-4.24516 5.692431,-4.12875 0.20079,0.0669 0.875034,0.97055 1.498133,2.00821 1.439518,2.39727 2.480534,3.04007 3.943014,2.4343 0.645994,-0.26758 1.190662,-0.8246 1.403562,-1.43532 0.299007,-0.85773 0.172169,-1.3396 -0.902363,-3.4285 -1.430592,-2.78106 -1.572252,-2.51231 2.145457,-4.06421 3.619639,-1.51095 3.61672,-1.51132 4.182006,0.48105 0.831659,2.93118 1.168967,3.53496 2.219206,3.96999 1.278373,0.52951 2.539653,0.0307 3.115079,-1.23217 0.31925,-0.70067 0.281879,-1.378 -0.184024,-3.31925 -0.321928,-1.34136 -0.530066,-2.4942 -0.462277,-2.56199 0.154599,-0.1546 3.264227,-0.68557 5.646681,-0.96415 l 1.804042,-0.210999 v 2.542529 c 0,3.13173 0.726373,4.35305 2.58862,4.35305 1.95154,0 2.5654,-1.00495 2.5654,-4.19976 v -2.695819 l 1.8037,0.210999 c 2.66183,0.31124 5.499,0.81614 5.69687,1.014 0.0953,0.0953 -0.11175,1.31826 -0.46023,2.71767 -0.59668,2.39647 -0.59965,2.59613 -0.0529,3.43055 0.7424,1.13303 2.14239,1.49815 3.28477,0.85696 0.86985,-0.48824 1.40446,-1.59294 2.09663,-4.33394 l 0.36703,-1.45307 2.15911,0.81292 c 1.18754,0.44698 2.81415,1.1468 3.61457,1.55514 l 1.45512,0.74224 -0.76682,1.27246 c -0.42178,0.69978 -0.97101,1.57706 -1.22057,1.94983 -0.77198,1.15312 -0.56588,2.79194 0.4517,3.59238 1.80826,1.42238 3.02688,0.83016 4.8044,-2.33461 0.5446,-0.96959 1.12606,-1.76288 1.29192,-1.76307 0.38238,-5.2e-4 4.68671,3.18011 5.45993,4.03452 0.55282,0.61086 0.49068,0.72994 -1.30216,2.50053 -1.30716,1.29091 -1.88257,2.12799 -1.88257,2.73918 0,1.88559 1.93707,3.19005 3.52888,2.37625 0.42132,-0.21539 1.48579,-1.08769 2.36533,-1.93856 l 1.59919,-1.54729 2.26632,2.86618 c 1.24646,1.57633 2.26632,2.97971 2.26632,3.1185 0,0.1388 -0.73432,0.67119 -1.63197,1.183 -2.49622,1.42328 -3.17858,2.15884 -3.17858,3.42816 0,0.7983 0.25886,1.3214 0.90543,1.82999 1.24495,0.97928 1.91984,0.90175 4.30253,-0.49471 1.13261,-0.6638 2.18651,-1.12823 2.3421,-1.0321 0.33412,0.2065 2.75796,5.90632 2.75796,6.48554 0,0.21904 -1.19811,0.78328 -2.6627,1.25402 -2.24608,0.72193 -2.71374,1.00363 -2.98705,1.80063 -0.45572,1.32888 0.11904,2.74631 1.27928,3.15434 0.85097,0.29927 3.96514,-0.0935 5.54357,-0.69922 0.33517,-0.12861 0.55831,0.51491 0.84399,2.43566 0.21355,1.43585 0.38819,3.22281 0.38819,3.97101 v 1.36055 h -2.72382 c -2.53337,0 -2.77368,0.0631 -3.43601,0.90509 -0.89837,1.14209 -0.89837,1.8576 0,2.99968 0.66233,0.84204 0.90264,0.90544 3.43601,0.90544 h 2.72382 v 1.3602 c 0,0.7482 -0.17464,2.53516 -0.38819,3.97101 -0.28568,1.92076 -0.50882,2.56462 -0.84399,2.436 -1.57843,-0.60574 -4.6926,-0.99849 -5.54357,-0.69922 -1.16024,0.40804 -1.735,1.82513 -1.27928,3.154 0.27331,0.797 0.74097,1.07871 2.98705,1.80063 1.46459,0.47075 2.6627,1.03533 2.6627,1.25437 0,0.57922 -2.42384,6.27904 -2.75796,6.48554 -0.15559,0.0961 -1.20949,-0.3683 -2.3421,-1.03211 -2.38269,-1.39645 -3.05758,-1.47398 -4.30253,-0.49471 -0.64657,0.50859 -0.90543,1.03136 -0.90543,1.82965 0,1.26933 0.68236,2.00523 3.17858,3.4285 0.89765,0.51182 1.63197,1.04421 1.63197,1.18301 0,0.13881 -1.01986,1.54182 -2.26632,3.11815 l -2.26632,2.86619 -1.59919,-1.54696 c -0.87954,-0.85087 -1.94401,-1.72316 -2.36533,-1.93856 -1.59181,-0.8138 -3.52888,0.49033 -3.52888,2.37592 0,0.61118 0.57541,1.44826 1.88257,2.73918 1.79284,1.77058 1.85498,1.88966 1.30216,2.50053 -0.77323,0.8544 -5.07755,4.0352 -5.45993,4.03485 -0.16586,-1.7e-4 -0.74732,-0.79382 -1.29192,-1.76341 -1.77752,-3.16476 -2.99614,-3.75699 -4.8044,-2.3346 -1.01758,0.80043 -1.22368,2.43926 -0.4517,3.59238 0.24956,0.37277 0.79879,1.25039 1.22057,1.95016 l 0.76682,1.27212 -1.45512,0.74258 c -0.80042,0.40835 -2.42703,1.10816 -3.61457,1.55515 l -2.15911,0.81257 -0.36703,-1.45307 c -0.69217,-2.741 -1.22678,-3.84569 -2.09663,-4.33393 -1.14238,-0.6412 -2.54237,-0.27573 -3.28477,0.85729 -0.5468,0.83443 -0.54383,1.03374 0.0529,3.43021 0.34848,1.39941 0.55558,2.62232 0.46023,2.71767 -0.19787,0.19787 -3.03504,0.7031 -5.69688,1.01435 l -1.8037,0.211 v -2.69583 c 0,-3.19479 -0.61386,-4.2001 -2.5654,-4.2001 -1.862237,0 -2.58862,1.22166 -2.58861,4.3534 v 2.54253 l -1.804042,-0.211 c -2.382454,-0.27859 -5.492082,-0.80956 -5.646681,-0.96416 -0.06778,-0.0678 0.140349,-1.22062 0.462277,-2.56198 0.465903,-1.94126 0.503264,-2.61858 0.184024,-3.31925 -0.575426,-1.26295 -1.836716,-1.76203 -3.115079,-1.23251 -1.050239,0.43502 -1.387547,1.03881 -2.219206,3.96998 -0.565295,1.99238 -0.562374,1.99201 -4.182006,0.48106 -3.718363,-1.55218 -3.576575,-1.28175 -2.139994,-4.07446 1.338749,-2.60254 1.333918,-3.67042 -0.02117,-4.69993 -1.461055,-1.11005 -2.966852,-0.29557 -4.540833,2.45546 -0.593718,1.03771 -1.250928,1.88666 -1.460236,1.88666 -0.401333,0 -5.276105,-3.62847 -5.618002,-4.18166 -0.109755,-0.1776 0.597359,-1.16528 1.571198,-2.19496 1.557537,-1.64689 1.757806,-2.02304 1.664062,-3.12533 -0.149525,-1.75825 -1.577726,-2.83257 -3.034507,-2.2827 l -0.93548,0.35302 v 13.86354 c 0.02142,-0.17301 0.04084,-0.37043 0.08057,-0.37043 0.112435,0 1.009459,0.59339 1.993527,1.31854 8.974799,6.61347 22.594956,10.58168 33.952808,9.89185 20.23686,-1.2291 37.16817,-12.29838 46.21749,-30.216 4.39844,-8.70888 6.19581,-17.78827 5.57327,-28.15317 -1.15197,-19.17955 -13.15511,-36.87705 -30.69671,-45.25914 -6.40636,-3.061206 -11.74557,-4.51393 -19.18622,-5.22059 -1.51725,-0.144097 -3.0689,-0.209299 -4.64087,-0.199728 z m 31.94186,0.172074 c 0.314,-0.0072 1.6004,0.482822 3.9816,1.467406 4.9533,2.048107 10.68367,5.604208 14.87584,9.231208 l 1.2028,1.0403 h -2.92081 -2.92047 l -2.68831,-2.56267 c -3.07211,-2.92829 -5.73613,-5.037086 -9.67676,-7.660015 -1.50928,-1.004574 -2.1679,-1.509027 -1.85389,-1.516229 z m -31.44715,21.814094 c -0.901816,-0.0177 -1.804917,0.0462 -2.695819,0.19598 -6.647468,1.1175 -11.781355,6.18675 -13.002148,12.83792 -1.055527,5.75079 1.794945,12.32182 6.681172,15.40196 l 1.907492,1.20247 0.01433,7.55895 0.014,7.55929 -2.44966,0.59099 c -6.602587,1.59266 -10.945798,5.26317 -10.945798,9.25102 0,4.96987 5.982908,9.07326 14.936951,10.24418 10.86224,1.42047 21.82686,-1.81074 24.60176,-7.24997 0.78217,-1.53321 0.85846,-3.96987 0.17582,-5.60366 -1.15377,-2.76142 -4.89041,-5.22087 -9.97686,-6.56645 l -2.76547,-0.73166 -0.0925,-7.4176 -0.0925,-7.41761 1.90066,-1.26187 c 8.2796,-5.49569 9.42249,-17.06832 2.38104,-24.10978 -2.79766,-2.79766 -6.68455,-4.40734 -10.59244,-4.48416 z m -0.16797,5.1547 c 2.60272,0.0326 5.22373,1.03524 7.28786,3.09938 5.01699,5.01697 3.35509,13.957 -3.12771,16.82464 -2.02445,0.89551 -5.578634,1.11267 -7.572607,0.46262 -5.946575,-1.93871 -8.905716,-9.03845 -6.086083,-14.60271 1.929615,-3.80791 5.694551,-5.83167 9.49854,-5.78393 z m 64.00697,9.88058 h 3.91399 l 0.71391,2.66305 c 0.89171,3.3261 1.76313,8.67054 1.76512,10.82323 h 7e-4 l 7e-4,1.63231 h -3.91639 -3.91672 l -0.22773,-2.49132 c -0.28609,-3.13009 -1.44308,-9.87019 -1.90134,-11.07553 -0.19015,-0.5001 -0.34586,-1.05379 -0.34586,-1.23047 0,-0.18045 1.71525,-0.32127 3.91365,-0.32127 z m -65.761171,16.14932 h 1.723131 1.72312 l -0.0912,10.39373 -0.0908,10.39373 -1.63197,0.10482 -1.632311,0.10481 v -10.49854 z m 64.321761,3.77948 h 3.91638 3.91673 l -7e-4,1.63197 c -0.002,2.15269 -0.87341,7.49747 -1.76512,10.82357 l -0.71459,2.6627 h -3.91397 c -2.1984,0 -3.91365,-0.14082 -3.91365,-0.32127 0,-0.17667 0.15571,-0.73036 0.34585,-1.23046 0.45827,-1.20535 1.61526,-7.94544 1.90135,-11.07554 z m -56.0752,15.03221 0.95358,0.19085 c 3.96611,0.79322 8.07182,3.59312 7.32235,4.99355 -1.0503,1.9625 -4.29128,3.49615 -9.19536,4.35135 -7.215937,1.25834 -15.963352,-0.0752 -19.474372,-2.9693 -0.794239,-0.65468 -1.252997,-1.32911 -1.252997,-1.84194 0,-1.50278 3.453633,-3.65917 7.129792,-4.45206 l 1.11643,-0.24104 v 2.04269 c 0,2.42984 0.738316,3.597 2.893843,4.576 3.008049,1.36619 8.619654,0.46323 9.974814,-1.605 0.33463,-0.51071 0.53192,-1.5965 0.53192,-2.92832 z m 55.4866,5.24005 h 3.94677 l -0.80335,1.8037 c -1.20738,2.71098 -3.7964,6.95921 -6.17315,10.12913 v 7e-4 l -2.11985,2.82761 -3.34383,0.007 -3.34383,0.007 2.1021,-3.17858 c 2.04183,-3.08712 5.77815,-10.29997 5.78496,-11.1667 0.002,-0.31849 1.02329,-0.4295 3.95018,-0.4295 z m -16.04895,19.92845 2.87268,0.007 2.87267,0.007 -1.50905,1.28168 c -4.51278,3.83319 -11.31213,7.85562 -16.71915,9.89082 v -3.5e-4 c -1.22747,0.46202 -2.34385,0.84023 -2.48107,0.84023 -0.13724,0 0.98928,-0.8119 2.50326,-1.80405 3.80376,-2.49265 6.48715,-4.60239 9.71056,-7.63474 z" />
    </g>
  </g>
</svg>
