<?xml version="1.0" encoding="UTF-8" standalone="no"?>
<!-- Created with Inkscape (http://www.inkscape.org/) -->

<svg
   width="300mm"
   height="300mm"
   viewBox="0 0 300 300"
   version="1.1"
   id="svg12629"
   xmlns:xlink="http://www.w3.org/1999/xlink"
   xmlns="http://www.w3.org/2000/svg"
   xmlns:svg="http://www.w3.org/2000/svg">
  <defs
     id="defs12626">
    <linearGradient
       id="SvgjsLinearGradient4208"
       x1="0"
       y1="0"
       x2="1"
       y2="0"
       gradientUnits="objectBoundingBox"
       spreadMethod="pad">
      <stop
         id="SvgjsStop4209"
         stop-color="#00ff8f"
         offset="0" />
      <stop
         id="SvgjsStop4210"
         stop-color="#00a1ff"
         offset="1" />
    </linearGradient>
    <linearGradient
       id="SvgjsLinearGradient4211">
      <stop
         id="SvgjsStop4212"
         stop-color="#00ff8f"
         offset="0" />
      <stop
         id="SvgjsStop4213"
         stop-color="#00a1ff"
         offset="1" />
    </linearGradient>
    <linearGradient
       xlink:href="#SvgjsLinearGradient4208"
       id="linearGradient7989"
       x1="48.473209"
       y1="149.40659"
       x2="103.15172"
       y2="149.40659"
       gradientUnits="userSpaceOnUse"
       gradientTransform="matrix(1.0627293,0,0,1.0627293,37.119428,-11.610701)" />
  </defs>
  <path
     style="fill:#e6e6e6;fill-opacity:1;stroke:none;stroke-width:0.226165px;stroke-linecap:butt;stroke-linejoin:miter;stroke-opacity:1"
     d="M 18.490212,136.19323 C 27.696532,100.88652 34.785803,62.100602 65.459853,35.147827 85.333901,16.806358 119.59806,11.723361 144.98276,24.482589 c 30.53984,12.717877 57.04893,36.81737 93.22355,36.152459 31.42842,3.208975 52.10872,29.191802 58.5164,54.090532 6.93878,26.58766 1.41696,56.48277 -17.78326,78.39299 -26.3924,31.25383 -38.87576,51.10656 -99.15623,77.82559 C 130.09571,288.11433 81.164636,284.30643 37.494589,266.14488 5.3259022,250.77916 -3.6704563,215.11075 2.6330503,185.96344 5.5969152,168.89508 11.896848,152.43404 18.490212,136.19323 Z"
     id="path6228" />
  <path
     id="path12762-7"
     style="fill:#00acf1;fill-opacity:1;stroke:url(#linearGradient7989);stroke-width:0.365151"
     d="m 108.02306,53.758115 c -8.698932,0.0094 -12.832721,0.115349 -13.649826,0.335374 -2.01441,0.542431 -4.779568,3.274248 -5.33124,5.267053 -0.222397,0.803331 -0.405565,4.223618 -0.406516,7.600773 -0.0024,7.38264 0.291668,8.272058 2.736491,8.272058 2.439359,0 2.738631,-0.89567 2.738631,-8.19717 0,-5.953153 0.01681,-6.082465 0.896476,-6.962122 l 0.895937,-0.895939 h 21.674237 c 21.30752,0 21.68772,0.01212 22.47337,0.744033 0.78446,0.730812 0.79965,0.928356 0.79965,10.718101 v 9.963917 c 0.003,0.0011 0.006,0.002 0.008,0.0041 0.006,0.0031 0.007,0.0031 0.0134,0.0062 h 5.86986 c -0.007,-0.02308 -0.0116,-0.04647 -0.0138,-0.06956 l -0.21823,-0.0052 -0.1824,-10.589732 -0.18294,-10.589194 -1.0136,-1.725022 c -0.65753,-1.118345 -1.62027,-2.081067 -2.73871,-2.738524 l -1.72501,-1.013617 -22.37763,-0.10216 c -3.96026,-0.01812 -7.36701,-0.02598 -10.26665,-0.02298 z m -4.0689,7.600772 c -2.74042,0.04471 -5.415125,1.8728 -6.22022,4.862672 -0.717906,2.66611 0.40906,5.404635 2.92103,7.097446 1.46093,0.98452 4.58501,1.136241 6.1999,0.301143 4.25523,-2.200378 4.79838,-7.87195 1.0441,-10.904787 -1.10393,-0.891788 -2.39256,-1.322099 -3.6795,-1.355408 -0.0885,-0.002 -0.17691,-0.002 -0.26531,-0.0011 z m 27.05362,0.0062 c -0.0629,1.65e-4 -0.1258,0.0011 -0.18882,0.0031 -0.91649,0.03074 -1.84197,0.26766 -2.73275,0.722099 -4.52514,2.308555 -4.65494,8.670665 -0.2316,11.367993 1.56022,0.951388 4.63159,0.922789 6.37909,-0.05942 2.16257,-1.215476 3.14729,-2.989457 3.14729,-5.670888 0,-1.991501 -0.13949,-2.450112 -1.12113,-3.678433 -1.40727,-1.760887 -3.30177,-2.689825 -5.25208,-2.684609 z m 0.0257,5.498651 c 0.39205,-0.01118 0.7837,0.173188 0.93178,0.558433 0.12127,0.316846 -0.0147,0.811156 -0.30221,1.098658 -0.70487,0.704865 -1.92471,-0.109946 -1.56562,-1.045703 0.15123,-0.394001 0.54387,-0.600187 0.93605,-0.611388 z m -27.18038,0.0041 c 0.0361,-2.28e-4 0.0722,0.0011 0.10805,0.0041 0.4779,0.04306 0.92161,0.388711 0.92161,0.892202 0,0.474581 -0.28454,0.765416 -0.82319,0.841908 -0.91551,0.130026 -1.5209,-0.840097 -0.90717,-1.453822 0.1953,-0.195308 0.44836,-0.282948 0.7007,-0.284563 z m 13.53484,8.74223 c -10.55124,0 -10.77688,0.01553 -11.96119,0.821589 -0.66395,0.451872 -1.55095,1.285355 -1.97107,1.852316 -0.76304,1.02965 -0.76372,1.078763 -0.85957,41.845977 l -0.0963,40.81471 0.76168,0.96814 c 0.96187,1.22284 2.68108,1.30028 3.87955,0.17439 l 0.84512,-0.79432 v -22.90873 -22.9093 l 0.0353,0.0134 V 90.918089 l -0.0556,0.03426 0.10161,-5.024216 0.10163,-5.023676 h 18.62269 v 0.859566 1.444207 c 1.33715,-0.41758 3.28582,-0.978879 5.66128,-1.633015 8.4e-4,-0.0052 0.001,-0.0094 0.002,-0.0145 0.0148,-0.07235 0.0417,-0.219871 0.0871,-0.369076 -0.057,-0.107017 -0.091,-0.250488 -0.091,-0.483007 0,-1.367011 -1.68751,-3.854717 -3.05529,-4.50377 -1.07125,-0.508316 -2.82397,-0.594797 -12.00823,-0.594797 z m -26.015939,7.267031 c -0.729224,0 -1.458452,0.332818 -1.981766,0.998101 l -0.756868,0.961728 0.0021,74.350642 c 0.0014,52.26248 0.119843,74.77338 0.397957,75.77504 0.50967,1.83565 3.024774,4.48312 4.89477,5.15207 1.217081,0.43549 5.23531,0.50909 24.099946,0.44181 l 22.63918,-0.0808 1.72502,-1.01415 c 1.11846,-0.65737 2.08117,-1.62018 2.73863,-2.73863 l 1.01362,-1.72448 0.18293,-10.58972 0.17812,-10.33192 h -5.65538 l -5.4e-4,-0.33966 v 9.97727 c 0,9.79355 -0.0147,9.99105 -0.79913,10.72187 -0.78563,0.7319 -1.16583,0.74456 -22.47336,0.74456 H 95.903013 L 95.007076,234.2844 94.1106,233.38845 V 159.1127 84.836936 L 93.353733,83.875209 C 92.830423,83.20997 92.101195,82.877152 91.371969,82.877152 Z M 140.84973,213.73697 c 0,0 -0.27744,-0.0274 -0.47979,-0.048 -8.5e-4,0.003 -0.002,0.006 -0.003,0.01 z m -35.66265,-43.35114 c -0.95608,0.0717 -1.89202,0.6076 -2.2904,1.56936 -0.28499,0.68809 -0.37527,7.22607 -0.30488,22.03368 0.0984,20.71287 0.11239,21.07218 0.86384,22.0861 0.42013,0.56687 1.30713,1.40044 1.97107,1.85232 1.18432,0.80616 1.40995,0.82159 11.96119,0.82159 9.18425,0 10.93698,-0.0869 12.00825,-0.59533 1.36778,-0.64905 3.05529,-3.13622 3.05529,-4.50323 0,-0.23789 0.0336,-0.38559 0.0909,-0.49477 -0.0486,-0.11286 -0.0602,-0.2437 -0.0594,-0.37442 -2.06268,-0.2935 -4.11425,-0.62691 -5.69122,-1.0441 v 0.85796 0.85902 l -9.15302,0.0973 c -4.30669,0.0458 -8.00405,0.002 -9.07494,-0.0973 h -0.39474 v -0.322 c -0.10487,-0.68078 -0.1824,-2.6255 -0.1824,-4.84768 v -4.86483 l 0.0316,0.0192 v -24.56693 l -0.0321,0.0123 v -3.27887 c 0,-1.80325 -0.17422,-3.6045 -0.38726,-4.00258 -0.47953,-0.89599 -1.45575,-1.28856 -2.41181,-1.21687 z m 30.15222,42.83766 c 0.033,0.004 0.0637,0.007 0.0952,0.0106 -0.002,-0.003 -0.003,-0.007 -0.005,-0.0106 z m -31.36963,6.98618 c -2.91324,0 -4.855265,1.34284 -6.039431,4.17695 -1.161385,2.77957 0.111161,6.1439 2.946701,7.79119 2.11751,1.23015 5.11624,1.0044 7.0124,-0.5274 4.88036,-3.94258 2.31143,-11.44074 -3.91967,-11.44074 z m 27.06217,0 c -2.20788,0 -3.58975,0.61648 -4.91723,2.19411 -2.62103,3.11491 -1.69113,7.95241 1.89297,9.8457 3.99415,2.1099 9.0397,-0.58796 9.46968,-5.06379 0.37421,-3.89449 -2.473,-6.97602 -6.44542,-6.97602 z m 0.039,5.36226 c 0.2079,0.009 0.4159,0.0892 0.59212,0.26529 0.28766,0.28764 0.42379,0.78237 0.30221,1.09921 -0.2959,0.77112 -1.56537,0.73469 -1.86783,-0.0536 -0.26932,-0.70181 0.34977,-1.33535 0.9735,-1.311 z m -27.21783,0.13638 c 0.0361,-2.2e-4 0.0722,7.1e-4 0.10805,0.004 0.4779,0.043 0.92161,0.3887 0.92161,0.89219 0,0.47458 -0.28454,0.76542 -0.82319,0.84191 -0.91552,0.13002 -1.5209,-0.84009 -0.90717,-1.45383 0.1953,-0.19531 0.44836,-0.28294 0.7007,-0.28456 z" />
  <path
     id="path12762"
     style="fill:#000000;stroke-width:1.3801"
     d="M 553.72852 303.95508 C 550.72557 303.97624 547.56188 304.03362 544.21484 304.14844 C 539.82806 304.29894 535.87503 304.46839 532.3457 304.64453 L 532.3457 304.68359 L 520.83008 305.56836 C 514.49631 306.05522 507.35426 306.84515 504.95898 307.32422 C 503.69473 307.57707 502.88505 307.65637 502.24219 307.63672 C 489.33113 309.51004 476.46885 313.1825 468.18945 315.83789 C 467.01871 316.23256 466.19368 316.53479 464.75391 317.00586 C 456.80148 319.60772 443.80544 324.83774 435.87305 328.62695 C 427.94065 332.4162 418.43619 337.37099 414.75391 339.63672 L 408.49023 343.49023 L 408.49023 374.23242 C 408.87329 368.18103 409.39232 367.50067 416.41797 362.71094 C 427.80017 354.95108 455.45111 341.62503 469.99609 336.89258 C 493.77926 329.15431 507.29891 326.95795 535.87891 326.18555 C 539.58122 326.0855 543.06931 326.02585 546.38672 326.01172 C 569.60878 325.91254 584.47224 328.03955 605.98047 334.08008 C 681.52657 355.29702 742.97826 416.31116 764.76172 491.73242 C 780.71 546.95075 775.24622 608.18158 749.86719 658.67188 C 717.40664 723.25032 658.85574 768.25145 588.4668 782.72266 C 551.37134 790.3491 506.91926 787.68983 470.0293 775.63477 C 454.46626 770.54896 430.03645 758.81555 417.79883 750.55078 C 409.32936 744.83084 408.8703 744.30907 408.49023 738.21484 L 408.49023 769.04688 L 414.79297 772.92383 C 426.33489 780.02564 449.75213 790.62101 464.75391 795.5293 C 467.22613 796.33819 468.94656 796.93569 470.6543 797.53516 C 477.95188 799.86387 488.95153 803.09261 498.6543 804.80859 L 501.44922 804.80859 L 501.44922 805.00391 C 502.01131 804.74236 502.90133 804.80008 504.42773 805.10547 C 505.41687 805.30352 509.25097 805.6306 511.89062 805.92578 C 513.55834 805.81126 514.97084 805.98823 516.16211 806.39453 C 517.86154 806.55743 518.57316 806.70744 520.30078 806.84766 L 525.89648 807.30078 C 529.70198 807.44516 535.75798 807.6409 546.05859 807.91016 C 549.51395 808.00049 552.18068 808.06314 554.51367 808.11719 L 559.49023 808.00586 L 559.48242 807.94922 C 559.48242 807.94922 560.04486 807.97467 560.27148 807.98828 L 591.00391 807.28906 C 637.88641 806.22282 655.69125 803.07773 688.98828 789.97656 C 758.01236 762.81831 812.77978 703.8654 835.74219 632.00781 C 844.75995 603.78793 846.22068 593.38445 846.27344 556.95898 C 846.31615 527.68205 845.94928 522.00654 843.12695 508.06836 C 839.25664 488.95642 832.27748 467.66911 824.24609 450.48242 C 819.31544 439.931 817.61019 437.52761 814.50391 436.74805 C 809.24061 435.42691 803.8655 437.66547 801.76367 442.05078 C 800.18115 445.35261 800.442 446.84716 804.11328 455.47461 L 808.24414 465.18359 L 792.43555 465.18359 C 780.71463 465.18359 776.62126 464.73798 776.61328 463.45898 C 776.5906 459.97766 761.57819 431.00527 753.37695 418.60547 L 744.93359 405.83984 L 757.88281 405.83984 L 770.83008 405.83984 L 775.6582 410.66797 C 781.45698 416.46682 786.3674 416.92365 791.17969 412.11133 C 797.82516 405.4659 795.52392 400.79877 775.5625 380.44141 C 743.96546 348.21768 708.4515 326.90466 665.83203 314.58984 C 641.07461 307.43623 630.79742 306.15307 591.00391 305.24805 L 583.11133 305.06836 L 583.10352 305.13281 C 583.10352 305.13281 582.81932 305.10135 582.31445 305.05078 L 553.74023 304.40039 L 553.72852 303.95508 z M 542.2207 337.18164 C 498.02264 337.45074 449.81267 352.46853 416.82227 377.02539 C 412.86979 379.96746 409.26622 382.375 408.81445 382.375 C 408.65496 382.375 408.57798 381.57348 408.49219 380.87109 L 408.49219 436.57227 L 412.24805 437.99023 C 418.0994 440.19888 423.83693 435.88454 424.4375 428.82227 C 424.81394 424.39485 424.00993 422.88446 417.75391 416.26953 C 413.84236 412.13367 411.00252 408.16644 411.44336 407.45312 C 413.10688 404.76146 432.90383 390.40158 434.30664 390.86914 C 435.11315 391.13787 437.82149 394.76767 440.32422 398.93555 C 446.10622 408.56446 450.28789 411.14604 456.16211 408.71289 C 458.75679 407.63811 460.94371 405.40029 461.79883 402.94727 C 462.99985 399.50208 462.49174 397.56806 458.17578 389.17773 C 452.42961 378.0073 451.86036 379.08496 466.79297 372.85156 C 481.33164 366.78266 481.31929 366.78257 483.58984 374.78516 C 486.9303 386.55857 488.2855 388.98312 492.50391 390.73047 C 497.63866 392.85728 502.70437 390.85364 505.01562 385.78125 C 506.29791 382.96694 506.1487 380.24646 504.27734 372.44922 C 502.98429 367.06149 502.14761 362.43049 502.41992 362.1582 C 503.04086 361.53723 515.53019 359.40606 525.09961 358.28711 L 532.3457 357.43945 L 532.3457 367.65039 C 532.3457 380.22933 535.26419 385.13477 542.74414 385.13477 C 550.58273 385.13477 553.04883 381.09991 553.04883 368.26758 L 553.04883 357.43945 L 560.29297 358.28711 C 570.9845 359.53724 582.38102 361.56465 583.17578 362.35938 C 583.55857 362.74216 582.72588 367.6545 581.32617 373.27539 C 578.92954 382.90108 578.91711 383.70315 581.11328 387.05469 C 584.09522 391.60562 589.71814 393.07154 594.30664 390.49609 C 597.80051 388.53505 599.94833 384.09743 602.72852 373.08789 L 604.20312 367.25195 L 612.875 370.51758 C 617.64488 372.31292 624.17955 375.12353 627.39453 376.76367 L 633.23828 379.74414 L 630.1582 384.85547 C 628.46407 387.66619 626.25823 391.19024 625.25586 392.6875 C 622.1551 397.31912 622.98309 403.90213 627.07031 407.11719 C 634.33339 412.83032 639.22758 410.45188 646.36719 397.74023 C 648.55463 393.84577 650.89046 390.65896 651.55664 390.6582 C 653.09253 390.65612 670.38058 403.43147 673.48633 406.86328 C 675.7068 409.31687 675.45898 409.79446 668.25781 416.90625 C 663.00748 422.09135 660.69531 425.45329 660.69531 427.9082 C 660.69531 435.48189 668.47543 440.72185 674.86914 437.45312 C 676.56139 436.58799 680.83833 433.08365 684.37109 429.66602 L 690.79297 423.45117 L 699.89648 434.96484 C 704.90304 441.29635 709 446.93275 709 447.49023 C 709 448.04771 706.04888 450.18643 702.44336 452.24219 C 692.41703 457.95895 689.67773 460.91336 689.67773 466.01172 C 689.67773 469.21819 690.71743 471.31849 693.31445 473.36133 C 698.31496 477.29472 701.02533 476.98405 710.5957 471.375 C 715.14493 468.70877 719.37701 466.8424 720.00195 467.22852 C 721.34399 468.05793 731.08008 490.95281 731.08008 493.2793 C 731.08008 494.1591 726.26745 496.42562 720.38477 498.31641 C 711.36311 501.2161 709.48452 502.34761 708.38672 505.54883 C 706.55629 510.88643 708.86516 516.57983 713.52539 518.21875 C 716.94341 519.42079 729.453 517.84296 735.79297 515.41016 C 737.1392 514.89357 738.03418 517.47844 739.18164 525.19336 C 740.0394 530.96062 740.74219 538.13736 740.74219 541.14258 L 740.74219 546.60742 L 729.80078 546.60742 C 719.6252 546.60742 718.66033 546.86038 716 550.24219 C 712.39157 554.82951 712.39157 557.70373 716 562.29102 C 718.66033 565.67316 719.6252 565.92773 729.80078 565.92773 L 740.74219 565.92773 L 740.74219 571.39258 C 740.74219 574.39779 740.0394 581.57458 739.18164 587.3418 C 738.03418 595.05676 737.1392 597.64358 735.79297 597.12695 C 729.453 594.69396 716.94341 593.11632 713.52539 594.31836 C 708.86516 595.95731 706.55629 601.64877 708.38672 606.98633 C 709.48452 610.18759 711.36311 611.3191 720.38477 614.21875 C 726.26745 616.10957 731.08008 618.37801 731.08008 619.25781 C 731.08008 621.5843 721.34399 644.47722 720.00195 645.30664 C 719.37701 645.69264 715.14493 643.82838 710.5957 641.16211 C 701.02533 635.5531 698.31496 635.24047 693.31445 639.17383 C 690.71743 641.21662 689.67773 643.317 689.67773 646.52344 C 689.67773 651.62183 692.41703 654.57816 702.44336 660.29492 C 706.04888 662.35068 709 664.48939 709 665.04688 C 709 665.60443 704.90304 671.23881 699.89648 677.57031 L 690.79297 689.08203 L 684.37109 682.86914 C 680.83833 679.4515 676.56139 675.94724 674.86914 675.08203 C 668.47543 671.81331 660.69531 677.05132 660.69531 684.625 C 660.69531 687.07988 663.00748 690.44377 668.25781 695.62891 C 675.45898 702.74065 675.7068 703.21824 673.48633 705.67188 C 670.38054 709.10365 653.09253 721.8803 651.55664 721.87891 C 650.89046 721.87823 648.55463 718.68938 646.36719 714.79492 C 639.22758 702.08331 634.33339 699.70476 627.07031 705.41797 C 622.98309 708.63299 622.1551 715.21603 625.25586 719.84766 C 626.25823 721.34495 628.46407 724.869 630.1582 727.67969 L 633.23828 732.78906 L 627.39453 735.77344 C 624.17955 737.4136 617.64488 740.22414 612.875 742.01953 L 604.20312 745.2832 L 602.72852 739.44727 C 599.94833 728.43773 597.80051 724.00011 594.30664 722.03906 C 589.71814 719.46358 584.09522 720.93153 581.11328 725.48242 C 578.917 728.83403 578.92942 729.63406 581.32617 739.25977 C 582.72588 744.88064 583.55876 749.79276 583.17578 750.17578 C 582.38102 750.97054 570.98453 752.99981 560.29297 754.25 L 553.04883 755.09766 L 553.04883 744.26953 C 553.04883 731.43732 550.58273 727.39844 542.74414 727.39844 C 535.26423 727.39844 532.34567 732.30578 532.3457 744.88477 L 532.3457 755.09766 L 525.09961 754.25 C 515.53019 753.131 503.04086 750.99793 502.41992 750.37695 C 502.1478 750.10483 502.98429 745.47369 504.27734 740.08594 C 506.1487 732.28866 506.29787 729.56822 505.01562 726.75391 C 502.70437 721.6811 497.63862 719.67783 492.50391 721.80469 C 488.2855 723.552 486.9303 725.97662 483.58984 737.75 C 481.31925 745.75262 481.33164 745.75058 466.79297 739.68164 C 451.85771 733.44716 452.4271 734.53363 458.19727 723.31641 C 463.57451 712.86299 463.55423 708.5746 458.11133 704.43945 C 452.24286 699.98082 446.1951 703.25095 439.87305 714.30078 C 437.48832 718.46888 434.84853 721.87891 434.00781 721.87891 C 432.39581 721.87891 412.81661 707.30593 411.44336 705.08398 C 411.00252 704.37064 413.84236 700.4034 417.75391 696.26758 C 424.00993 689.65265 424.81405 688.14233 424.4375 683.71484 C 423.83693 676.65265 418.0994 672.33632 412.24805 674.54492 L 408.49219 675.96289 L 408.49219 731.64844 C 408.57836 730.95353 408.65496 730.16016 408.81445 730.16016 C 409.26603 730.16016 412.86964 732.54242 416.82227 735.45508 C 452.87057 762.01885 507.57716 777.95827 553.19727 775.1875 C 634.48092 770.25068 702.4883 725.79044 738.83594 653.82227 C 756.50277 618.84206 763.7212 582.37203 761.2207 540.74023 C 756.59369 463.70337 708.38171 392.62076 637.92383 358.95312 C 612.19197 346.65744 590.74753 340.82276 560.86133 337.98438 C 554.7671 337.40559 548.53471 337.1432 542.2207 337.18164 z M 670.51758 337.87305 C 671.77877 337.84394 676.94541 339.81093 686.50977 343.76562 C 706.40527 351.99208 729.42339 366.2755 746.26172 380.84375 L 751.0918 385.02344 L 739.36133 385.02344 L 727.63086 385.02344 L 716.83203 374.73047 C 704.49255 362.96866 693.79282 354.49818 677.96484 343.96289 C 671.90267 339.9279 669.25631 337.90198 670.51758 337.87305 z M 800.62305 485.88281 L 816.34375 485.88281 L 819.21289 496.57812 C 822.79456 509.93781 826.29472 531.40424 826.30273 540.05078 L 826.30469 540.05078 L 826.30664 546.60742 L 810.57617 546.60742 L 794.8457 546.60742 L 793.92969 536.60156 C 792.7806 524.02919 788.13364 496.95662 786.29297 492.11523 C 785.52924 490.10653 784.9043 487.88152 784.9043 487.17188 C 784.9043 486.44708 791.7929 485.88281 800.62305 485.88281 z M 794.8418 565.92773 L 810.57227 565.92773 L 826.30469 565.92773 L 826.30078 572.48438 C 826.29322 581.13091 822.79456 602.59738 819.21289 615.95703 L 816.3418 626.65234 L 800.62109 626.65234 C 791.79098 626.65234 784.90039 626.08609 784.90039 625.36133 C 784.90039 624.65168 785.52729 622.42863 786.29102 620.41992 C 788.13168 615.5785 792.77861 588.506 793.92773 575.93359 L 794.8418 565.92773 z M 792.47852 647.35156 L 792.47852 647.35352 L 808.33008 647.35352 L 805.10352 654.59961 C 800.25397 665.48858 789.85508 682.55088 780.30859 695.2832 L 780.30859 695.28711 L 771.79297 706.64453 L 758.36328 706.66992 L 744.93164 706.69727 L 753.375 693.92969 C 761.57623 681.52993 776.58396 652.55945 776.61133 649.07812 C 776.61889 647.79887 780.72233 647.35156 792.47852 647.35156 z M 728.01562 727.39844 L 739.55469 727.42578 L 751.0918 727.45117 L 745.03125 732.59961 C 726.90516 747.99604 699.59487 764.1535 677.87695 772.32812 L 677.87695 772.32617 C 672.94667 774.18196 668.46132 775.70117 667.91016 775.70117 C 667.35895 775.70117 671.88377 772.44017 677.96484 768.45508 C 693.24309 758.44307 704.02156 749.96885 716.96875 737.78906 L 728.01562 727.39844 z "
     transform="scale(0.26458333)" />
  <path
     id="path897"
     style="fill:#000000;fill-opacity:1;stroke-width:2.17873"
     d="m 143.52734,112.90234 c -1.98627,0.0534 -3.55666,1.48507 -4.71731,2.96343 -3.24751,3.60952 -6.49793,7.21646 -9.74362,10.82759 -4.84639,1.83421 -9.74564,3.54222 -14.55469,5.4668 -2.83973,1.60556 -3.87523,5.18863 -3.46875,8.26562 0.2663,2.44901 1.8634,4.40227 3.14784,6.39943 2.40186,3.68003 4.804,7.35988 7.20567,11.04002 0.0845,4.09731 -0.0467,8.20369 0.18555,12.29493 0.36255,2.74331 2.23901,5.55793 5.12617,6.02307 2.02684,0.26764 3.88525,-0.80604 5.79903,-1.27873 3.70316,-1.13608 7.39344,-2.36078 11.11582,-3.4045 1.47061,0.0545 2.79345,0.79957 4.20875,1.12747 3.81752,1.1677 7.6118,2.42201 11.44359,3.53659 2.38646,0.452 4.77967,-1.03231 5.8344,-3.14324 1.07589,-1.90952 1.11709,-4.15162 1.06454,-6.2829 0.0229,-2.95691 0.0437,-5.91384 0.0679,-8.87073 3.14267,-4.87652 6.39749,-9.68583 9.4664,-14.60657 1.6745,-3.35194 1.22404,-7.91698 -1.65972,-10.47348 -1.63958,-1.27708 -3.71008,-1.58373 -5.57227,-2.41597 -3.30153,-1.2257 -6.60238,-2.45325 -9.90433,-3.67781 -3.75329,-4.1503 -7.45094,-8.35666 -11.26688,-12.44681 -1.02371,-0.91054 -2.40264,-1.43273 -3.77805,-1.34421 z m 0.3125,8.48243 c 1.32161,-0.0518 1.90304,1.33386 2.74632,2.09791 3.29938,3.61373 6.48992,7.32167 9.86696,10.86107 1.50062,1.09532 3.39213,1.39523 5.06217,2.1488 3.01446,1.12349 6.02866,2.24771 9.0433,3.37073 -2.83971,4.42661 -5.82069,8.76637 -8.56529,13.25101 -1.17225,2.52135 -0.65918,5.36793 -0.80237,8.0521 -0.016,2.23035 -0.0332,4.46068 -0.0483,6.69103 -2.23031,-0.18518 -4.27522,-1.15752 -6.41734,-1.72524 -3.43695,-1.04228 -6.82956,-2.21833 -10.30532,-3.13218 -2.00383,-0.19002 -3.86973,0.88372 -5.73116,1.32878 -3.75919,1.15036 -7.49913,2.39604 -11.27665,3.46614 -0.88948,0.07 -1.04903,-0.98405 -0.92969,-1.65234 -0.083,-3.65386 0.0689,-7.3195 -0.19207,-10.96532 -0.43867,-2.59756 -2.34004,-4.56966 -3.63332,-6.7678 -1.86208,-2.85339 -3.7255,-5.7059 -5.58672,-8.55985 4.48929,-1.7076 9.03968,-3.27167 13.48633,-5.08008 1.5929,-1.01852 2.59022,-2.6886 3.92484,-3.99143 2.757,-3.03416 5.44898,-6.14328 8.26852,-9.10818 0.3242,-0.20771 0.7104,-0.27703 1.08984,-0.28515 z" />
</svg>
