<?xml version="1.0" encoding="UTF-8" standalone="no"?>
<svg
   id="Layer_2"
   data-name="Layer 2"
   viewBox="0 0 32 32"
   version="1.1"
   width="32"
   height="32"
   xmlns="http://www.w3.org/2000/svg"
   xmlns:svg="http://www.w3.org/2000/svg">
  <defs
     id="defs2273">
    <style
       id="style2271">
      .cls-2, .cls-3 {
        fill: #8dff97;
      }

      .cls-4 {
        fill: #374975;
      }

      .cls-5 {
        fill: #378eff;
      }
    </style>
  </defs>
  <g
     id="g2323"
     transform="translate(-262.02534,-40.179794)">
    <path
       class="cls-4"
       d="m 284.24,48.49 h -6.65 V 64 h 5.78 c 0,0 0.46,-0.01 0.46,-0.01 0.14,0 0.27,0.01 0.41,0.01 4.28,0 7.76,-3.47 7.76,-7.76 0,-4.29 -3.47,-7.76 -7.76,-7.76 z"
       id="path2317" />
    <path
       class="cls-5"
       d="m 278.04,48.49 h -6.2 V 64 h 3.86 c 0,0 1.93,-0.01 1.93,-0.01 0.14,0 0.27,0.01 0.41,0.01 0.14,0 0.27,0 0.41,-0.01 4.09,-0.21 7.35,-3.6 7.35,-7.75 0,-4.15 -3.47,-7.76 -7.76,-7.76 z"
       id="path2319" />
    <path
       class="cls-2"
       d="m 279.6,56.25 c 0,-4.28 -3.47,-7.76 -7.76,-7.76 -4.29,0 -7.76,3.47 -7.76,7.76 0,4.29 3.47,7.76 7.76,7.76 0.14,0 0.28,0 0.41,-0.01 4.09,-0.21 7.34,-3.6 7.34,-7.75 z"
       id="path2321" />
  </g>
</svg>
