<?xml version="1.0" encoding="UTF-8"?>
<svg id="Layer_2" data-name="Layer 2" xmlns="http://www.w3.org/2000/svg" viewBox="0 0 291.03 116.93">
  <defs>
    <style>
      .cls-1 {
        fill: #8dff97;
      }

      .cls-2 {
        fill: #252932;
      }

      .cls-3 {
        fill: #374975;
      }

      .cls-4 {
        fill: #19cfa3;
      }

      .cls-5 {
        fill: #378eff;
      }

      .cls-6 {
        fill: #2663ff;
      }
    </style>
  </defs>
  <g id="Layer_1-2" data-name="Layer 1">
    <g>
      <g>
        <path class="cls-4" d="M7.27,97.3c1.04-.7,2.35-1.06,3.92-1.06,1.74,0,3.16,.43,4.25,1.29,1.09,.86,1.87,2.05,2.32,3.58l3.95-1.09c-.73-2.28-1.99-4.1-3.78-5.45-1.8-1.35-4.04-2.02-6.74-2.02-2.34,0-4.34,.51-6.01,1.53-1.67,1.02-2.95,2.45-3.84,4.28-.89,1.83-1.34,3.95-1.34,6.36s.45,4.54,1.34,6.37c.89,1.83,2.17,3.26,3.84,4.28,1.67,1.02,3.67,1.53,6.01,1.53,2.7,0,4.94-.67,6.74-2.02,1.8-1.35,3.06-3.16,3.78-5.45l-3.95-1.09c-.45,1.52-1.23,2.71-2.32,3.57-1.09,.87-2.51,1.3-4.25,1.3-1.57,0-2.88-.35-3.93-1.06-1.05-.7-1.84-1.69-2.36-2.96-.53-1.27-.79-2.76-.79-4.47,.01-1.71,.28-3.2,.8-4.47,.52-1.27,1.31-2.26,2.35-2.96Z"/>
        <path class="cls-4" d="M37.31,99.59c-1.31-.79-2.85-1.19-4.61-1.19s-3.24,.39-4.55,1.17c-1.31,.78-2.33,1.86-3.07,3.25-.74,1.39-1.1,3-1.1,4.84s.36,3.41,1.08,4.8c.72,1.39,1.73,2.48,3.04,3.27,1.31,.79,2.84,1.19,4.6,1.19s3.29-.39,4.6-1.18c1.31-.78,2.33-1.87,3.06-3.26,.73-1.39,1.1-3,1.1-4.81s-.36-3.41-1.09-4.8c-.73-1.39-1.74-2.48-3.05-3.27Zm-1.14,12.1c-.76,1.04-1.92,1.56-3.48,1.56s-2.64-.51-3.42-1.52-1.16-2.37-1.16-4.07c0-1.1,.16-2.08,.49-2.91s.83-1.49,1.5-1.96c.68-.47,1.54-.71,2.59-.71,1.54,0,2.69,.51,3.46,1.52,.77,1.01,1.15,2.37,1.15,4.07s-.38,2.99-1.14,4.03Z"/>
        <rect class="cls-4" x="45.03" y="98.89" width="3.91" height="17.54"/>
        <rect class="cls-4" x="45.03" y="92.64" width="3.91" height="3.59"/>
        <path class="cls-4" d="M69.47,104.98c-.07-.68-.22-1.39-.46-2.15s-.61-1.47-1.1-2.14c-.5-.67-1.17-1.22-2.01-1.66-.84-.43-1.92-.65-3.21-.65-1.65,0-3.03,.36-4.16,1.08-.61,.39-1.13,.85-1.58,1.38v-1.96h-3.49v17.54h3.96v-9.01c0-1.07,.12-1.95,.36-2.64,.24-.69,.55-1.23,.95-1.62,.4-.4,.84-.67,1.32-.84,.49-.16,.98-.24,1.48-.24,.93,0,1.67,.2,2.22,.6,.55,.4,.96,.91,1.23,1.53,.28,.62,.45,1.27,.53,1.94s.11,1.28,.11,1.83v8.44h3.96v-9.79c0-.42-.04-.97-.11-1.65Z"/>
      </g>
      <g>
        <path class="cls-6" d="M107.7,94.02h-3.88v4.87h-3.17v3.07h3.17v7.31c0,1,.01,1.89,.03,2.68,.02,.79,.23,1.56,.63,2.32,.45,.83,1.12,1.44,1.99,1.83,.87,.38,1.86,.59,2.97,.62,1.11,.03,2.24-.07,3.39-.28v-3.28c-1.09,.16-2.06,.21-2.91,.13-.85-.08-1.47-.44-1.86-1.09-.21-.33-.32-.77-.33-1.3-.02-.53-.02-1.15-.02-1.85v-7.08h5.13v-3.07h-5.13v-4.87Z"/>
        <path class="cls-6" d="M131.75,102.83c-.24-.76-.6-1.47-1.1-2.14-.5-.67-1.17-1.22-2.01-1.66-.84-.43-1.91-.65-3.2-.65-1.64,0-3.02,.36-4.14,1.08-.6,.39-1.12,.85-1.57,1.38v-7.81h-3.48v23.38h3.95v-9.01c0-1.07,.12-1.95,.36-2.64,.24-.69,.55-1.23,.95-1.62,.39-.4,.83-.67,1.32-.84,.49-.16,.98-.24,1.47-.24,.93,0,1.66,.2,2.21,.6,.54,.4,.96,.91,1.23,1.53,.27,.62,.45,1.27,.53,1.94,.08,.67,.11,1.28,.11,1.83v8.44h3.95v-9.79c0-.42-.04-.97-.1-1.65-.07-.68-.22-1.39-.46-2.15Z"/>
        <path class="cls-6" d="M148.54,99.67c-1.27-.85-2.81-1.27-4.62-1.27-1.72,0-3.23,.39-4.53,1.17-1.31,.78-2.33,1.88-3.06,3.29-.73,1.41-1.1,3.08-1.1,4.99,0,1.78,.37,3.35,1.12,4.71,.75,1.36,1.79,2.43,3.13,3.2,1.34,.77,2.89,1.15,4.66,1.15s3.22-.44,4.62-1.32c1.4-.88,2.43-2.11,3.1-3.69l-3.85-1.17c-.38,.81-.91,1.43-1.61,1.86-.7,.43-1.52,.64-2.48,.64-1.49,0-2.62-.49-3.4-1.46-.61-.76-.97-1.78-1.1-3.04h12.64c.15-2.1-.08-3.92-.7-5.47-.61-1.55-1.56-2.75-2.82-3.6Zm-4.46,2.15c1.41,0,2.45,.44,3.11,1.32,.47,.62,.76,1.51,.9,2.65h-8.56c.18-1,.5-1.84,.99-2.48,.78-.99,1.96-1.49,3.56-1.49Z"/>
        <path class="cls-6" d="M167.5,92.59c-.56,.03-1.13,.15-1.71,.36s-1.11,.59-1.61,1.15c-.4,.43-.67,.91-.83,1.44-.15,.53-.24,1.06-.28,1.6-.03,.54-.05,1.03-.05,1.47v.28h-2.82v3.07h2.82v14.47h3.9v-14.47h4.22v-3.07h-4.22v-1.12c0-.61,.18-1.1,.54-1.47,.36-.37,.91-.56,1.66-.56h2.02v-3.18h-2.19c-.42,0-.91,.01-1.47,.04Z"/>
        <path class="cls-6" d="M185.22,107.9c0,1.06-.12,1.94-.36,2.63-.24,.69-.55,1.24-.95,1.63-.39,.4-.83,.67-1.32,.84-.49,.16-.98,.24-1.47,.24-.93,0-1.66-.2-2.21-.6s-.95-.91-1.23-1.53c-.27-.62-.45-1.27-.53-1.95-.08-.68-.11-1.29-.11-1.83v-8.44h-3.95v9.79c0,.42,.04,.97,.11,1.65,.07,.68,.22,1.39,.46,2.15,.24,.76,.6,1.47,1.1,2.14s1.17,1.22,2.01,1.66c.84,.43,1.91,.65,3.2,.65,1.64,0,3.02-.36,4.14-1.08,.6-.39,1.12-.85,1.57-1.38v1.96h3.45v-17.54h-3.92v9.01Z"/>
        <path class="cls-6" d="M198.46,94.02h-3.88v4.87h-3.17v3.07h3.17v7.31c0,1,.01,1.89,.03,2.68,.02,.79,.23,1.56,.63,2.32,.45,.83,1.12,1.44,1.99,1.83,.87,.38,1.86,.59,2.97,.62,1.11,.03,2.24-.07,3.39-.28v-3.28c-1.09,.16-2.06,.21-2.91,.13-.85-.08-1.47-.44-1.86-1.09-.21-.33-.32-.77-.33-1.3-.02-.53-.02-1.15-.02-1.85v-7.08h5.13v-3.07h-5.13v-4.87Z"/>
        <path class="cls-6" d="M218.83,107.9c0,1.06-.12,1.94-.36,2.63-.24,.69-.55,1.24-.95,1.63-.39,.4-.83,.67-1.32,.84-.49,.16-.98,.24-1.47,.24-.93,0-1.66-.2-2.21-.6s-.95-.91-1.23-1.53c-.27-.62-.45-1.27-.53-1.95-.08-.68-.11-1.29-.11-1.83v-8.44h-3.95v9.79c0,.42,.04,.97,.11,1.65,.07,.68,.22,1.39,.46,2.15,.24,.76,.6,1.47,1.1,2.14s1.17,1.22,2.01,1.66c.84,.43,1.91,.65,3.2,.65,1.64,0,3.02-.36,4.14-1.08,.6-.39,1.12-.85,1.57-1.38v1.96h3.45v-17.54h-3.92v9.01Z"/>
        <path class="cls-6" d="M235.2,98.81c-.55,.04-1.09,.14-1.61,.31s-1,.4-1.43,.69c-.51,.31-.94,.71-1.3,1.19-.17,.22-.31,.45-.45,.69v-2.81h-3.45v17.54h3.92v-8.91c0-.67,.08-1.3,.24-1.88,.16-.58,.41-1.1,.75-1.55s.78-.83,1.32-1.12c.54-.32,1.15-.51,1.82-.57s1.27,0,1.79,.15v-3.65c-.52-.09-1.05-.11-1.6-.07Z"/>
        <path class="cls-6" d="M253.18,108.74h1.91c.15-2.1-.08-3.92-.7-5.47-.61-1.55-1.56-2.75-2.82-3.6-1.27-.85-2.81-1.27-4.62-1.27-1.72,0-3.23,.39-4.53,1.17-1.31,.78-2.33,1.88-3.06,3.29-.73,1.41-1.1,3.08-1.1,4.99,0,1.78,.37,3.35,1.12,4.71,.75,1.36,1.79,2.43,3.13,3.2,1.34,.77,2.89,1.15,4.66,1.15s3.22-.44,4.62-1.32c1.4-.88,2.43-2.11,3.1-3.69l-3.85-1.17c-.38,.81-.91,1.43-1.61,1.86-.7,.43-1.52,.64-2.48,.64-1.49,0-2.62-.49-3.4-1.46-.61-.76-.97-1.78-1.1-3.04h10.73Zm-6.07-6.92c1.41,0,2.45,.44,3.11,1.32,.47,.62,.76,1.51,.9,2.65h-8.56c.18-1,.5-1.84,.99-2.48,.78-.99,1.96-1.49,3.56-1.49Z"/>
      </g>
      <g>
        <g>
          <g>
            <rect class="cls-2" x="200.63" width="10.71" height="64.01"/>
            <polygon class="cls-2" points="255.5 64.01 228.77 31.38 255.56 0 242.4 0 215.63 31.28 242.35 64.01 255.5 64.01"/>
          </g>
          <g>
            <path class="cls-2" d="M1.32,64.01V0H12.16l29.69,45.12V0h10.85V64.01h-10.85L12.16,18.89v45.12H1.32Z"/>
            <path class="cls-2" d="M84.12,65.34c-4.8,0-8.99-1.08-12.58-3.24-3.59-2.16-6.36-5.15-8.33-8.96-1.97-3.81-2.96-8.19-2.96-13.13s1.01-9.45,3.02-13.25c2.01-3.79,4.81-6.76,8.4-8.89,3.59-2.13,7.73-3.2,12.45-3.2s9.04,1.08,12.62,3.24c3.58,2.16,6.37,5.15,8.36,8.96,1.98,3.81,2.98,8.19,2.98,13.13s-1,9.37-3,13.18c-2,3.81-4.79,6.79-8.38,8.93-3.59,2.15-7.78,3.22-12.58,3.22Zm0-10.05c4.27,0,7.44-1.42,9.51-4.27,2.07-2.84,3.11-6.52,3.11-11.02s-1.05-8.36-3.16-11.13c-2.1-2.77-5.26-4.16-9.47-4.16-2.87,0-5.24,.64-7.09,1.93-1.85,1.29-3.22,3.08-4.11,5.38-.89,2.3-1.33,4.96-1.33,7.98,0,4.65,1.06,8.36,3.18,11.13,2.12,2.77,5.24,4.16,9.36,4.16Z"/>
            <path class="cls-2" d="M143.77,24.4v-8.4h-14.09V2.67h-10.67v13.33h-8.71v8.4h8.71v20c0,2.73,.03,5.17,.09,7.33,.06,2.16,.64,4.28,1.73,6.36,1.24,2.28,3.07,3.95,5.47,5,2.4,1.05,5.12,1.61,8.16,1.69,3.04,.07,6.14-.19,9.31-.78v-8.98c-2.99,.44-5.66,.56-8,.36-2.34-.21-4.05-1.2-5.11-2.98-.56-.92-.87-2.1-.91-3.56-.04-1.45-.07-3.14-.07-5.07V24.4h14.09Z"/>
            <path class="cls-2" d="M187.78,42.98h5.24c.41-5.75-.22-10.74-1.91-14.98-1.69-4.24-4.27-7.52-7.76-9.85-3.48-2.33-7.71-3.49-12.69-3.49-4.71,0-8.86,1.07-12.45,3.2-3.59,2.13-6.39,5.13-8.4,9-2.02,3.87-3.02,8.42-3.02,13.67,0,4.86,1.03,9.16,3.09,12.89,2.06,3.73,4.93,6.65,8.6,8.76,3.67,2.1,7.94,3.16,12.8,3.16s8.85-1.2,12.69-3.6c3.84-2.4,6.67-5.76,8.51-10.09l-10.58-3.2c-1.04,2.22-2.51,3.92-4.42,5.09-1.91,1.17-4.19,1.76-6.82,1.76-4.09,0-7.2-1.33-9.33-4-1.68-2.09-2.69-4.87-3.05-8.31h29.5Zm-16.67-18.94c3.88,0,6.73,1.2,8.53,3.6,1.28,1.7,2.12,4.12,2.5,7.25h-23.6c.49-2.78,1.42-5.04,2.79-6.78,2.13-2.71,5.39-4.07,9.78-4.07Z"/>
          </g>
        </g>
        <g>
          <path class="cls-3" d="M283.27,48.49h-6.65v15.51h5.78s.46-.01,.46-.01c.14,0,.27,.01,.41,.01,4.28,0,7.76-3.47,7.76-7.76s-3.47-7.76-7.76-7.76Z"/>
          <path class="cls-5" d="M277.07,48.49h-6.2v15.51h3.86s1.93-.01,1.93-.01c.14,0,.27,.01,.41,.01s.27,0,.41-.01c4.09-.21,7.35-3.6,7.35-7.75s-3.47-7.76-7.76-7.76Z"/>
          <path class="cls-1" d="M278.62,56.25c0-4.28-3.47-7.76-7.76-7.76s-7.76,3.47-7.76,7.76,3.47,7.76,7.76,7.76c.14,0,.28,0,.41-.01,4.09-.21,7.34-3.6,7.34-7.75Z"/>
        </g>
      </g>
    </g>
  </g>
</svg>