<svg width="1467" height="430" viewBox="0 0 1467 430" fill="none" xmlns="http://www.w3.org/2000/svg">
<g clip-path="url(#clip0_1703_13977)">
<rect x="787" y="31" width="360" height="10" rx="5" fill="#DFE4EF"/>
<rect x="787" y="31" width="42" height="10" rx="5" fill="#2663FF"/>
<rect x="1284" y="99" width="360" height="10" rx="5" fill="#DFE4EF"/>
<rect x="234" y="420" width="166" height="10" rx="5" fill="#DFE4EF"/>
<rect x="75" y="420" width="17" height="10" rx="5" fill="#DFE4EF"/>
<rect x="1018" y="166" width="149" height="20" rx="10" fill="#374975"/>
<rect x="998" y="166" width="149" height="20" rx="10" fill="#2663FF"/>
<rect x="998" y="166" width="20" height="20" rx="10" fill="#8DFF97"/>
<rect x="1345" y="263" width="77" height="20" rx="10" fill="#DFE4EF"/>
<rect x="762" y="310" width="174" height="30" rx="15" fill="#374975"/>
<rect x="709" y="310" width="135" height="30" rx="15" fill="#2663FF"/>
<rect x="1354" y="400" width="58" height="30" rx="15" fill="#2663FF"/>
<rect y="41" width="234" height="10" rx="5" fill="#DFE4EF"/>
<rect x="558" y="99" width="30" height="10" rx="5" fill="#8DFF97"/>
<rect x="1232" y="99" width="10" height="10" rx="5" fill="#DFE4EF"/>
<rect x="402" width="118" height="10" rx="5" fill="#DFE4EF"/>
<rect x="1101" y="415" width="118" height="10" rx="5" fill="#8DFF97"/>
<rect x="949" y="415" width="35" height="10" rx="5" fill="#2663FF"/>
<rect x="1300" y="31" width="35" height="10" rx="5" fill="#8DFF97"/>
<rect x="709" y="310" width="58" height="30" rx="15" fill="#8DFF97"/>
</g>
<defs>
<clipPath id="clip0_1703_13977">
<rect width="1467" height="430" fill="white"/>
</clipPath>
</defs>
</svg>
